M48
;Layer_Color=9474304
;FILE_FORMAT=2:5
INCH,LZ
;TYPE=PLATED
T1F00S00C0.01200
T4F00S00C0.03543
;TYPE=NON_PLATED
T5F00S00C0.02953
%
T01
X0436Y0155
X04426
X04489Y01549
X05816Y01529
X05947Y01536
X06114Y01535
X06241Y01536
X06307Y01784
Y01854
Y01926
X06238Y01956
Y01984
X05966
X05916Y01983
X05866
Y0207
X05816
X06028Y02072
X05837Y01829
X05607Y01854
X05572
Y01812
Y01779
X05562Y01728
X05436Y0169
X0541
X05353Y01679
X05327Y01718
X05244Y01766
X0525Y01826
X05171Y01871
X05149Y01896
X05126Y01919
X05103Y01941
X0508Y01961
X052Y01968
X05225
X05166Y02066
Y02096
X05356Y02076
X05341Y02033
X05372
X05385Y02175
X05411
X05437
X05468Y021
X0552
X05578Y02159
X0561
X05606Y0195
X05571
X05134Y0179
X05104
X05074
X05044
X04989
X04955
X04866Y01797
X04827
X04753Y01757
X04724
X04695
X0475Y01705
Y01676
X048069Y0193084
X0484627
X0488564
Y0197022
X0484627
Y0200959
X0480691Y0200959
X048069Y0197022
X0488565Y0200959
X04797Y02189
X04706Y0211
X05907Y01607
X05962Y01608
X06012Y01642
X06077Y01588
X06241Y01587
X04633Y01642
X04579Y01641
Y0167
Y01699
Y01728
Y01757
X04608
X04637
X04666
X04686Y01699
X04633
X04637Y01821
X04608
X04579Y01822
Y01851
Y0188
Y01909
Y01937
Y01966
Y01995
Y02024
Y02053
Y02082
Y02111
Y0214
X04569Y0217
X04537Y02177
X04508
X04479
X0445
X04421Y02178
X04392
X04363
Y02247
X04429
X04492Y02246
X04641Y02104
Y02067
Y02008
Y01971
X04669Y01931
Y01901
X04564Y01616
X04535
X04506
X04477
X04448
X04419
X0439
X04361
T04
X0460587Y01545
X0470587
X0480587
X0490587
X0500587
X0510587
X0520587
X0530587
X0540587
X0550587
X0560587
X0570587
X0630587Y02245
X0620587
X0610587
X0600587
X0590587
X0580587
X0570587
X0560587
X0550587
X0540587
X0530587
X0520587
X0510587
X0500587
X0490587
X0480587
X0470587
X0460587
T05
X0611875Y0178122
Y0200879
M30
