G04*
G04 #@! TF.GenerationSoftware,Altium Limited,Altium Designer,21.8.1 (53)*
G04*
G04 Layer_Color=65535*
%FSLAX25Y25*%
%MOIN*%
G70*
G04*
G04 #@! TF.SameCoordinates,17BD96DF-920B-4E40-B81F-192E6F3E527F*
G04*
G04*
G04 #@! TF.FilePolarity,Positive*
G04*
G01*
G75*
%ADD10C,0.00591*%
%ADD11C,0.00984*%
%ADD12C,0.01000*%
%ADD13C,0.01181*%
%ADD14C,0.00600*%
%ADD15C,0.00800*%
%ADD16C,0.00787*%
D10*
X474095Y181117D02*
G03*
X474095Y181117I-295J0D01*
G01*
D11*
X565240Y163411D02*
G03*
X565240Y163411I-492J0D01*
G01*
D12*
X445000Y183499D02*
G03*
X445000Y183499I-1000J0D01*
G01*
X467650Y165091D02*
X561350D01*
X467650Y213909D02*
X561350D01*
X467650Y165091D02*
Y213909D01*
X561350Y165091D02*
Y213909D01*
X615336Y207443D02*
X621406D01*
X631084D02*
X636481D01*
X615311Y171783D02*
X621431D01*
X605674Y204534D02*
Y204683D01*
Y204190D02*
Y204534D01*
Y174317D02*
Y174811D01*
X636481Y171783D02*
Y207443D01*
X631059Y171783D02*
X636481D01*
X616126Y147594D02*
Y149243D01*
X627347Y145232D02*
Y147594D01*
X621568Y156976D02*
X621570D01*
X620063Y155468D02*
X621570Y156976D01*
X620063Y151532D02*
Y155468D01*
Y151532D02*
X621570Y150024D01*
X626430D02*
X627937Y151532D01*
Y155468D01*
X626430Y156976D02*
X627937Y155468D01*
X620653Y145232D02*
Y147594D01*
Y145232D02*
X627347D01*
X621570Y156976D02*
X626430D01*
X621570Y150024D02*
X626430D01*
X616126Y157756D02*
Y159406D01*
X631870Y157760D02*
Y159410D01*
X625370D02*
X631870D01*
X616126Y159406D02*
X625370Y159410D01*
X631874Y147594D02*
Y149243D01*
X616126Y147594D02*
X631874D01*
X586726Y147594D02*
Y149243D01*
X597947Y145232D02*
Y147594D01*
X592168Y156976D02*
X592170D01*
X590663Y155468D02*
X592170Y156976D01*
X590663Y151532D02*
Y155468D01*
Y151532D02*
X592170Y150024D01*
X597029D02*
X598537Y151532D01*
Y155468D01*
X597029Y156976D02*
X598537Y155468D01*
X591254Y145232D02*
Y147594D01*
Y145232D02*
X597947D01*
X592170Y156976D02*
X597029D01*
X592170Y150024D02*
X597029D01*
X586726Y157756D02*
Y159406D01*
X602470Y157760D02*
Y159410D01*
X595970D02*
X602470D01*
X586726Y159406D02*
X595970Y159410D01*
X602474Y147594D02*
Y149243D01*
X586726Y147594D02*
X602474D01*
X441000Y186499D02*
X444000Y189499D01*
X447000Y186499D01*
X441000D02*
X447000D01*
X444000D02*
Y196499D01*
X449118Y179420D02*
X449118Y199498D01*
X438882Y179460D02*
X438882Y199538D01*
D13*
X600122Y213897D02*
G03*
X600122Y213897I-591J0D01*
G01*
X597211Y206028D02*
G03*
X597211Y206028I-591J0D01*
G01*
D14*
X498707Y182942D02*
Y184893D01*
X496755Y182942D02*
X498707D01*
X470548D02*
Y184893D01*
Y182942D02*
X472500D01*
X498707Y209149D02*
Y211101D01*
X496755D02*
X498707D01*
X470548Y209149D02*
Y211101D01*
X472500D01*
X485350Y168300D02*
Y170300D01*
X484350Y168300D02*
Y170300D01*
X483850Y169300D02*
X484350D01*
X485350D02*
X485850D01*
X485450Y175200D02*
Y177200D01*
X484450Y175200D02*
Y177200D01*
X483950Y176200D02*
X484450D01*
X485450D02*
X485950D01*
X525550Y170900D02*
Y172900D01*
X524550Y170900D02*
Y172900D01*
X524050Y171900D02*
X524550D01*
X525550D02*
X526050D01*
X524500Y178000D02*
Y180000D01*
X525500Y178000D02*
Y180000D01*
Y179000D02*
X526000D01*
X524000D02*
X524500D01*
X524525Y206400D02*
Y208400D01*
X525525Y206400D02*
Y208400D01*
Y207400D02*
X526025D01*
X524025D02*
X524525D01*
X573000Y189850D02*
X575000D01*
X573000Y190850D02*
X575000D01*
X574000D02*
Y191350D01*
Y189350D02*
Y189850D01*
X565600D02*
X567600D01*
X565600Y190850D02*
X567600D01*
X566600D02*
Y191350D01*
Y189350D02*
Y189850D01*
X591450Y182000D02*
Y184000D01*
X592450Y182000D02*
Y184000D01*
Y183000D02*
X592950D01*
X590950D02*
X591450D01*
X587800Y171550D02*
X589800D01*
X587800Y170550D02*
X589800D01*
X588800Y170050D02*
Y170550D01*
Y171550D02*
Y172050D01*
X595200Y171550D02*
X597200D01*
X595200Y170550D02*
X597200D01*
X596200Y170050D02*
Y170550D01*
Y171550D02*
Y172050D01*
X579175Y208990D02*
X599066D01*
X579175Y197010D02*
Y208990D01*
Y197010D02*
X599066D01*
Y208990D01*
X577716Y150500D02*
Y151500D01*
Y151000D01*
X580715D01*
Y150500D01*
Y151500D01*
X577716Y154499D02*
Y153499D01*
X578216Y152999D01*
X580216D01*
X580715Y153499D01*
Y154499D01*
X580216Y154999D01*
X578216D01*
X577716Y154499D01*
X578216Y155998D02*
X577716Y156498D01*
Y157498D01*
X578216Y157998D01*
X580216D01*
X580715Y157498D01*
Y156498D01*
X580216Y155998D01*
X578216D01*
X610600Y150200D02*
X607601D01*
Y151699D01*
X608101Y152199D01*
X609100D01*
X609600Y151699D01*
Y150200D01*
Y151200D02*
X610600Y152199D01*
X607601Y155198D02*
Y153199D01*
X610600D01*
Y155198D01*
X609100Y153199D02*
Y154199D01*
X608101Y158197D02*
X607601Y157698D01*
Y156698D01*
X608101Y156198D01*
X608601D01*
X609100Y156698D01*
Y157698D01*
X609600Y158197D01*
X610100D01*
X610600Y157698D01*
Y156698D01*
X610100Y156198D01*
D15*
X478100Y171900D02*
X483050D01*
X478100Y166700D02*
X483050D01*
X486650Y171900D02*
X491600D01*
X486650Y166700D02*
X491600D01*
Y171900D01*
X478100Y166700D02*
Y171900D01*
X478200Y178800D02*
X483150D01*
X478200Y173600D02*
X483150D01*
X486750Y178800D02*
X491700D01*
X486750Y173600D02*
X491700D01*
Y178800D01*
X478200Y173600D02*
Y178800D01*
X518300Y174500D02*
X523250D01*
X518300Y169300D02*
X523250D01*
X526850Y174500D02*
X531800D01*
X526850Y169300D02*
X531800D01*
Y174500D01*
X518300Y169300D02*
Y174500D01*
X496850Y169200D02*
Y174400D01*
X510350D01*
Y169200D02*
Y174400D01*
X496850Y169200D02*
X510350D01*
X526800Y176400D02*
X531750D01*
X526800Y181600D02*
X531750D01*
X518250Y176400D02*
X523200D01*
X518250Y181600D02*
X523200D01*
X518250Y176400D02*
Y181600D01*
X531750Y176400D02*
Y181600D01*
X518300Y183500D02*
Y188700D01*
X531800D01*
Y183500D02*
Y188700D01*
X518300Y183500D02*
X531800D01*
X518275Y190600D02*
Y195800D01*
X531775D01*
Y190600D02*
Y195800D01*
X518275Y190600D02*
X531775D01*
X526825Y204800D02*
X531775D01*
X526825Y210000D02*
X531775D01*
X518275Y204800D02*
X523225D01*
X518275Y210000D02*
X523225D01*
X518275Y204800D02*
Y210000D01*
X531775Y204800D02*
Y210000D01*
X518275Y197700D02*
Y202900D01*
X531775D01*
Y197700D02*
Y202900D01*
X518275Y197700D02*
X531775D01*
X571400Y200850D02*
X576600D01*
X571400D02*
Y214350D01*
X576600D01*
Y200850D02*
Y214350D01*
X564000Y200850D02*
X569200D01*
X564000D02*
Y214350D01*
X569200D01*
Y200850D02*
Y214350D01*
X576600Y192150D02*
Y197100D01*
X571400Y192150D02*
Y197100D01*
X576600Y183600D02*
Y188550D01*
X571400Y183600D02*
Y188550D01*
Y183600D02*
X576600D01*
X571400Y197100D02*
X576600D01*
X569200Y192150D02*
Y197100D01*
X564000Y192150D02*
Y197100D01*
X569200Y183600D02*
Y188550D01*
X564000Y183600D02*
Y188550D01*
Y183600D02*
X569200D01*
X564000Y197100D02*
X569200D01*
X593750Y180400D02*
X598700D01*
X593750Y185600D02*
X598700D01*
X585200Y180400D02*
X590150D01*
X585200Y185600D02*
X590150D01*
X585200Y180400D02*
Y185600D01*
X598700Y180400D02*
Y185600D01*
X586200Y164300D02*
Y169250D01*
X591400Y164300D02*
Y169250D01*
X586200Y172850D02*
Y177800D01*
X591400Y172850D02*
Y177800D01*
X586200D02*
X591400D01*
X586200Y164300D02*
X591400D01*
X593600D02*
Y169250D01*
X598800Y164300D02*
Y169250D01*
X593600Y172850D02*
Y177800D01*
X598800Y172850D02*
Y177800D01*
X593600D02*
X598800D01*
X593600Y164300D02*
X598800D01*
X603100Y161600D02*
Y166800D01*
X616600D01*
Y161600D02*
Y166800D01*
X603100Y161600D02*
X616600D01*
X635600Y161400D02*
X636600D01*
Y167000D01*
X635600D02*
X636600D01*
X630200Y161400D02*
X635500D01*
X635600D02*
Y166800D01*
X630200Y167000D02*
X635600D01*
X621400Y161400D02*
X626800D01*
X621400D02*
Y161600D01*
Y167000D01*
X621500D01*
X626800D01*
X635600Y212200D02*
X636600D01*
Y217800D01*
X635600D02*
X636600D01*
X630200Y212200D02*
X635500D01*
X635600D02*
Y217600D01*
X630200Y217800D02*
X635600D01*
X621400Y212200D02*
X626800D01*
X621400D02*
Y212400D01*
Y217800D01*
X621500D01*
X626800D01*
X603100Y212400D02*
X616600D01*
Y217600D01*
X603100D02*
X616600D01*
X603100Y212400D02*
Y217600D01*
D16*
X579315Y176207D02*
X583055D01*
Y165971D02*
Y176207D01*
X564945D02*
X568685D01*
X564945Y165971D02*
Y176207D01*
M02*
