G04*
G04 #@! TF.GenerationSoftware,Altium Limited,Altium Designer,21.8.1 (53)*
G04*
G04 Layer_Color=8388736*
%FSLAX25Y25*%
%MOIN*%
G70*
G04*
G04 #@! TF.SameCoordinates,F7FF72C4-72FB-41D8-A861-7DFCE6F03B73*
G04*
G04*
G04 #@! TF.FilePolarity,Negative*
G04*
G01*
G75*
%ADD12C,0.00600*%
%ADD13C,0.01000*%
%ADD14C,0.00800*%
%ADD33C,0.00591*%
%ADD34C,0.00787*%
%ADD35R,0.03650X0.04500*%
%ADD36R,0.04500X0.03650*%
%ADD37R,0.04500X0.03500*%
%ADD38R,0.03500X0.04500*%
%ADD39R,0.05028X0.01681*%
%ADD40R,0.05020X0.01680*%
%ADD41R,0.04437X0.07193*%
%ADD42O,0.02760X0.08514*%
G04:AMPARAMS|DCode=43|XSize=130mil|YSize=75mil|CornerRadius=0mil|HoleSize=0mil|Usage=FLASHONLY|Rotation=90.000|XOffset=0mil|YOffset=0mil|HoleType=Round|Shape=Octagon|*
%AMOCTAGOND43*
4,1,8,0.01875,0.06500,-0.01875,0.06500,-0.03750,0.04625,-0.03750,-0.04625,-0.01875,-0.06500,0.01875,-0.06500,0.03750,-0.04625,0.03750,0.04625,0.01875,0.06500,0.0*
%
%ADD43OCTAGOND43*%

%ADD44R,0.02862X0.06012*%
%ADD45R,0.02862X0.07587*%
%ADD46R,0.09161X0.06406*%
G04:AMPARAMS|DCode=47|XSize=55mil|YSize=40mil|CornerRadius=0mil|HoleSize=0mil|Usage=FLASHONLY|Rotation=0.000|XOffset=0mil|YOffset=0mil|HoleType=Round|Shape=Octagon|*
%AMOCTAGOND47*
4,1,8,0.02750,-0.01000,0.02750,0.01000,0.01750,0.02000,-0.01750,0.02000,-0.02750,0.01000,-0.02750,-0.01000,-0.01750,-0.02000,0.01750,-0.02000,0.02750,-0.01000,0.0*
%
%ADD47OCTAGOND47*%

%ADD48R,0.05500X0.04000*%
%ADD49R,0.14279X0.02075*%
%ADD50R,0.01602X0.03650*%
%ADD51R,0.03650X0.01602*%
%ADD52R,0.21760X0.21760*%
%ADD53O,0.09555X0.05224*%
%ADD54O,0.08374X0.05224*%
%ADD55C,0.03453*%
%ADD56R,0.07193X0.07193*%
%ADD57C,0.07193*%
%ADD58C,0.02902*%
D12*
X590950Y183000D02*
X591450D01*
X592450D02*
X592950D01*
X592450Y182000D02*
Y184000D01*
X591450Y182000D02*
Y184000D01*
X525550Y171900D02*
X526050D01*
X524050D02*
X524550D01*
Y170900D02*
Y172900D01*
X525550Y170900D02*
Y172900D01*
X485350Y169200D02*
X485850D01*
X483850D02*
X484350D01*
Y168200D02*
Y170200D01*
X485350Y168200D02*
Y170200D01*
X524025Y207400D02*
X524525D01*
X525525D02*
X526025D01*
X525525Y206400D02*
Y208400D01*
X524525Y206400D02*
Y208400D01*
X485450Y176200D02*
X485950D01*
X483950D02*
X484450D01*
Y175200D02*
Y177200D01*
X485450Y175200D02*
Y177200D01*
X524000Y179000D02*
X524500D01*
X525500D02*
X526000D01*
X525500Y178000D02*
Y180000D01*
X524500Y178000D02*
Y180000D01*
X596200Y171500D02*
Y172000D01*
Y170000D02*
Y170500D01*
X595200D02*
X597200D01*
X595200Y171500D02*
X597200D01*
X574000Y189350D02*
Y189850D01*
Y190850D02*
Y191350D01*
X573000Y190850D02*
X575000D01*
X573000Y189850D02*
X575000D01*
X588800Y171450D02*
Y171950D01*
Y169950D02*
Y170450D01*
X587800D02*
X589800D01*
X587800Y171450D02*
X589800D01*
X470548Y182942D02*
Y184893D01*
Y182942D02*
X472500D01*
D13*
X445000Y183499D02*
G03*
X445000Y183499I-1000J0D01*
G01*
X615336Y207443D02*
X621406D01*
X631084D02*
X636481D01*
X615311Y171783D02*
X621431D01*
X605674Y204534D02*
Y204683D01*
Y204190D02*
Y204534D01*
Y174317D02*
Y174811D01*
X636481Y171783D02*
Y207443D01*
X631059Y171783D02*
X636481D01*
X586726Y159406D02*
X595970Y159410D01*
X602470D01*
Y157760D02*
Y159410D01*
X586726Y157756D02*
Y159406D01*
X438882Y179460D02*
X438882Y199538D01*
X449118Y179420D02*
X449118Y199498D01*
X444000Y186499D02*
Y196499D01*
X441000Y186499D02*
X447000D01*
X444000Y189499D02*
X447000Y186499D01*
X441000D02*
X444000Y189499D01*
X621568Y156976D02*
X621570D01*
X620063Y155468D02*
X621570Y156976D01*
X620063Y151532D02*
Y155468D01*
Y151532D02*
X621570Y150024D01*
X626430D02*
X627937Y151532D01*
Y155468D01*
X626430Y156976D02*
X627937Y155468D01*
X621570Y156976D02*
X626430D01*
X621570Y150024D02*
X626430D01*
X616126Y157756D02*
Y159406D01*
X631870Y157760D02*
Y159410D01*
X625370D02*
X631870D01*
X616126Y159406D02*
X625370Y159410D01*
X561350Y165091D02*
Y213909D01*
X467650Y165091D02*
Y213909D01*
X561350D01*
X467650Y165091D02*
X561350D01*
D14*
X576600Y200850D02*
Y214350D01*
X571400D02*
X576600D01*
X571400Y200850D02*
Y214350D01*
Y200850D02*
X576600D01*
X518275Y190600D02*
X531775D01*
Y195800D01*
X518275D02*
X531775D01*
X518275Y190600D02*
Y195800D01*
X598700Y180400D02*
Y185600D01*
X585200Y180400D02*
Y185600D01*
X590150D01*
X585200Y180400D02*
X590150D01*
X593750Y185600D02*
X598700D01*
X593750Y180400D02*
X598700D01*
X518300Y169300D02*
Y174500D01*
X531800Y169300D02*
Y174500D01*
X526850Y169300D02*
X531800D01*
X526850Y174500D02*
X531800D01*
X518300Y169300D02*
X523250D01*
X518300Y174500D02*
X523250D01*
X564000Y197100D02*
X569200D01*
X564000Y183600D02*
X569200D01*
X564000D02*
Y188550D01*
X569200Y183600D02*
Y188550D01*
X564000Y192150D02*
Y197100D01*
X569200Y192150D02*
Y197100D01*
X478100Y166600D02*
Y171800D01*
X491600Y166600D02*
Y171800D01*
X486650Y166600D02*
X491600D01*
X486650Y171800D02*
X491600D01*
X478100Y166600D02*
X483050D01*
X478100Y171800D02*
X483050D01*
X603100Y161600D02*
X616600D01*
Y166800D01*
X603100D02*
X616600D01*
X603100Y161600D02*
Y166800D01*
X531775Y204800D02*
Y210000D01*
X518275Y204800D02*
Y210000D01*
X523225D01*
X518275Y204800D02*
X523225D01*
X526825Y210000D02*
X531775D01*
X526825Y204800D02*
X531775D01*
X569200Y200850D02*
Y214350D01*
X564000D02*
X569200D01*
X564000Y200850D02*
Y214350D01*
Y200850D02*
X569200D01*
X518300Y183500D02*
X531800D01*
Y188700D01*
X518300D02*
X531800D01*
X518300Y183500D02*
Y188700D01*
X478200Y173600D02*
Y178800D01*
X491700Y173600D02*
Y178800D01*
X486750Y173600D02*
X491700D01*
X486750Y178800D02*
X491700D01*
X478200Y173600D02*
X483150D01*
X478200Y178800D02*
X483150D01*
X496850Y169200D02*
X510350D01*
Y174400D01*
X496850D02*
X510350D01*
X496850Y169200D02*
Y174400D01*
X518275Y197700D02*
X531775D01*
Y202900D01*
X518275D02*
X531775D01*
X518275Y197700D02*
Y202900D01*
X531750Y176400D02*
Y181600D01*
X518250Y176400D02*
Y181600D01*
X523200D01*
X518250Y176400D02*
X523200D01*
X526800Y181600D02*
X531750D01*
X526800Y176400D02*
X531750D01*
X593600Y164250D02*
X598800D01*
X593600Y177750D02*
X598800D01*
Y172800D02*
Y177750D01*
X593600Y172800D02*
Y177750D01*
X598800Y164250D02*
Y169200D01*
X593600Y164250D02*
Y169200D01*
X571400Y197100D02*
X576600D01*
X571400Y183600D02*
X576600D01*
X571400D02*
Y188550D01*
X576600Y183600D02*
Y188550D01*
X571400Y192150D02*
Y197100D01*
X576600Y192150D02*
Y197100D01*
X621500Y167000D02*
X626800D01*
X621400D02*
X621500D01*
X621400Y161600D02*
Y167000D01*
Y161400D02*
Y161600D01*
Y161400D02*
X626800D01*
X630200Y167000D02*
X635600D01*
Y161400D02*
Y166800D01*
X630200Y161400D02*
X635500D01*
X635600Y167000D02*
X636600D01*
Y161400D02*
Y167000D01*
X635600Y161400D02*
X636600D01*
X586200Y164200D02*
X591400D01*
X586200Y177700D02*
X591400D01*
Y172750D02*
Y177700D01*
X586200Y172750D02*
Y177700D01*
X591400Y164200D02*
Y169150D01*
X586200Y164200D02*
Y169150D01*
D33*
X474095Y181117D02*
G03*
X474095Y181117I-295J0D01*
G01*
D34*
X564945Y165971D02*
Y176207D01*
X568685D01*
X583055Y165971D02*
Y176207D01*
X579315D02*
X583055D01*
D35*
X574000Y211250D02*
D03*
Y203950D02*
D03*
X566600Y211250D02*
D03*
Y203950D02*
D03*
D36*
X528675Y193200D02*
D03*
X521375D02*
D03*
X613500Y164200D02*
D03*
X606200D02*
D03*
X528700Y186100D02*
D03*
X521400D02*
D03*
X507250Y171800D02*
D03*
X499950D02*
D03*
X528675Y200300D02*
D03*
X521375D02*
D03*
X613500Y215000D02*
D03*
X606200D02*
D03*
D37*
X595600Y183000D02*
D03*
X588300D02*
D03*
X521400Y171900D02*
D03*
X528700D02*
D03*
X481200Y169200D02*
D03*
X488500D02*
D03*
X528675Y207400D02*
D03*
X521375D02*
D03*
X481300Y176200D02*
D03*
X488600D02*
D03*
X528650Y179000D02*
D03*
X521350D02*
D03*
D38*
X566600Y194000D02*
D03*
Y186700D02*
D03*
X596200Y167350D02*
D03*
Y174650D02*
D03*
X574000Y194000D02*
D03*
Y186700D02*
D03*
X588800Y167300D02*
D03*
Y174600D02*
D03*
D39*
X606757Y202689D02*
D03*
Y201508D02*
D03*
X606756Y199540D02*
D03*
Y198358D02*
D03*
X606757Y196390D02*
D03*
Y192453D02*
D03*
X606763Y190484D02*
D03*
X606757Y188516D02*
D03*
X606764Y186546D02*
D03*
X606755Y184579D02*
D03*
X606773Y180642D02*
D03*
Y179461D02*
D03*
X606763Y177492D02*
D03*
Y176311D02*
D03*
D40*
X606757Y194421D02*
D03*
X606757Y182610D02*
D03*
D41*
X586332Y153500D02*
D03*
X602868D02*
D03*
X632268D02*
D03*
X615732D02*
D03*
D42*
X581620Y192103D02*
D03*
X586620D02*
D03*
X591620D02*
D03*
X596620D02*
D03*
X581620Y213897D02*
D03*
X586620D02*
D03*
X591620D02*
D03*
X596620D02*
D03*
D43*
X574000Y174000D02*
D03*
D44*
X568094Y163913D02*
D03*
X579906D02*
D03*
D45*
X574000Y164701D02*
D03*
D46*
X444000Y178909D02*
D03*
Y200091D02*
D03*
D47*
X632000Y164200D02*
D03*
Y215000D02*
D03*
D48*
X625000Y164200D02*
D03*
Y215000D02*
D03*
D49*
X546500Y172965D02*
D03*
D03*
Y175720D02*
D03*
Y178476D02*
D03*
Y181232D02*
D03*
Y183988D02*
D03*
Y186744D02*
D03*
Y189500D02*
D03*
Y192256D02*
D03*
Y195012D02*
D03*
Y197768D02*
D03*
Y200523D02*
D03*
Y203279D02*
D03*
Y206035D02*
D03*
D50*
X473800Y183241D02*
D03*
X475769Y183241D02*
D03*
X477737Y183241D02*
D03*
X479706Y183241D02*
D03*
X481674Y183241D02*
D03*
X483643Y183241D02*
D03*
X485611Y183241D02*
D03*
X487580Y183241D02*
D03*
X489548Y183241D02*
D03*
X491517Y183241D02*
D03*
X493485Y183241D02*
D03*
X495454Y183241D02*
D03*
X495454Y210800D02*
D03*
X493485Y210800D02*
D03*
X491517Y210800D02*
D03*
X489548Y210800D02*
D03*
X487580Y210800D02*
D03*
X485611Y210800D02*
D03*
X483643Y210801D02*
D03*
X481674Y210800D02*
D03*
X479706Y210801D02*
D03*
X477737Y210800D02*
D03*
X475769Y210801D02*
D03*
X473800Y210800D02*
D03*
D51*
X498407Y186195D02*
D03*
X498406Y188164D02*
D03*
X498407Y190132D02*
D03*
X498406Y192101D02*
D03*
X498407Y194069D02*
D03*
X498406Y196038D02*
D03*
X498407Y198006D02*
D03*
X498406Y199975D02*
D03*
X498407Y201943D02*
D03*
X498406Y203912D02*
D03*
X498407Y205880D02*
D03*
X498406Y207849D02*
D03*
X470847Y207849D02*
D03*
X470848Y205880D02*
D03*
X470847Y203912D02*
D03*
X470848Y201943D02*
D03*
X470847Y199975D02*
D03*
X470848Y198006D02*
D03*
X470847Y196038D02*
D03*
X470848Y194069D02*
D03*
X470847Y192101D02*
D03*
X470848Y190132D02*
D03*
X470847Y188164D02*
D03*
X470848Y186195D02*
D03*
D52*
X484627Y197021D02*
D03*
D53*
X609906Y171783D02*
D03*
X609906Y207216D02*
D03*
D54*
X626245Y207217D02*
D03*
X626245Y171784D02*
D03*
D55*
X611875Y200879D02*
D03*
Y178122D02*
D03*
D56*
X630587Y224500D02*
D03*
X570587Y154500D02*
D03*
D57*
X620587Y224500D02*
D03*
X610587D02*
D03*
X600587D02*
D03*
X590587D02*
D03*
X580587D02*
D03*
X570587D02*
D03*
X560587D02*
D03*
X550587D02*
D03*
X540587D02*
D03*
X530587D02*
D03*
X520587D02*
D03*
X510587D02*
D03*
X500587D02*
D03*
X490587D02*
D03*
X480587D02*
D03*
X470587D02*
D03*
X460587D02*
D03*
Y154500D02*
D03*
X470587D02*
D03*
X480587D02*
D03*
X490587D02*
D03*
X500587D02*
D03*
X510587D02*
D03*
X560587D02*
D03*
X550587D02*
D03*
X540587D02*
D03*
X530587D02*
D03*
X520587D02*
D03*
D58*
X484627Y193084D02*
D03*
Y200959D02*
D03*
X480691Y200959D02*
D03*
X488565D02*
D03*
X488564Y197022D02*
D03*
X480690Y193084D02*
D03*
X488564D02*
D03*
X480690Y197022D02*
D03*
X484627D02*
D03*
M02*
