G04*
G04 #@! TF.GenerationSoftware,Altium Limited,Altium Designer,21.8.1 (53)*
G04*
G04 Layer_Physical_Order=2*
G04 Layer_Color=16711680*
%FSLAX25Y25*%
%MOIN*%
G70*
G04*
G04 #@! TF.SameCoordinates,F7FF72C4-72FB-41D8-A861-7DFCE6F03B73*
G04*
G04*
G04 #@! TF.FilePolarity,Positive*
G04*
G01*
G75*
%ADD13C,0.01000*%
%ADD16R,0.04000X0.03150*%
%ADD59C,0.02500*%
%ADD60C,0.00500*%
%ADD61C,0.01500*%
%ADD62C,0.02000*%
%ADD63O,0.09055X0.04724*%
%ADD64O,0.07874X0.04724*%
%ADD65C,0.02953*%
%ADD66R,0.06693X0.06693*%
%ADD67C,0.06693*%
%ADD68C,0.02400*%
%ADD69C,0.02402*%
G36*
X490554Y221154D02*
X490056Y221151D01*
X489167Y221095D01*
X488776Y221043D01*
X488421Y220975D01*
X488101Y220890D01*
X487818Y220789D01*
X487570Y220671D01*
X487358Y220537D01*
X487181Y220387D01*
X486474Y221094D01*
X486625Y221270D01*
X486759Y221483D01*
X486876Y221730D01*
X486977Y222014D01*
X487062Y222333D01*
X487131Y222689D01*
X487183Y223079D01*
X487238Y223968D01*
X487241Y224466D01*
X490554Y221154D01*
D02*
G37*
G36*
X480626Y219675D02*
X480702Y219618D01*
X480783Y219567D01*
X480870Y219522D01*
X480962Y219485D01*
X481060Y219454D01*
X481164Y219431D01*
X481274Y219414D01*
X481390Y219403D01*
X481511Y219400D01*
Y218400D01*
X481390Y218397D01*
X481274Y218386D01*
X481164Y218369D01*
X481060Y218346D01*
X480962Y218315D01*
X480870Y218278D01*
X480783Y218233D01*
X480702Y218182D01*
X480626Y218125D01*
X480557Y218060D01*
Y219740D01*
X480626Y219675D01*
D02*
G37*
G36*
X470669Y212691D02*
X470947Y212299D01*
X471012Y212223D01*
X471136Y212098D01*
X471195Y212048D01*
X471252Y212008D01*
X469606Y211672D01*
X469660Y211762D01*
X469701Y211854D01*
X469727Y211945D01*
X469740Y212036D01*
X469740Y212128D01*
X469725Y212220D01*
X469697Y212312D01*
X469655Y212404D01*
X469599Y212497D01*
X469530Y212589D01*
X470595Y212811D01*
X470669Y212691D01*
D02*
G37*
G36*
X465027Y211175D02*
X465102Y211118D01*
X465183Y211067D01*
X465270Y211022D01*
X465362Y210985D01*
X465460Y210954D01*
X465564Y210931D01*
X465674Y210914D01*
X465790Y210903D01*
X465911Y210900D01*
Y209900D01*
X465790Y209897D01*
X465674Y209886D01*
X465564Y209869D01*
X465460Y209846D01*
X465362Y209815D01*
X465270Y209778D01*
X465183Y209733D01*
X465102Y209682D01*
X465027Y209625D01*
X464957Y209560D01*
Y211240D01*
X465027Y211175D01*
D02*
G37*
G36*
X465100Y206029D02*
X465034Y205893D01*
X465011Y205834D01*
X464994Y205781D01*
X464983Y205734D01*
X464978Y205692D01*
X464980Y205657D01*
X464988Y205628D01*
X465002Y205604D01*
X463975Y205328D01*
X463958Y205353D01*
X463936Y205378D01*
X463907Y205406D01*
X463872Y205434D01*
X463786Y205496D01*
X463733Y205530D01*
X463541Y205638D01*
X465142Y206105D01*
X465100Y206029D01*
D02*
G37*
G36*
X465027Y201575D02*
X465102Y201518D01*
X465183Y201467D01*
X465270Y201422D01*
X465362Y201385D01*
X465460Y201354D01*
X465564Y201331D01*
X465674Y201314D01*
X465790Y201303D01*
X465911Y201300D01*
Y200300D01*
X465790Y200297D01*
X465674Y200286D01*
X465564Y200269D01*
X465460Y200246D01*
X465362Y200215D01*
X465270Y200178D01*
X465183Y200133D01*
X465102Y200082D01*
X465027Y200025D01*
X464957Y199960D01*
Y201640D01*
X465027Y201575D01*
D02*
G37*
G36*
X465088Y197796D02*
X465158Y197734D01*
X465235Y197679D01*
X465318Y197632D01*
X465407Y197591D01*
X465503Y197558D01*
X465606Y197533D01*
X465715Y197515D01*
X465830Y197504D01*
X465951Y197500D01*
X465859Y196500D01*
X465738Y196497D01*
X465623Y196488D01*
X465512Y196472D01*
X465407Y196451D01*
X465307Y196423D01*
X465212Y196389D01*
X465122Y196349D01*
X465037Y196303D01*
X464958Y196250D01*
X464884Y196192D01*
X465024Y197866D01*
X465088Y197796D01*
D02*
G37*
G36*
X507988Y194900D02*
X507893Y194897D01*
X507799Y194884D01*
X507706Y194863D01*
X507613Y194833D01*
X507521Y194794D01*
X507430Y194746D01*
X507340Y194689D01*
X507250Y194624D01*
X507161Y194549D01*
X507073Y194466D01*
X506366Y195173D01*
X506449Y195261D01*
X506524Y195350D01*
X506589Y195440D01*
X506646Y195530D01*
X506694Y195621D01*
X506733Y195713D01*
X506763Y195806D01*
X506784Y195899D01*
X506797Y195993D01*
X506800Y196088D01*
X507988Y194900D01*
D02*
G37*
G36*
X466043Y193637D02*
X466388Y193648D01*
Y192552D01*
X466363Y192561D01*
X466310Y192569D01*
X466227Y192576D01*
X466043Y192582D01*
Y192260D01*
X465974Y192325D01*
X465898Y192382D01*
X465817Y192433D01*
X465730Y192478D01*
X465638Y192515D01*
X465540Y192546D01*
X465436Y192569D01*
X465326Y192586D01*
X465210Y192597D01*
X465152Y192598D01*
X464841Y192600D01*
Y193600D01*
X465338Y193615D01*
X465436Y193631D01*
X465540Y193654D01*
X465638Y193685D01*
X465730Y193722D01*
X465817Y193767D01*
X465898Y193818D01*
X465974Y193875D01*
X466043Y193940D01*
Y193637D01*
D02*
G37*
G36*
X467723Y192219D02*
X467708Y192183D01*
X467694Y192134D01*
X467682Y192073D01*
X467672Y191999D01*
X467658Y191814D01*
X467653Y191586D01*
X467682Y191127D01*
X467694Y191066D01*
X467708Y191017D01*
X467723Y190981D01*
X467740Y190957D01*
X466060D01*
X466077Y190981D01*
X466092Y191017D01*
X466106Y191066D01*
X466118Y191127D01*
X466127Y191201D01*
X466142Y191386D01*
X466147Y191614D01*
X466118Y192073D01*
X466106Y192134D01*
X466092Y192183D01*
X466077Y192219D01*
X466060Y192243D01*
X467740D01*
X467723Y192219D01*
D02*
G37*
G36*
X467781Y190923D02*
X467817Y190908D01*
X467866Y190894D01*
X467927Y190882D01*
X468001Y190873D01*
X468186Y190858D01*
X468557Y190850D01*
Y189350D01*
X468421Y189349D01*
X467927Y189318D01*
X467866Y189306D01*
X467817Y189292D01*
X467781Y189277D01*
X467757Y189260D01*
Y190940D01*
X467781Y190923D01*
D02*
G37*
G36*
X494746Y178067D02*
X494663Y178127D01*
X494578Y178176D01*
X494489Y178214D01*
X494397Y178241D01*
X494302Y178257D01*
X494204Y178263D01*
X494103Y178257D01*
X493999Y178241D01*
X493892Y178213D01*
X493782Y178175D01*
X493669Y179198D01*
X493792Y179242D01*
X494014Y179336D01*
X494114Y179387D01*
X494290Y179494D01*
X494367Y179551D01*
X494436Y179611D01*
X494498Y179672D01*
X494552Y179736D01*
X494746Y178067D01*
D02*
G37*
G36*
X487375Y178773D02*
X487318Y178698D01*
X487267Y178617D01*
X487222Y178530D01*
X487185Y178438D01*
X487154Y178340D01*
X487131Y178236D01*
X487114Y178126D01*
X487103Y178010D01*
X487100Y177889D01*
X486100D01*
X486097Y178010D01*
X486086Y178126D01*
X486069Y178236D01*
X486046Y178340D01*
X486015Y178438D01*
X485978Y178530D01*
X485933Y178617D01*
X485882Y178698D01*
X485825Y178773D01*
X485760Y178843D01*
X487440D01*
X487375Y178773D01*
D02*
G37*
G36*
X483475D02*
X483418Y178698D01*
X483367Y178617D01*
X483322Y178530D01*
X483285Y178438D01*
X483254Y178340D01*
X483231Y178236D01*
X483214Y178126D01*
X483203Y178010D01*
X483200Y177889D01*
X482200D01*
X482197Y178010D01*
X482186Y178126D01*
X482169Y178236D01*
X482146Y178340D01*
X482115Y178438D01*
X482078Y178530D01*
X482033Y178617D01*
X481982Y178698D01*
X481925Y178773D01*
X481860Y178843D01*
X483540D01*
X483475Y178773D01*
D02*
G37*
G36*
X514175Y178074D02*
X514118Y177998D01*
X514067Y177917D01*
X514022Y177830D01*
X513985Y177738D01*
X513954Y177640D01*
X513931Y177536D01*
X513914Y177426D01*
X513903Y177310D01*
X513900Y177189D01*
X512900D01*
X512897Y177310D01*
X512886Y177426D01*
X512869Y177536D01*
X512846Y177640D01*
X512815Y177738D01*
X512778Y177830D01*
X512733Y177917D01*
X512682Y177998D01*
X512625Y178074D01*
X512560Y178143D01*
X514240D01*
X514175Y178074D01*
D02*
G37*
G36*
X511175D02*
X511118Y177998D01*
X511067Y177917D01*
X511022Y177830D01*
X510985Y177738D01*
X510954Y177640D01*
X510931Y177536D01*
X510914Y177426D01*
X510903Y177310D01*
X510900Y177189D01*
X509900D01*
X509897Y177310D01*
X509886Y177426D01*
X509869Y177536D01*
X509846Y177640D01*
X509815Y177738D01*
X509778Y177830D01*
X509733Y177917D01*
X509682Y177998D01*
X509625Y178074D01*
X509560Y178143D01*
X511240D01*
X511175Y178074D01*
D02*
G37*
G36*
X508175D02*
X508118Y177998D01*
X508067Y177917D01*
X508022Y177830D01*
X507985Y177738D01*
X507954Y177640D01*
X507931Y177536D01*
X507914Y177426D01*
X507903Y177310D01*
X507900Y177189D01*
X506900D01*
X506897Y177310D01*
X506886Y177426D01*
X506869Y177536D01*
X506846Y177640D01*
X506815Y177738D01*
X506778Y177830D01*
X506733Y177917D01*
X506682Y177998D01*
X506625Y178074D01*
X506560Y178143D01*
X508240D01*
X508175Y178074D01*
D02*
G37*
G36*
X505175D02*
X505118Y177998D01*
X505067Y177917D01*
X505022Y177830D01*
X504985Y177738D01*
X504954Y177640D01*
X504931Y177536D01*
X504914Y177426D01*
X504903Y177310D01*
X504900Y177189D01*
X503900D01*
X503897Y177310D01*
X503886Y177426D01*
X503869Y177536D01*
X503846Y177640D01*
X503815Y177738D01*
X503778Y177830D01*
X503733Y177917D01*
X503682Y177998D01*
X503625Y178074D01*
X503560Y178143D01*
X505240D01*
X505175Y178074D01*
D02*
G37*
G36*
X499675D02*
X499618Y177998D01*
X499567Y177917D01*
X499522Y177830D01*
X499485Y177738D01*
X499454Y177640D01*
X499431Y177536D01*
X499414Y177426D01*
X499403Y177310D01*
X499400Y177189D01*
X498400D01*
X498397Y177310D01*
X498386Y177426D01*
X498369Y177536D01*
X498346Y177640D01*
X498315Y177738D01*
X498278Y177830D01*
X498233Y177917D01*
X498182Y177998D01*
X498125Y178074D01*
X498060Y178143D01*
X499740D01*
X499675Y178074D01*
D02*
G37*
G36*
X475881Y171323D02*
X475917Y171308D01*
X475966Y171294D01*
X476027Y171282D01*
X476101Y171273D01*
X476286Y171258D01*
X476657Y171250D01*
Y169750D01*
X476521Y169749D01*
X476027Y169718D01*
X475966Y169706D01*
X475917Y169692D01*
X475881Y169677D01*
X475857Y169660D01*
Y171340D01*
X475881Y171323D01*
D02*
G37*
G36*
X475823Y169619D02*
X475808Y169583D01*
X475794Y169534D01*
X475782Y169473D01*
X475772Y169399D01*
X475758Y169214D01*
X475755Y169061D01*
X475782Y168627D01*
X475794Y168566D01*
X475808Y168517D01*
X475823Y168481D01*
X475840Y168457D01*
X474160D01*
X474177Y168481D01*
X474192Y168517D01*
X474206Y168566D01*
X474218Y168627D01*
X474228Y168701D01*
X474242Y168886D01*
X474245Y169039D01*
X474218Y169473D01*
X474206Y169534D01*
X474192Y169583D01*
X474177Y169619D01*
X474160Y169643D01*
X475840D01*
X475823Y169619D01*
D02*
G37*
G36*
X511106Y159586D02*
X511161Y159341D01*
X511253Y159083D01*
X511382Y158810D01*
X511548Y158525D01*
X511751Y158225D01*
X511990Y157912D01*
X512580Y157244D01*
X512930Y156890D01*
X508245D01*
X508595Y157244D01*
X509185Y157912D01*
X509424Y158225D01*
X509627Y158525D01*
X509793Y158810D01*
X509922Y159083D01*
X510014Y159341D01*
X510069Y159586D01*
X510087Y159817D01*
X511087D01*
X511106Y159586D01*
D02*
G37*
G36*
X504094Y158420D02*
X504024Y158220D01*
X503966Y157982D01*
X503919Y157707D01*
X503885Y157396D01*
X503851Y156663D01*
X503864Y155782D01*
X503924Y154754D01*
X500400Y157841D01*
X500873Y157879D01*
X501305Y157936D01*
X501696Y158013D01*
X502046Y158110D01*
X502356Y158227D01*
X502625Y158364D01*
X502853Y158521D01*
X503040Y158697D01*
X503186Y158893D01*
X503291Y159109D01*
X504094Y158420D01*
D02*
G37*
G36*
X494700Y157906D02*
X494550Y157730D01*
X494416Y157517D01*
X494299Y157270D01*
X494197Y156986D01*
X494112Y156667D01*
X494044Y156311D01*
X493992Y155921D01*
X493937Y155032D01*
X493934Y154534D01*
X490621Y157846D01*
X491119Y157849D01*
X492008Y157905D01*
X492399Y157957D01*
X492754Y158025D01*
X493073Y158110D01*
X493357Y158211D01*
X493605Y158329D01*
X493817Y158463D01*
X493993Y158613D01*
X494700Y157906D01*
D02*
G37*
G36*
X484700D02*
X484550Y157730D01*
X484416Y157517D01*
X484299Y157270D01*
X484197Y156986D01*
X484112Y156667D01*
X484044Y156311D01*
X483992Y155921D01*
X483937Y155032D01*
X483934Y154534D01*
X480621Y157846D01*
X481119Y157849D01*
X482008Y157905D01*
X482399Y157957D01*
X482754Y158025D01*
X483073Y158110D01*
X483357Y158211D01*
X483605Y158329D01*
X483817Y158463D01*
X483993Y158613D01*
X484700Y157906D01*
D02*
G37*
G36*
X474700D02*
X474550Y157730D01*
X474416Y157517D01*
X474298Y157270D01*
X474197Y156986D01*
X474112Y156667D01*
X474044Y156311D01*
X473992Y155921D01*
X473937Y155032D01*
X473934Y154534D01*
X470621Y157846D01*
X471119Y157849D01*
X472008Y157905D01*
X472399Y157957D01*
X472754Y158025D01*
X473073Y158110D01*
X473357Y158211D01*
X473605Y158329D01*
X473817Y158463D01*
X473993Y158613D01*
X474700Y157906D01*
D02*
G37*
G36*
X464700D02*
X464550Y157730D01*
X464416Y157517D01*
X464298Y157270D01*
X464197Y156986D01*
X464112Y156667D01*
X464044Y156311D01*
X463992Y155921D01*
X463937Y155032D01*
X463934Y154534D01*
X460621Y157846D01*
X461119Y157849D01*
X462008Y157905D01*
X462399Y157957D01*
X462754Y158025D01*
X463073Y158110D01*
X463357Y158211D01*
X463605Y158329D01*
X463817Y158463D01*
X463993Y158613D01*
X464700Y157906D01*
D02*
G37*
G36*
X521087Y159817D02*
X521106Y159586D01*
X521161Y159341D01*
X521253Y159083D01*
X521382Y158810D01*
X521548Y158525D01*
X521751Y158225D01*
X521990Y157912D01*
X522580Y157244D01*
X522930Y156890D01*
X518245D01*
X518595Y157244D01*
X519184Y157912D01*
X519424Y158225D01*
X519627Y158525D01*
X519793Y158810D01*
X519921Y159083D01*
X520014Y159341D01*
X520069Y159586D01*
X520087Y159817D01*
X521087D01*
D02*
G37*
G36*
X527181Y158613D02*
X527358Y158463D01*
X527570Y158329D01*
X527818Y158211D01*
X528101Y158110D01*
X528421Y158025D01*
X528776Y157957D01*
X529167Y157905D01*
X530056Y157849D01*
X530554Y157846D01*
X527241Y154534D01*
X527238Y155032D01*
X527183Y155921D01*
X527131Y156311D01*
X527062Y156667D01*
X526977Y156986D01*
X526876Y157270D01*
X526759Y157517D01*
X526625Y157730D01*
X526474Y157906D01*
X527181Y158613D01*
D02*
G37*
G36*
X518911Y186600D02*
X518790Y186597D01*
X518674Y186586D01*
X518564Y186569D01*
X518460Y186546D01*
X518362Y186515D01*
X518270Y186478D01*
X518183Y186433D01*
X518102Y186382D01*
X518026Y186325D01*
X517957Y186260D01*
Y187940D01*
X518026Y187875D01*
X518102Y187818D01*
X518183Y187767D01*
X518270Y187722D01*
X518362Y187685D01*
X518460Y187654D01*
X518564Y187631D01*
X518674Y187614D01*
X518790Y187603D01*
X518911Y187600D01*
Y186600D01*
D02*
G37*
G36*
X526744Y183348D02*
X526646Y183282D01*
X526558Y183213D01*
X526479Y183140D01*
X526410Y183063D01*
X526350Y182983D01*
X526300Y182898D01*
X526260Y182810D01*
X526230Y182719D01*
X526209Y182623D01*
X526198Y182524D01*
X525100Y183796D01*
X525188Y183792D01*
X525278Y183797D01*
X525371Y183809D01*
X525465Y183829D01*
X525562Y183856D01*
X525661Y183892D01*
X525762Y183935D01*
X525866Y183985D01*
X526079Y184110D01*
X526744Y183348D01*
D02*
G37*
G36*
X537181Y158613D02*
X537358Y158463D01*
X537570Y158329D01*
X537818Y158211D01*
X538101Y158110D01*
X538421Y158025D01*
X538776Y157957D01*
X539167Y157905D01*
X540056Y157849D01*
X540554Y157846D01*
X537241Y154534D01*
X537238Y155032D01*
X537183Y155921D01*
X537131Y156311D01*
X537062Y156667D01*
X536977Y156986D01*
X536876Y157270D01*
X536759Y157517D01*
X536625Y157730D01*
X536474Y157906D01*
X537181Y158613D01*
D02*
G37*
G36*
X547181D02*
X547358Y158463D01*
X547570Y158329D01*
X547818Y158211D01*
X548101Y158110D01*
X548421Y158025D01*
X548776Y157957D01*
X549167Y157905D01*
X550056Y157849D01*
X550554Y157846D01*
X547241Y154534D01*
X547238Y155032D01*
X547183Y155921D01*
X547131Y156311D01*
X547062Y156667D01*
X546977Y156986D01*
X546876Y157270D01*
X546759Y157517D01*
X546625Y157730D01*
X546474Y157906D01*
X547181Y158613D01*
D02*
G37*
G36*
X536285Y166325D02*
X536179Y166398D01*
X535974Y166520D01*
X535875Y166570D01*
X535778Y166611D01*
X535684Y166645D01*
X535591Y166671D01*
X535501Y166688D01*
X535413Y166698D01*
X535327Y166700D01*
X536500Y167903D01*
X536505Y167801D01*
X536520Y167702D01*
X536545Y167608D01*
X536580Y167517D01*
X536624Y167429D01*
X536679Y167346D01*
X536743Y167266D01*
X536817Y167190D01*
X536901Y167117D01*
X536995Y167048D01*
X536285Y166325D01*
D02*
G37*
G36*
X548900Y171550D02*
X548893Y172023D01*
X548834Y172819D01*
X548782Y173142D01*
X548715Y173415D01*
X548634Y173639D01*
X548538Y173813D01*
X548428Y173938D01*
X548302Y174012D01*
X548162Y174037D01*
X552138D01*
X551998Y174012D01*
X551872Y173938D01*
X551762Y173813D01*
X551666Y173639D01*
X551584Y173415D01*
X551518Y173142D01*
X551466Y172819D01*
X551430Y172445D01*
X551400Y171550D01*
X548900D01*
D02*
G37*
G36*
X550782Y221159D02*
X550310Y221121D01*
X549878Y221062D01*
X549487Y220984D01*
X549137Y220886D01*
X548828Y220768D01*
X548560Y220631D01*
X548333Y220474D01*
X548147Y220297D01*
X548001Y220100D01*
X547896Y219883D01*
X547092Y220570D01*
X547161Y220771D01*
X547218Y221009D01*
X547264Y221284D01*
X547297Y221595D01*
X547329Y222328D01*
X547314Y223210D01*
X547251Y224238D01*
X550782Y221159D01*
D02*
G37*
G36*
X552502Y211644D02*
X552527Y211329D01*
X552541Y211247D01*
X552560Y211175D01*
X552581Y211114D01*
X552606Y211065D01*
X552634Y211026D01*
X552666Y210999D01*
X551334D01*
X551366Y211026D01*
X551394Y211065D01*
X551419Y211114D01*
X551440Y211175D01*
X551459Y211247D01*
X551474Y211329D01*
X551485Y211423D01*
X551498Y211644D01*
X551500Y211771D01*
X552500D01*
X552502Y211644D01*
D02*
G37*
G36*
X547303Y211690D02*
X547314Y211574D01*
X547331Y211464D01*
X547354Y211360D01*
X547385Y211262D01*
X547422Y211170D01*
X547467Y211083D01*
X547518Y211002D01*
X547575Y210927D01*
X547640Y210857D01*
X545960D01*
X546025Y210927D01*
X546082Y211002D01*
X546133Y211083D01*
X546178Y211170D01*
X546215Y211262D01*
X546246Y211360D01*
X546269Y211464D01*
X546286Y211574D01*
X546297Y211690D01*
X546300Y211811D01*
X547300D01*
X547303Y211690D01*
D02*
G37*
G36*
X547729Y209225D02*
X547691Y209141D01*
X547667Y209056D01*
X547656Y208970D01*
X547658Y208884D01*
X547675Y208796D01*
X547705Y208708D01*
X547749Y208619D01*
X547806Y208529D01*
X547877Y208439D01*
X546810Y208208D01*
X546735Y208327D01*
X546463Y208706D01*
X546402Y208778D01*
X546287Y208893D01*
X546234Y208937D01*
X546183Y208971D01*
X547781Y209309D01*
X547729Y209225D01*
D02*
G37*
G36*
X515743Y205760D02*
X515673Y205825D01*
X515598Y205882D01*
X515517Y205933D01*
X515430Y205978D01*
X515338Y206015D01*
X515240Y206046D01*
X515136Y206069D01*
X515026Y206086D01*
X514910Y206097D01*
X514789Y206100D01*
Y207100D01*
X514910Y207103D01*
X515026Y207114D01*
X515136Y207131D01*
X515240Y207154D01*
X515338Y207185D01*
X515430Y207222D01*
X515517Y207267D01*
X515598Y207318D01*
X515673Y207375D01*
X515743Y207440D01*
Y205760D01*
D02*
G37*
G36*
X534442Y205007D02*
X534510Y204782D01*
X534551Y204680D01*
X534595Y204585D01*
X534644Y204497D01*
X534696Y204416D01*
X534753Y204341D01*
X534813Y204274D01*
X534878Y204213D01*
X533202Y204096D01*
X533265Y204174D01*
X533318Y204256D01*
X533361Y204342D01*
X533396Y204433D01*
X533421Y204527D01*
X533436Y204626D01*
X533443Y204730D01*
X533440Y204837D01*
X533427Y204949D01*
X533405Y205065D01*
X534414Y205130D01*
X534442Y205007D01*
D02*
G37*
G36*
X537675Y202198D02*
X537649Y202183D01*
X537620Y202158D01*
X537586Y202123D01*
X537547Y202078D01*
X537458Y201957D01*
X537290Y201701D01*
X537226Y201596D01*
X536168Y201829D01*
X536233Y201912D01*
X536287Y201992D01*
X536330Y202069D01*
X536361Y202141D01*
X536381Y202210D01*
X536389Y202275D01*
X536386Y202336D01*
X536371Y202394D01*
X536345Y202448D01*
X536307Y202498D01*
X537675Y202198D01*
D02*
G37*
G36*
X560554Y221154D02*
X560056Y221151D01*
X559167Y221095D01*
X558776Y221043D01*
X558421Y220975D01*
X558101Y220890D01*
X557818Y220789D01*
X557570Y220671D01*
X557358Y220537D01*
X557181Y220387D01*
X556474Y221094D01*
X556625Y221270D01*
X556759Y221483D01*
X556876Y221730D01*
X556977Y222014D01*
X557062Y222333D01*
X557131Y222689D01*
X557183Y223079D01*
X557238Y223968D01*
X557241Y224466D01*
X560554Y221154D01*
D02*
G37*
G36*
X592580Y221756D02*
X591990Y221088D01*
X591751Y220775D01*
X591548Y220475D01*
X591382Y220190D01*
X591253Y219917D01*
X591161Y219659D01*
X591106Y219414D01*
X591087Y219183D01*
X590087D01*
X590069Y219414D01*
X590014Y219659D01*
X589922Y219917D01*
X589793Y220190D01*
X589627Y220475D01*
X589424Y220775D01*
X589185Y221088D01*
X588595Y221756D01*
X588245Y222110D01*
X592930D01*
X592580Y221756D01*
D02*
G37*
G36*
X552926Y210775D02*
X553002Y210718D01*
X553083Y210667D01*
X553170Y210622D01*
X553262Y210585D01*
X553360Y210554D01*
X553464Y210531D01*
X553574Y210514D01*
X553690Y210503D01*
X553811Y210500D01*
Y209500D01*
X553690Y209497D01*
X553574Y209486D01*
X553464Y209469D01*
X553360Y209446D01*
X553262Y209415D01*
X553170Y209378D01*
X553083Y209333D01*
X553002Y209282D01*
X552926Y209225D01*
X552857Y209160D01*
Y210840D01*
X552926Y210775D01*
D02*
G37*
G36*
X590761Y199851D02*
X590850Y199776D01*
X590940Y199711D01*
X591030Y199654D01*
X591121Y199606D01*
X591213Y199567D01*
X591306Y199537D01*
X591399Y199516D01*
X591493Y199503D01*
X591588Y199500D01*
X590400Y198312D01*
X590397Y198407D01*
X590384Y198501D01*
X590363Y198594D01*
X590333Y198687D01*
X590294Y198779D01*
X590246Y198870D01*
X590189Y198960D01*
X590124Y199050D01*
X590049Y199139D01*
X589966Y199227D01*
X590673Y199934D01*
X590761Y199851D01*
D02*
G37*
G36*
X585743Y197460D02*
X585674Y197525D01*
X585598Y197582D01*
X585517Y197633D01*
X585430Y197678D01*
X585338Y197715D01*
X585240Y197746D01*
X585136Y197769D01*
X585026Y197786D01*
X584910Y197797D01*
X584789Y197800D01*
Y198800D01*
X584910Y198803D01*
X585026Y198814D01*
X585136Y198831D01*
X585240Y198854D01*
X585338Y198885D01*
X585430Y198922D01*
X585517Y198967D01*
X585598Y199018D01*
X585674Y199075D01*
X585743Y199140D01*
Y197460D01*
D02*
G37*
G36*
X557158Y173536D02*
X557228Y173476D01*
X557305Y173421D01*
X557388Y173371D01*
X557478Y173326D01*
X557575Y173287D01*
X557678Y173252D01*
X557787Y173223D01*
X557903Y173198D01*
X558026Y173179D01*
X557985Y172175D01*
X557866Y172188D01*
X557753Y172192D01*
X557644Y172188D01*
X557540Y172176D01*
X557441Y172154D01*
X557347Y172125D01*
X557258Y172087D01*
X557173Y172040D01*
X557093Y171986D01*
X557018Y171922D01*
X557094Y173601D01*
X557158Y173536D01*
D02*
G37*
G36*
X571092Y158642D02*
X571107Y158470D01*
X571132Y158318D01*
X571167Y158187D01*
X571212Y158075D01*
X571267Y157984D01*
X571332Y157913D01*
X571407Y157863D01*
X571492Y157833D01*
X571587Y157823D01*
X569587D01*
X569682Y157833D01*
X569767Y157863D01*
X569842Y157913D01*
X569907Y157984D01*
X569962Y158075D01*
X570007Y158187D01*
X570042Y158318D01*
X570067Y158470D01*
X570082Y158642D01*
X570087Y158834D01*
X571087D01*
X571092Y158642D01*
D02*
G37*
G36*
X561848Y159288D02*
X561881Y158975D01*
X561936Y158674D01*
X562012Y158384D01*
X562111Y158106D01*
X562231Y157839D01*
X562373Y157585D01*
X562537Y157341D01*
X562722Y157110D01*
X562930Y156890D01*
X558245D01*
X558452Y157110D01*
X558638Y157341D01*
X558802Y157585D01*
X558944Y157839D01*
X559064Y158106D01*
X559163Y158384D01*
X559239Y158674D01*
X559294Y158975D01*
X559326Y159288D01*
X559337Y159612D01*
X561837D01*
X561848Y159288D01*
D02*
G37*
G36*
X609739Y152602D02*
X609828Y152680D01*
X609906Y152761D01*
X609976Y152844D01*
X610036Y152930D01*
X610087Y153018D01*
X610128Y153108D01*
X610160Y153200D01*
X610183Y153295D01*
X610196Y153392D01*
X610200Y153491D01*
X611385Y152300D01*
X611295Y152297D01*
X611204Y152286D01*
X611112Y152266D01*
X611020Y152237D01*
X610927Y152201D01*
X610833Y152156D01*
X610738Y152102D01*
X610642Y152040D01*
X610546Y151970D01*
X610448Y151891D01*
X609739Y152602D01*
D02*
G37*
G36*
X603011Y163700D02*
X602890Y163697D01*
X602774Y163686D01*
X602664Y163669D01*
X602560Y163646D01*
X602462Y163615D01*
X602370Y163578D01*
X602283Y163533D01*
X602202Y163482D01*
X602127Y163425D01*
X602057Y163360D01*
Y165040D01*
X602127Y164975D01*
X602202Y164918D01*
X602283Y164867D01*
X602370Y164822D01*
X602462Y164785D01*
X602560Y164754D01*
X602664Y164731D01*
X602774Y164714D01*
X602890Y164703D01*
X603011Y164700D01*
Y163700D01*
D02*
G37*
G36*
X597838Y197415D02*
X597134Y197325D01*
X597730Y198803D01*
X597763Y198729D01*
X597806Y198668D01*
X597858Y198620D01*
X597920Y198583D01*
X597992Y198559D01*
X598073Y198547D01*
X598163Y198548D01*
X598263Y198561D01*
X598373Y198586D01*
X598492Y198623D01*
X597838Y197415D01*
D02*
G37*
G36*
X602300Y205389D02*
X602297Y205510D01*
X602286Y205626D01*
X602269Y205736D01*
X602246Y205840D01*
X602215Y205938D01*
X602178Y206030D01*
X602133Y206117D01*
X602082Y206198D01*
X602025Y206274D01*
X601960Y206343D01*
X603640D01*
X603575Y206274D01*
X603518Y206198D01*
X603467Y206117D01*
X603422Y206030D01*
X603385Y205938D01*
X603354Y205840D01*
X603331Y205736D01*
X603314Y205626D01*
X603303Y205510D01*
X603300Y205389D01*
X602300D01*
D02*
G37*
G36*
X627265Y222000D02*
X627240Y222237D01*
X627164Y222450D01*
X627039Y222638D01*
X626863Y222800D01*
X626637Y222937D01*
X626361Y223050D01*
X626034Y223137D01*
X625657Y223200D01*
X625301Y223231D01*
X625062Y223206D01*
X624761Y223152D01*
X624471Y223075D01*
X624193Y222977D01*
X623927Y222857D01*
X623672Y222715D01*
X623429Y222551D01*
X623197Y222365D01*
X622977Y222158D01*
Y226842D01*
X623197Y226635D01*
X623429Y226449D01*
X623672Y226285D01*
X623927Y226143D01*
X624193Y226023D01*
X624471Y225925D01*
X624761Y225848D01*
X625062Y225794D01*
X625301Y225769D01*
X625657Y225800D01*
X626034Y225863D01*
X626361Y225950D01*
X626637Y226062D01*
X626863Y226200D01*
X627039Y226362D01*
X627164Y226550D01*
X627240Y226763D01*
X627265Y227000D01*
Y222000D01*
D02*
G37*
G36*
X632450Y218666D02*
X632438Y219141D01*
X632400Y219566D01*
X632338Y219940D01*
X632250Y220266D01*
X632137Y220540D01*
X632000Y220765D01*
X631838Y220940D01*
X631650Y221065D01*
X631437Y221141D01*
X631200Y221165D01*
X633922D01*
X634117Y221141D01*
X634292Y221065D01*
X634446Y220940D01*
X634580Y220765D01*
X634693Y220540D01*
X634786Y220266D01*
X634858Y219940D01*
X634909Y219566D01*
X634940Y219141D01*
X634950Y218666D01*
X632450D01*
D02*
G37*
D13*
X556793Y150807D02*
G03*
X558973Y149900I2180J2166D01*
G01*
X603658Y149900D02*
G03*
X610729Y152829I0J10000D01*
G01*
X576879Y171311D02*
G03*
X587490Y160700I10611J0D01*
G01*
X576879Y180050D02*
G03*
X567928Y189000I-8951J0D01*
G01*
X580214Y180974D02*
G03*
X576629Y188771I-10271J-0D01*
G01*
X580214Y171586D02*
G03*
X587600Y164200I7386J0D01*
G01*
X576629Y188771D02*
G03*
X569558Y191700I-7071J-7071D01*
G01*
X575662Y206038D02*
G03*
X566100Y210000I-9562J-9557D01*
G01*
X574199Y202501D02*
G03*
X584341Y198300I10141J10139D01*
G01*
X572883Y203818D02*
G03*
X564958Y207100I-7925J-7925D01*
G01*
X576871Y204829D02*
G03*
X583942Y201900I7071J7071D01*
G01*
X588893Y201007D02*
G03*
X586737Y201900I-2156J-2156D01*
G01*
X546800Y210000D02*
G03*
X549700Y207100I2900J0D01*
G01*
X535855Y167345D02*
G03*
X540032Y165615I4177J4177D01*
G01*
X565641Y168885D02*
G03*
X556200Y172800I-9441J-9427D01*
G01*
X570587Y160229D02*
G03*
X567968Y166558I-8956J-0D01*
G01*
X567965Y166561D02*
G03*
X567958Y166569I-715J-699D01*
G01*
X530794Y185000D02*
G03*
X525000Y182600I0J-8194D01*
G01*
X556329Y182071D02*
G03*
X549258Y185000I-7071J-7071D01*
G01*
X555473Y191700D02*
G03*
X553300Y190800I0J-3073D01*
G01*
X550403Y189600D02*
G03*
X553300Y190800I0J4097D01*
G01*
X556431Y189000D02*
G03*
X554500Y188200I0J-2731D01*
G01*
X551844Y187100D02*
G03*
X554500Y188200I0J3756D01*
G01*
X554929Y218842D02*
G03*
X552000Y211771I7071J-7071D01*
G01*
X544216Y160871D02*
G03*
X537145Y163800I-7071J-7071D01*
G01*
X548919Y155191D02*
G03*
X548920Y155190I1668J1668D01*
G01*
D02*
G03*
X550587Y154500I1668J1669D01*
G01*
X610787Y164200D02*
G03*
X618371Y171783I0J7583D01*
G01*
Y206929D02*
G03*
X612900Y212400I-5471J0D01*
G01*
X590587Y218313D02*
G03*
X596500Y212400I5913J0D01*
G01*
X534400Y200500D02*
G03*
X537200Y203300I0J2800D01*
G01*
X525175Y202738D02*
G03*
X522137Y204000I-3038J-3028D01*
G01*
X525175Y202738D02*
G03*
X530579Y200500I5404J5404D01*
G01*
X549729Y223642D02*
G03*
X546800Y216570I7071J-7071D01*
G01*
X596600Y197800D02*
G03*
X602800Y204000I0J6200D01*
G01*
X480789Y206600D02*
G03*
X476540Y204840I0J-6009D01*
G01*
X469735Y200800D02*
G03*
X474455Y202755I0J6675D01*
G01*
X482300Y204000D02*
G03*
X477861Y202162I0J-6277D01*
G01*
X468558Y197000D02*
G03*
X475629Y199929I0J10000D01*
G01*
X470088Y204506D02*
G03*
X473700Y206000I5J5102D01*
G01*
X474712Y207012D02*
G03*
X474710Y207010I4802J-4806D01*
G01*
X480963Y209600D02*
G03*
X474710Y207010I0J-8843D01*
G01*
X472599Y208599D02*
G03*
X472600Y208600I-1930J1932D01*
G01*
X512600Y189280D02*
G03*
X514000Y185900I4780J0D01*
G01*
X518900Y178300D02*
G03*
X520244Y175057I4587J0D01*
G01*
X518900Y178300D02*
G03*
X516991Y182909I-6518J0D01*
G01*
X516400Y178700D02*
G03*
X518804Y172896I8208J0D01*
G01*
X516400Y178700D02*
G03*
X515339Y181261I-3621J0D01*
G01*
X510300Y189128D02*
G03*
X512300Y184300I6828J0D01*
G01*
X489249Y182293D02*
G03*
X497688Y185788I0J11934D01*
G01*
X530194Y165106D02*
G03*
X533345Y163800I3144J3133D01*
G01*
X535183Y159904D02*
G03*
X532300Y161100I-2883J-2878D01*
G01*
X529395Y162305D02*
G03*
X532300Y161100I2905J2899D01*
G01*
X534100Y203300D02*
G03*
X525492Y211909I-8608J0D01*
G01*
X552129Y163271D02*
G03*
X546470Y165615I-5658J-5658D01*
G01*
X555600Y153600D02*
G03*
X556726Y150874I3863J-0D01*
G01*
X556737Y150863D02*
G03*
X556730Y150870I-707J-707D01*
G01*
X555600Y158103D02*
G03*
X554400Y161000I-4097J0D01*
G01*
X524000Y162103D02*
G03*
X524720Y160367I2445J-3D01*
G01*
X524000Y162103D02*
G03*
X523269Y163856I-2475J-3D01*
G01*
X513400Y176447D02*
G03*
X515325Y171800I6572J0D01*
G01*
X517829Y164971D02*
G03*
X517658Y165042I-171J-171D01*
G01*
X520587Y160816D02*
G03*
X519600Y163200I-3371J0D01*
G01*
X510400Y176442D02*
G03*
X513329Y169371I10000J0D01*
G01*
X510587Y163526D02*
G03*
X508900Y167600I-5761J0D01*
G01*
X507400Y171221D02*
G03*
X508900Y167600I5121J0D01*
G01*
X501471Y155384D02*
G03*
X504400Y162455I-7071J7071D01*
G01*
X495971Y159884D02*
G03*
X498900Y166955I-7071J7071D01*
G01*
X474853Y164000D02*
G03*
X479400Y165883I0J6431D01*
G01*
X472200Y164000D02*
G03*
X468594Y162506I0J-5100D01*
G01*
X480567Y167050D02*
G03*
X482700Y172200I-5150J5150D01*
G01*
X483671Y164521D02*
G03*
X486600Y171592I-7071J7071D01*
G01*
X479400Y161900D02*
G03*
X482217Y163067I0J3983D01*
G01*
X479400Y161900D02*
G03*
X476989Y160901I0J-3410D01*
G01*
X495500Y179000D02*
G03*
X490300Y173800I0J-5200D01*
G01*
X487371Y161284D02*
G03*
X490300Y168355I-7071J7071D01*
G01*
X464100Y206700D02*
G03*
X466294Y204506I2194J0D01*
G01*
X467400Y209200D02*
G03*
X466200Y210400I-1200J0D01*
G01*
X467400Y209200D02*
G03*
X468800Y207800I1400J0D01*
G01*
X480042Y211900D02*
G03*
X472971Y208971I0J-10000D01*
G01*
X470669Y207800D02*
G03*
X472599Y208599I0J2731D01*
G01*
X464100Y197100D02*
G03*
X464341Y197000I241J241D01*
G01*
X470600Y211000D02*
G03*
X467600Y214000I-3000J0D01*
G01*
X464300D02*
G03*
X460900Y210600I0J-3400D01*
G01*
Y197000D02*
G03*
X464800Y193100I3900J0D01*
G01*
X480963Y209600D02*
X516600D01*
X558973Y149900D02*
X603658D01*
X576879Y171311D02*
Y180050D01*
X587490Y160700D02*
X590700D01*
X556431Y189000D02*
X567928D01*
X580214Y171586D02*
Y180974D01*
X601200Y164200D02*
X610787D01*
X587600D02*
X601200D01*
X552000Y210000D02*
X566100Y210000D01*
X575665Y206035D02*
X576871Y204829D01*
X575662Y206038D02*
X575665Y206035D01*
X572883Y203818D02*
X574199Y202501D01*
X584341Y198300D02*
X584346Y198300D01*
X586600D01*
X552000Y210000D02*
Y211771D01*
X583942Y201900D02*
X586737D01*
X588893Y201007D02*
X591600Y198300D01*
X549700Y207100D02*
X564958D01*
X556200Y172800D02*
X556200Y172800D01*
X556200Y172800D01*
X565641Y168885D02*
X567958Y166569D01*
X567965Y166561D02*
X567968Y166558D01*
X570587Y154500D02*
Y160229D01*
X530794Y185000D02*
X549258D01*
X556329Y182071D02*
X557200Y181200D01*
X517100Y187100D02*
X551844D01*
X555473Y191700D02*
X569558D01*
X514900Y189600D02*
X550403D01*
X546800Y210000D02*
Y216570D01*
X540037Y165615D02*
X546470D01*
X540032Y165615D02*
X540037Y165615D01*
X535300Y167900D02*
X535855Y167345D01*
X533345Y163800D02*
Y163800D01*
X548919Y155191D02*
X548920Y155190D01*
X533345Y163800D02*
X537145D01*
X530194Y165106D02*
X530195Y165105D01*
X544216Y160871D02*
X550587Y154500D01*
X618371Y171783D02*
Y206929D01*
X596500Y212400D02*
X612900D01*
X590587Y218313D02*
Y224500D01*
X530579Y200500D02*
X534400D01*
X482300Y204000D02*
X522137D01*
X554929Y218842D02*
X560587Y224500D01*
X549729Y223642D02*
X550587Y224500D01*
X542850Y175600D02*
Y178175D01*
Y173025D02*
Y175600D01*
X539850D02*
X542850D01*
X480789Y206600D02*
X516600D01*
X464100Y200800D02*
X469735D01*
X474455Y202755D02*
X476540Y204840D01*
X475629Y199929D02*
X477861Y202162D01*
X473700Y206000D02*
X474710Y207010D01*
X519537Y211909D02*
X525492D01*
X480042Y211900D02*
X481300D01*
X519537Y211909D01*
X520244Y175057D02*
X530194Y165106D01*
X512600Y189280D02*
Y191900D01*
X514000Y185900D02*
X516991Y182909D01*
X510300Y189128D02*
Y194100D01*
X512300Y184300D02*
X515339Y181261D01*
X479748Y182293D02*
X489249D01*
X497688Y185788D02*
X508000Y196100D01*
X479700Y218900D02*
X484987D01*
X490587Y224500D01*
X479534D02*
X480587D01*
X529393Y162307D02*
X529395Y162305D01*
X518804Y172896D02*
X529393Y162307D01*
X535187Y159900D02*
X540587Y154500D01*
X535183Y159904D02*
X535187Y159900D01*
X556737Y150863D02*
X556793Y150807D01*
X556726Y150874D02*
X556730Y150870D01*
X552129Y163271D02*
X554400Y161000D01*
X610729Y152829D02*
X611400Y153500D01*
X555600Y153600D02*
Y158103D01*
X524722Y160365D02*
X530587Y154500D01*
X524720Y160367D02*
X524722Y160365D01*
X515325Y171800D02*
X523269Y163856D01*
X523269Y163856D01*
X513329Y169371D02*
X517658Y165042D01*
X517829Y164971D02*
X519600Y163200D01*
X520587Y154500D02*
Y160816D01*
X513400Y176447D02*
Y179000D01*
X510400Y176442D02*
Y179000D01*
X510587Y154500D02*
Y163526D01*
X507400Y171221D02*
Y179000D01*
X500587Y154500D02*
X501471Y155384D01*
X504400Y162455D02*
Y179000D01*
X490587Y154500D02*
X495971Y159884D01*
X498900Y166955D02*
Y179000D01*
X472200Y164000D02*
X474853D01*
X460587Y154500D02*
X468594Y162506D01*
X479400Y165883D02*
X480567Y167050D01*
X482217Y163067D02*
X483671Y164521D01*
X470587Y154500D02*
X476989Y160901D01*
X490300Y168355D02*
Y173800D01*
X480587Y154500D02*
X487371Y161284D01*
X480587Y154500D02*
Y155887D01*
X482700Y172200D02*
Y179700D01*
X486600Y171592D02*
Y179700D01*
X466294Y204506D02*
X470088D01*
X464100Y210400D02*
X466200D01*
X468800Y207800D02*
X470669D01*
X472600Y208600D02*
X472971Y208971D01*
X472599Y208599D02*
X472600Y208600D01*
X470088Y204506D02*
X470088Y204506D01*
X464341Y197000D02*
X468558D01*
X464300Y214000D02*
X467600D01*
X460900Y197000D02*
Y210600D01*
X464800Y193100D02*
X466900D01*
X602800Y204000D02*
Y207200D01*
X542800Y175600D02*
X542850D01*
D16*
D03*
X550150D02*
D03*
D59*
X633700Y221387D02*
G03*
X630587Y224500I-3113J0D01*
G01*
X626800Y198400D02*
G03*
X633700Y205300I0J6900D01*
G01*
X560587Y161113D02*
G03*
X555400Y166300I-5187J0D01*
G01*
X550150Y171550D02*
G03*
X555400Y166300I5250J0D01*
G01*
X620587Y224500D02*
X630587D01*
X633700Y205300D02*
Y221387D01*
X623800Y198400D02*
X626800D01*
X623800Y195600D02*
Y198400D01*
X560587Y154500D02*
Y161113D01*
X550150Y171550D02*
Y175600D01*
D60*
X635750Y227500D02*
G03*
X634500Y228750I-1250J0D01*
G01*
X635750Y223589D02*
G03*
X634784Y225114I-5163J-2202D01*
G01*
X622778Y228079D02*
G03*
X622778Y220921I-2191J-3579D01*
G01*
X615184Y224500D02*
G03*
X612338Y228750I-4597J0D01*
G01*
X608837D02*
G03*
X615184Y224500I1751J-4250D01*
G01*
X620121Y206929D02*
G03*
X612900Y214150I-7221J0D01*
G01*
X616621Y206929D02*
G03*
X612900Y210650I-3721J0D01*
G01*
X626800Y200900D02*
G03*
X631200Y205300I0J4400D01*
G01*
X623800Y200900D02*
G03*
X621300Y198400I0J-2500D01*
G01*
X623800Y200900D02*
G03*
X621300Y198400I0J-2500D01*
G01*
X614601Y200879D02*
G03*
X614601Y200879I-2726J0D01*
G01*
X605184Y224500D02*
G03*
X602338Y228750I-4597J0D01*
G01*
X595184Y224500D02*
G03*
X592338Y228750I-4597J0D01*
G01*
X598837D02*
G03*
X605184Y224500I1751J-4250D01*
G01*
X593906Y221320D02*
G03*
X595184Y224500I-3319J3180D01*
G01*
X588837Y228750D02*
G03*
X587269Y221320I1751J-4250D01*
G01*
X585184Y224500D02*
G03*
X582338Y228750I-4597J0D01*
G01*
X578837D02*
G03*
X585184Y224500I1751J-4250D01*
G01*
X575184D02*
G03*
X572338Y228750I-4597J0D01*
G01*
X568837D02*
G03*
X575184Y224500I1751J-4250D01*
G01*
X565184D02*
G03*
X562338Y228750I-4597J0D01*
G01*
X560685Y219905D02*
G03*
X565184Y224500I-98J4595D01*
G01*
X604638Y205580D02*
G03*
X605250Y207200I-1838J1620D01*
G01*
X588837Y218313D02*
G03*
X596500Y210650I7663J0D01*
G01*
X605250Y207200D02*
G03*
X600962Y205580I-2450J0D01*
G01*
X592337Y218313D02*
G03*
X596500Y214150I4163J0D01*
G01*
X598483Y199968D02*
G03*
X601050Y204000I-1883J4032D01*
G01*
X590130Y202245D02*
G03*
X586737Y203650I-3393J-3393D01*
G01*
X594050Y198300D02*
G03*
X591755Y200745I-2450J0D01*
G01*
X576895Y207280D02*
G03*
X566100Y211750I-10795J-10800D01*
G01*
X578109Y206066D02*
G03*
X583942Y203650I5834J5834D01*
G01*
X571645Y202580D02*
G03*
X564958Y205350I-6687J-6687D01*
G01*
X572962Y201263D02*
G03*
X584342Y196550I11378J11376D01*
G01*
X626800Y195900D02*
G03*
X635750Y202426I0J9400D01*
G01*
X621300Y195600D02*
G03*
X626300Y195600I2500J0D01*
G01*
X634500Y150250D02*
G03*
X635750Y151500I0J1250D01*
G01*
X610787Y165950D02*
G03*
X616621Y171783I0J5833D01*
G01*
X610787Y162450D02*
G03*
X620121Y171783I0J9334D01*
G01*
X598261Y196226D02*
G03*
X604550Y204000I-1661J7774D01*
G01*
X598483Y199968D02*
G03*
X597352Y196068I-1883J-1568D01*
G01*
X584980Y196462D02*
G03*
X589050Y198300I1620J1838D01*
G01*
X589155Y198145D02*
G03*
X594050Y198300I2445J155D01*
G01*
X597424Y196093D02*
G03*
X598261Y196226I-824J7907D01*
G01*
X577819Y190056D02*
G03*
X569558Y193450I-8261J-8356D01*
G01*
X581964Y180974D02*
G03*
X577819Y190056I-12021J-0D01*
G01*
X614601Y178122D02*
G03*
X614601Y178122I-2726J0D01*
G01*
X602820Y166038D02*
G03*
X599485Y165950I-1620J-1838D01*
G01*
X581964Y171586D02*
G03*
X587600Y165950I5636J0D01*
G01*
X575129Y171311D02*
G03*
X587490Y158950I12361J0D01*
G01*
X572337Y160229D02*
G03*
X569206Y167795I-10706J-0D01*
G01*
X575129Y180050D02*
G03*
X567928Y187250I-7201J0D01*
G01*
X556431D02*
G03*
X555740Y186965I0J-981D01*
G01*
X559650Y181200D02*
G03*
X557210Y183650I-2450J0D01*
G01*
X566879Y170122D02*
G03*
X558331Y174399I-10679J-10663D01*
G01*
X564399Y167653D02*
G03*
X557990Y170911I-8199J-8194D01*
G01*
X593150Y160700D02*
G03*
X592415Y162450I-2450J0D01*
G01*
X599485D02*
G03*
X602820Y162362I1715J1750D01*
G01*
X613850Y153500D02*
G03*
X608955Y153661I-2450J0D01*
G01*
X611548Y151055D02*
G03*
X613850Y153500I-148J2445D01*
G01*
X603658Y151650D02*
G03*
X608805Y153452I0J8250D01*
G01*
X610362Y150250D02*
G03*
X611148Y150847I-6704J9650D01*
G01*
X588985Y158950D02*
G03*
X593150Y160700I1715J1750D01*
G01*
X568837Y160229D02*
G03*
X566746Y165305I-7206J-0D01*
G01*
X565184Y154500D02*
G03*
X563917Y157669I-4597J0D01*
G01*
X564194Y151650D02*
G03*
X565184Y154500I-3606J2850D01*
G01*
X545184Y224500D02*
G03*
X542338Y228750I-4597J0D01*
G01*
X548837D02*
G03*
X545996Y224285I1751J-4250D01*
G01*
X538837Y228750D02*
G03*
X545184Y224500I1751J-4250D01*
G01*
X545870Y220883D02*
G03*
X545050Y216570I10930J-4312D01*
G01*
X515184Y224500D02*
G03*
X512338Y228750I-4597J0D01*
G01*
X535184Y224500D02*
G03*
X532338Y228750I-4597J0D01*
G01*
X528837D02*
G03*
X535184Y224500I1751J-4250D01*
G01*
X525184D02*
G03*
X522338Y228750I-4597J0D01*
G01*
X518837D02*
G03*
X525184Y224500I1751J-4250D01*
G01*
X508837Y228750D02*
G03*
X515184Y224500I1751J-4250D01*
G01*
X556166Y217604D02*
G03*
X553751Y211897I5834J-5834D01*
G01*
X544962Y211620D02*
G03*
X545375Y208007I1838J-1620D01*
G01*
X545839Y207409D02*
G03*
X549700Y205350I3861J2591D01*
G01*
X539650Y203300D02*
G03*
X535704Y205240I-2450J0D01*
G01*
X538501Y201224D02*
G03*
X539650Y203300I-1301J2076D01*
G01*
X535609Y205520D02*
G03*
X525492Y213658I-10118J-2220D01*
G01*
X523932Y201506D02*
G03*
X522137Y202250I-1796J-1796D01*
G01*
X505184Y224500D02*
G03*
X502338Y228750I-4597J0D01*
G01*
X498837D02*
G03*
X505184Y224500I1751J-4250D01*
G01*
X495184D02*
G03*
X492338Y228750I-4597J0D01*
G01*
X490685Y219905D02*
G03*
X495184Y224500I-98J4595D01*
G01*
X478837Y228750D02*
G03*
X478022Y220686I1751J-4250D01*
G01*
X434000Y228750D02*
G03*
X432750Y227500I0J-1250D01*
G01*
X475184Y224500D02*
G03*
X472338Y228750I-4597J0D01*
G01*
X468837D02*
G03*
X475184Y224500I1751J-4250D01*
G01*
X465184D02*
G03*
X462338Y228750I-4597J0D01*
G01*
X458837D02*
G03*
X465184Y224500I1751J-4250D01*
G01*
X484987Y217150D02*
G03*
X486225Y217663I0J1750D01*
G01*
X484987Y217150D02*
G03*
X486225Y217663I0J1750D01*
G01*
X478022Y220686D02*
G03*
X481320Y217062I1678J-1786D01*
G01*
X480042Y213650D02*
G03*
X473028Y211327I0J-11750D01*
G01*
X482300Y202250D02*
G03*
X479103Y200928I0J-4527D01*
G01*
X473028Y211327D02*
G03*
X472077Y212955I-2428J-327D01*
G01*
X471574Y213602D02*
G03*
X467600Y215750I-3974J-2602D01*
G01*
X464300D02*
G03*
X459150Y210600I0J-5150D01*
G01*
X557210Y183650D02*
G03*
X553955Y185770I-7952J-8650D01*
G01*
X555473Y193450D02*
G03*
X552063Y192037I0J-4823D01*
G01*
X553955Y185770D02*
G03*
X555737Y186963I-2110J5085D01*
G01*
X554750Y181156D02*
G03*
X549258Y183250I-5492J-6156D01*
G01*
X550403Y191350D02*
G03*
X552063Y192037I0J2347D01*
G01*
X534400Y198750D02*
G03*
X538201Y200799I0J4550D01*
G01*
X523938Y201501D02*
G03*
X530579Y198750I6641J6641D01*
G01*
X530794Y183250D02*
G03*
X527589Y182396I0J-6444D01*
G01*
X554750Y181156D02*
G03*
X559650Y181200I2450J44D01*
G01*
X546081Y178425D02*
G03*
X545762Y179350I-1500J0D01*
G01*
X546081Y178425D02*
G03*
X545762Y179350I-1500J0D01*
G01*
X545762D02*
G03*
X543400Y180500I-2362J-1850D01*
G01*
X525026Y185050D02*
G03*
X527427Y182265I-26J-2450D01*
G01*
X540200Y180500D02*
G03*
X536800Y177100I0J-3400D01*
G01*
X515046Y192046D02*
G03*
X512738Y194346I-2446J-146D01*
G01*
X516615Y191350D02*
G03*
X515046Y192046I-1715J-1750D01*
G01*
X517660Y184715D02*
G03*
X518720Y185262I-560J2385D01*
G01*
X520650Y178300D02*
G03*
X518228Y184147I-8268J0D01*
G01*
X520650Y178300D02*
G03*
X521481Y176294I2837J0D01*
G01*
X557901Y174563D02*
G03*
X557734Y170890I-1701J-1763D01*
G01*
X552653Y171419D02*
G03*
X555400Y168800I2747J131D01*
G01*
X563087Y161113D02*
G03*
X555400Y168800I-7687J0D01*
G01*
X549130Y166995D02*
G03*
X546470Y167365I-2659J-9383D01*
G01*
X547651Y171411D02*
G03*
X549130Y166995I7749J139D01*
G01*
X546400Y172775D02*
G03*
X546100Y173675I-1500J0D01*
G01*
X546400Y172775D02*
G03*
X546100Y173675I-1500J0D01*
G01*
X536810Y169829D02*
G03*
X534607Y165550I-1510J-1929D01*
G01*
X546021Y167365D02*
G03*
X546400Y168600I-1821J1235D01*
G01*
X531437Y166337D02*
G03*
X533338Y165550I1901J1901D01*
G01*
X512738Y194346D02*
G03*
X510409Y196548I-2438J-246D01*
G01*
D02*
G03*
X505555Y196255I-2409J-448D01*
G01*
X468558Y195250D02*
G03*
X476866Y198691I0J11750D01*
G01*
X469137Y192100D02*
G03*
X469350Y193100I-2237J1000D01*
G01*
X489255Y184043D02*
G03*
X496447Y187022I-6J10184D01*
G01*
X477728Y182563D02*
G03*
X471300Y188100I-6428J-963D01*
G01*
X481512Y184043D02*
G03*
X471300Y192100I-10212J-2443D01*
G01*
X477800Y181600D02*
G03*
X477728Y182563I-6500J0D01*
G01*
X469350Y193100D02*
G03*
X468075Y195250I-2450J0D01*
G01*
X459150Y197000D02*
G03*
X464711Y191351I5650J0D01*
G01*
X464784Y191336D02*
G03*
X468259Y188062I2116J-1236D01*
G01*
X477000Y172500D02*
G03*
X477800Y173300I0J800D01*
G01*
X476370Y172531D02*
G03*
X472962Y169141I-1370J-2031D01*
G01*
X472969Y168970D02*
G03*
X473394Y165750I2031J-1370D01*
G01*
X472200D02*
G03*
X467356Y163744I0J-6850D01*
G01*
X460490Y159095D02*
G03*
X458837Y150250I98J-4595D01*
G01*
X432750Y151500D02*
G03*
X434000Y150250I1250J0D01*
G01*
X544581Y178425D02*
G03*
X543400Y179000I-1181J-925D01*
G01*
X544200Y167900D02*
G03*
X544900Y168600I0J700D01*
G01*
X540200Y179000D02*
G03*
X538300Y177100I0J-1900D01*
G01*
Y170100D02*
G03*
X540500Y167900I2200J0D01*
G01*
X634784Y227600D02*
X635746D01*
X634784Y228000D02*
X635646D01*
X634784Y226800D02*
X635750D01*
X634784Y227200D02*
X635750D01*
X634784Y228400D02*
X635367D01*
X634784Y225114D02*
Y228696D01*
X635043Y224800D02*
X635750D01*
X634784Y225200D02*
X635750D01*
X635323Y224400D02*
X635750D01*
X634784Y226000D02*
X635750D01*
X634784Y226400D02*
X635750D01*
X634784Y225600D02*
X635750D01*
X626391Y228696D02*
X634784D01*
X626391Y227919D02*
Y228696D01*
X624688Y227200D02*
X626018D01*
X623495Y228000D02*
X626391D01*
X622137Y228400D02*
X626391D01*
X624031Y227600D02*
X626143D01*
X615174Y224800D02*
X616402D01*
X615183Y224400D02*
X616392D01*
X615157Y224000D02*
X616421D01*
X614932Y226000D02*
X616668D01*
X615050Y225600D02*
X616538D01*
X615130Y225200D02*
X616450D01*
X635750Y223589D02*
Y227500D01*
X631200Y205300D02*
Y218526D01*
X617104Y212800D02*
X631200D01*
X616480Y213200D02*
X631200D01*
X617613Y212400D02*
X631200D01*
X619232Y210400D02*
X631200D01*
X618996Y210800D02*
X631200D01*
X619435Y210000D02*
X631200D01*
X618407Y211600D02*
X631200D01*
X618041Y212000D02*
X631200D01*
X618722Y211200D02*
X631200D01*
X623803Y221200D02*
X626296D01*
X624298Y221600D02*
X626070D01*
X626391Y220304D02*
Y221081D01*
X614996Y223200D02*
X616597D01*
X615095Y223600D02*
X616489D01*
X631135Y219405D02*
X631165Y219068D01*
X626391Y220304D02*
X630273D01*
X631165Y219068D02*
X631176Y218632D01*
X621482Y220400D02*
X626391D01*
X622567Y220800D02*
X626391D01*
X615664Y213600D02*
X631200D01*
X613981Y227600D02*
X617759D01*
X614307Y227200D02*
X617375D01*
X614567Y226800D02*
X617077D01*
X614773Y226400D02*
X616846D01*
X612338Y228750D02*
X634500D01*
X613020Y228400D02*
X619038D01*
X613567Y228000D02*
X618272D01*
X614444Y222000D02*
X617217D01*
X614676Y222400D02*
X616954D01*
X614153Y221600D02*
X617554D01*
X613314Y220800D02*
X618607D01*
X613787Y221200D02*
X617995D01*
X612665Y220400D02*
X619693D01*
X603981Y227600D02*
X607194D01*
X602338Y228750D02*
X608837D01*
X603020Y228400D02*
X608155D01*
X603567Y228000D02*
X607608D01*
X614858Y222800D02*
X616751D01*
X603787Y221200D02*
X607388D01*
X602665Y220400D02*
X608509D01*
X603314Y220800D02*
X607860D01*
X601524Y220000D02*
X609651D01*
X592622Y216800D02*
X631200D01*
X592489Y217200D02*
X631200D01*
X592803Y216400D02*
X631200D01*
X592349Y218000D02*
X631200D01*
X592337Y218400D02*
X631200D01*
X592399Y217600D02*
X631200D01*
X595079Y214400D02*
X631200D01*
X594266Y214800D02*
X631200D01*
X614364Y214000D02*
X631200D01*
X593343Y215600D02*
X631200D01*
X593039Y216000D02*
X631200D01*
X593736Y215200D02*
X631200D01*
X611524Y220000D02*
X630694D01*
X592367Y219200D02*
X631153D01*
X592514Y219600D02*
X631102D01*
X592337Y218800D02*
X631172D01*
X596500Y210650D02*
X612900D01*
X572377Y210400D02*
X614241D01*
X596500Y214150D02*
X612900D01*
X573198Y210000D02*
X615001D01*
X620090Y207600D02*
X631200D01*
X620041Y208000D02*
X631200D01*
X620121Y206800D02*
X631200D01*
X620116Y207200D02*
X631200D01*
X619874Y208800D02*
X631200D01*
X619755Y209200D02*
X631200D01*
X619970Y208400D02*
X631200D01*
X635259Y201200D02*
X635750D01*
X635441Y201600D02*
X635750D01*
X620121Y206000D02*
X631200D01*
X620121Y206400D02*
X631200D01*
X620121Y205600D02*
X631200D01*
X620121Y204000D02*
X631004D01*
X620121Y203600D02*
X630858D01*
X620121Y203200D02*
X630666D01*
X620121Y205200D02*
X631199D01*
X620121Y204800D02*
X631172D01*
X620121Y204400D02*
X631107D01*
X620121Y201600D02*
X629181D01*
X620121Y201200D02*
X628397D01*
X623800Y200900D02*
X626800D01*
X620121Y202800D02*
X630421D01*
X620121Y202400D02*
X630109D01*
X620121Y202000D02*
X629710D01*
X634822Y200400D02*
X635750D01*
X635053Y200800D02*
X635750D01*
X634563Y200000D02*
X635750D01*
X633952Y199200D02*
X635750D01*
X634275Y199600D02*
X635750D01*
X633184Y198400D02*
X635750D01*
X633590Y198800D02*
X635750D01*
X632722Y198000D02*
X635750D01*
X631570Y197200D02*
X635750D01*
X632192Y197600D02*
X635750D01*
X630814Y196800D02*
X635750D01*
X620121Y199600D02*
X621607D01*
X620121Y199200D02*
X621431D01*
X620121Y200800D02*
X623100D01*
X620121Y200400D02*
X622300D01*
X620121Y200000D02*
X621879D01*
X620121Y197200D02*
X621300D01*
X620121Y197600D02*
X621300D01*
X620121Y196800D02*
X621300D01*
X620121Y198800D02*
X621332D01*
X620121Y198400D02*
X621300D01*
X620121Y198000D02*
X621300D01*
X619609Y209600D02*
X631200D01*
X605217Y206800D02*
X616621D01*
X604936Y206000D02*
X616621D01*
X605116Y206400D02*
X616621D01*
X604550Y205200D02*
X616621D01*
X604655Y205600D02*
X616621D01*
X604550Y204800D02*
X616621D01*
X613809Y202800D02*
X616621D01*
X613304Y203200D02*
X616621D01*
X614137Y202400D02*
X616621D01*
X604550Y204000D02*
X616621D01*
X604550Y204400D02*
X616621D01*
X612038Y203600D02*
X616621D01*
X605116Y208000D02*
X616464D01*
X604936Y208400D02*
X616318D01*
X605217Y207600D02*
X616560D01*
X604215Y209200D02*
X615848D01*
X603292Y209600D02*
X615491D01*
X604655Y208800D02*
X616116D01*
X605250Y207200D02*
X616611D01*
X604540Y203600D02*
X611711D01*
X604510Y203200D02*
X610445D01*
X604459Y202800D02*
X609940D01*
X604387Y202400D02*
X609612D01*
X604294Y202000D02*
X609390D01*
X614600Y200800D02*
X616621D01*
X614582Y201200D02*
X616621D01*
X614559Y200400D02*
X616621D01*
X614283Y199600D02*
X616621D01*
X614456Y200000D02*
X616621D01*
X614023Y199200D02*
X616621D01*
X613011Y198400D02*
X616621D01*
X613639Y198800D02*
X616621D01*
X601816Y198000D02*
X616621D01*
X600719Y197200D02*
X616621D01*
X601316Y197600D02*
X616621D01*
X599971Y196800D02*
X616621D01*
X614504Y201600D02*
X616621D01*
X614360Y202000D02*
X616621D01*
X604179Y201600D02*
X609245D01*
X604041Y201200D02*
X609167D01*
X603877Y200800D02*
X609149D01*
X603470Y200000D02*
X609294D01*
X603688Y200400D02*
X609191D01*
X603221Y199600D02*
X609467D01*
X602613Y198800D02*
X610110D01*
X602937Y199200D02*
X609726D01*
X602243Y198400D02*
X610739D01*
X593981Y227600D02*
X597194D01*
X594307Y227200D02*
X596868D01*
X604307D02*
X606868D01*
X592338Y228750D02*
X598837D01*
X593020Y228400D02*
X598155D01*
X593567Y228000D02*
X597608D01*
X605050Y225600D02*
X606124D01*
X605130Y225200D02*
X606044D01*
X605174Y224800D02*
X606001D01*
X604567Y226800D02*
X606608D01*
X604773Y226400D02*
X606402D01*
X604932Y226000D02*
X606243D01*
X594567Y226800D02*
X596608D01*
X594773Y226400D02*
X596402D01*
X594932Y226000D02*
X596243D01*
X584773Y226400D02*
X586402D01*
X584932Y226000D02*
X586242D01*
X595050Y225600D02*
X596124D01*
X595130Y225200D02*
X596044D01*
X595174Y224800D02*
X596001D01*
X585050Y225600D02*
X586124D01*
X585130Y225200D02*
X586045D01*
X585174Y224800D02*
X586001D01*
X605157Y224000D02*
X606018D01*
X605183Y224400D02*
X605992D01*
X604996Y223200D02*
X606179D01*
X605095Y223600D02*
X606080D01*
X604858Y222800D02*
X606317D01*
X594676Y222400D02*
X596499D01*
X594858Y222800D02*
X596317D01*
X604676Y222400D02*
X606499D01*
X595156Y224000D02*
X596018D01*
X595183Y224400D02*
X595992D01*
X585156Y224000D02*
X586018D01*
X585183Y224400D02*
X585992D01*
X595095Y223600D02*
X596080D01*
X585095D02*
X586080D01*
X594996Y223200D02*
X596179D01*
X584858Y222800D02*
X586317D01*
X584996Y223200D02*
X586179D01*
X584676Y222400D02*
X586499D01*
X582338Y228750D02*
X588837D01*
X583020Y228400D02*
X588155D01*
X583567Y228000D02*
X587608D01*
X573981Y227600D02*
X577194D01*
X572338Y228750D02*
X578837D01*
X573020Y228400D02*
X578155D01*
X573567Y228000D02*
X577608D01*
X583981Y227600D02*
X587194D01*
X584307Y227200D02*
X586868D01*
X584567Y226800D02*
X586608D01*
X574307Y227200D02*
X576867D01*
X574567Y226800D02*
X576608D01*
X574773Y226400D02*
X576402D01*
X563981Y227600D02*
X567194D01*
X564307Y227200D02*
X566867D01*
X564567Y226800D02*
X566608D01*
X562338Y228750D02*
X568837D01*
X563020Y228400D02*
X568155D01*
X563567Y228000D02*
X567608D01*
X574932Y226000D02*
X576242D01*
X575050Y225600D02*
X576124D01*
X565130Y225200D02*
X566045D01*
X564773Y226400D02*
X566402D01*
X564932Y226000D02*
X566243D01*
X565050Y225600D02*
X566124D01*
X575183Y224400D02*
X575992D01*
X575130Y225200D02*
X576045D01*
X575174Y224800D02*
X576001D01*
X575156Y224000D02*
X576018D01*
X574996Y223200D02*
X576179D01*
X575095Y223600D02*
X576080D01*
X584445Y222000D02*
X586730D01*
X574676Y222400D02*
X576499D01*
X574858Y222800D02*
X576317D01*
X574444Y222000D02*
X576730D01*
X565183Y224400D02*
X565992D01*
X565174Y224800D02*
X566001D01*
X565095Y223600D02*
X566080D01*
X565157Y224000D02*
X566018D01*
X564996Y223200D02*
X566179D01*
X564676Y222400D02*
X566499D01*
X564858Y222800D02*
X566317D01*
X564444Y222000D02*
X566730D01*
X604445D02*
X606730D01*
X594445D02*
X596730D01*
X604153Y221600D02*
X607021D01*
X594153D02*
X597021D01*
X593436Y220800D02*
X597860D01*
X593822Y221200D02*
X597388D01*
X593083Y220400D02*
X598510D01*
X601050Y204000D02*
Y205248D01*
X604550Y204000D02*
Y205248D01*
X592765Y220000D02*
X599651D01*
X593511Y220885D02*
X593836Y221214D01*
X587663Y220885D02*
X588199Y220278D01*
X592975D02*
X593511Y220885D01*
X583787Y221200D02*
X587352D01*
X584154Y221600D02*
X587021D01*
X587338Y221214D02*
X587663Y220885D01*
X592786Y220030D02*
X592975Y220278D01*
X592337Y218313D02*
Y219010D01*
X588837Y218313D02*
Y219010D01*
X588199Y220278D02*
X588389Y220030D01*
X583942Y203650D02*
X586737D01*
X589967Y202400D02*
X600752D01*
X590375Y202000D02*
X600575D01*
X587428Y203600D02*
X601032D01*
X588766Y203200D02*
X600978D01*
X589464Y202800D02*
X600885D01*
X597092Y200800D02*
X599692D01*
X592862Y200400D02*
X595185D01*
X598015D02*
X599216D01*
X590775Y201600D02*
X600347D01*
X591175Y201200D02*
X600059D01*
X591613Y200800D02*
X596108D01*
X593364Y200000D02*
X594745D01*
X593677Y199600D02*
X594464D01*
X593879Y199200D02*
X594284D01*
X590130Y202245D02*
X591457Y200918D01*
X593789Y197200D02*
X594464D01*
X593948Y197600D02*
X594284D01*
X593537Y196800D02*
X594745D01*
X588789Y197200D02*
X589411D01*
X588948Y197600D02*
X589252D01*
X588537Y196800D02*
X589663D01*
X582665Y220400D02*
X588092D01*
X583315Y220800D02*
X587739D01*
X581524Y220000D02*
X588410D01*
X571524D02*
X579651D01*
X572665Y220400D02*
X578510D01*
X558285Y219600D02*
X588661D01*
X557362Y218800D02*
X588837D01*
X557762Y219200D02*
X588807D01*
X556962Y218400D02*
X588837D01*
X556162Y217600D02*
X588871D01*
X556562Y218000D02*
X588844D01*
X555789Y217200D02*
X588919D01*
X573787Y221200D02*
X577388D01*
X574154Y221600D02*
X577021D01*
X573315Y220800D02*
X577860D01*
X563787Y221200D02*
X567388D01*
X564153Y221600D02*
X567021D01*
X563314Y220800D02*
X567860D01*
X561524Y220000D02*
X569651D01*
X562665Y220400D02*
X568509D01*
X560099Y219876D02*
X560562Y219879D01*
X559291Y219826D02*
X560099Y219876D01*
X558981Y219785D02*
X559291Y219826D01*
X556166Y217604D02*
X557943Y219380D01*
X575644Y208400D02*
X600664D01*
X576123Y208000D02*
X600484D01*
X577775Y206400D02*
X600484D01*
X573913Y209600D02*
X602308D01*
X574548Y209200D02*
X601385D01*
X575121Y208800D02*
X600945D01*
X580505Y204400D02*
X601050D01*
X579741Y204800D02*
X601050D01*
X581565Y204000D02*
X601050D01*
X578616Y205600D02*
X600945D01*
X578176Y206000D02*
X600664D01*
X579128Y205200D02*
X601050D01*
X576565Y207600D02*
X600383D01*
X571402Y210800D02*
X594991D01*
X576902Y207272D02*
X578106Y206068D01*
X570161Y211200D02*
X593649D01*
X568235Y211600D02*
X592804D01*
X577375Y206800D02*
X600383D01*
X576975Y207200D02*
X600350D01*
X571645Y202580D02*
X572962Y201263D01*
X628167Y196000D02*
X635750D01*
X629825Y196400D02*
X635750D01*
X626300Y195600D02*
X635750D01*
X626168Y194800D02*
X635750D01*
X626268Y195200D02*
X635750D01*
X625993Y194400D02*
X635750D01*
X625300Y193600D02*
X635750D01*
X625721Y194000D02*
X635750D01*
X624500Y193200D02*
X635750D01*
X620121Y188400D02*
X635750D01*
X620121Y188800D02*
X635750D01*
X620121Y188000D02*
X635750D01*
X626300Y195900D02*
X626800D01*
X621300Y195600D02*
Y198400D01*
X620121Y196000D02*
X621300D01*
X620121Y196400D02*
X621300D01*
X620121Y195600D02*
X621300D01*
X620121Y193600D02*
X622300D01*
X620121Y194000D02*
X621879D01*
X620121Y193200D02*
X623100D01*
X620121Y194800D02*
X621431D01*
X620121Y195200D02*
X621332D01*
X620121Y194400D02*
X621607D01*
X620121Y181600D02*
X635750D01*
X620121Y182000D02*
X635750D01*
Y151500D02*
Y202426D01*
X620121Y182800D02*
X635750D01*
X620121Y183200D02*
X635750D01*
X620121Y182400D02*
X635750D01*
X620121Y179600D02*
X635750D01*
X620121Y180000D02*
X635750D01*
X620121Y179200D02*
X635750D01*
X620121Y180800D02*
X635750D01*
X620121Y181200D02*
X635750D01*
X620121Y180400D02*
X635750D01*
X620121Y186400D02*
X635750D01*
X620121Y186800D02*
X635750D01*
X620121Y186000D02*
X635750D01*
X620121Y187200D02*
X635750D01*
X620121Y187600D02*
X635750D01*
X620121Y171783D02*
Y206929D01*
Y184000D02*
X635750D01*
X620121Y184400D02*
X635750D01*
X620121Y183600D02*
X635750D01*
X620121Y185200D02*
X635750D01*
X620121Y185600D02*
X635750D01*
X620121Y184800D02*
X635750D01*
X620121Y191200D02*
X635750D01*
X620121Y191600D02*
X635750D01*
X620121Y190400D02*
X635750D01*
X620121Y190800D02*
X635750D01*
X620121Y192400D02*
X635750D01*
X620121Y192800D02*
X635750D01*
X620121Y192000D02*
X635750D01*
X620121Y189600D02*
X635750D01*
X620121Y190000D02*
X635750D01*
X620121Y189200D02*
X635750D01*
X579068Y188800D02*
X616621D01*
X578709Y189200D02*
X616621D01*
X579396Y188400D02*
X616621D01*
X597092Y196000D02*
X616621D01*
X598933Y196400D02*
X616621D01*
X575212Y192000D02*
X616621D01*
X573412Y192800D02*
X616621D01*
X571969Y193200D02*
X616621D01*
X574413Y192400D02*
X616621D01*
X577883Y190000D02*
X616621D01*
X577456Y190400D02*
X616621D01*
X578315Y189600D02*
X616621D01*
X576473Y191200D02*
X616621D01*
X575887Y191600D02*
X616621D01*
X576991Y190800D02*
X616621D01*
X581947Y181600D02*
X616621D01*
X581920Y182000D02*
X616621D01*
Y171783D02*
Y206929D01*
X581824Y182800D02*
X616621D01*
X581756Y183200D02*
X616621D01*
X581879Y182400D02*
X616621D01*
X614166Y179600D02*
X616621D01*
X613852Y180000D02*
X616621D01*
X614379Y179200D02*
X616621D01*
X612389Y180800D02*
X616621D01*
X581961Y181200D02*
X616621D01*
X613373Y180400D02*
X616621D01*
X580670Y186400D02*
X616621D01*
X580458Y186800D02*
X616621D01*
X580863Y186000D02*
X616621D01*
X579973Y187600D02*
X616621D01*
X579697Y188000D02*
X616621D01*
X580226Y187200D02*
X616621D01*
X581577Y184000D02*
X616621D01*
X581465Y184400D02*
X616621D01*
X581673Y183600D02*
X616621D01*
X581196Y185200D02*
X616621D01*
X581038Y185600D02*
X616621D01*
X581339Y184800D02*
X616621D01*
X620121Y175200D02*
X635750D01*
X620121Y175600D02*
X635750D01*
X620121Y174400D02*
X635750D01*
X620121Y174800D02*
X635750D01*
X620121Y176400D02*
X635750D01*
X620121Y176800D02*
X635750D01*
X620121Y176000D02*
X635750D01*
X620121Y172400D02*
X635750D01*
X620121Y172800D02*
X635750D01*
X620121Y172000D02*
X635750D01*
X620121Y173600D02*
X635750D01*
X620121Y174000D02*
X635750D01*
X620121Y173200D02*
X635750D01*
X620121Y178400D02*
X635750D01*
X620121Y178800D02*
X635750D01*
X620121Y178000D02*
X635750D01*
X614587Y178400D02*
X616621D01*
X614515Y178800D02*
X616621D01*
X614598Y178000D02*
X616621D01*
X620121Y177600D02*
X635750D01*
X614550D02*
X616621D01*
X620121Y177200D02*
X635750D01*
X614259Y176800D02*
X616621D01*
X614440Y177200D02*
X616621D01*
X613988Y176400D02*
X616621D01*
X618412Y166400D02*
X635750D01*
X618679Y166800D02*
X635750D01*
X618113Y166000D02*
X635750D01*
X617404Y165200D02*
X635750D01*
X617779Y165600D02*
X635750D01*
X616980Y164800D02*
X635750D01*
X615938Y164000D02*
X635750D01*
X616497Y164400D02*
X635750D01*
X614453Y163200D02*
X635750D01*
X615276Y163600D02*
X635750D01*
X613848Y153600D02*
X635750D01*
X620103Y171200D02*
X635750D01*
X620119Y171600D02*
X635750D01*
X620069Y170800D02*
X635750D01*
X619949Y170000D02*
X635750D01*
X620018Y170400D02*
X635750D01*
X619862Y169600D02*
X635750D01*
X619631Y168800D02*
X635750D01*
X619756Y169200D02*
X635750D01*
X619486Y168400D02*
X635750D01*
X619131Y167600D02*
X635750D01*
X619320Y168000D02*
X635750D01*
X618918Y167200D02*
X635750D01*
X613319Y162800D02*
X635750D01*
X602882Y162400D02*
X635750D01*
X581964Y172400D02*
X616621D01*
X581964Y172800D02*
X616621D01*
X581964Y172000D02*
X616621D01*
X593148Y160800D02*
X635750D01*
X602278Y162000D02*
X635750D01*
X593132Y160400D02*
X635750D01*
X593098Y161200D02*
X635750D01*
X592979Y161600D02*
X635750D01*
X593048Y160000D02*
X635750D01*
X612909Y175600D02*
X616621D01*
X613586Y176000D02*
X616621D01*
X581964Y174000D02*
X616621D01*
X581964Y174800D02*
X616621D01*
X581964Y175200D02*
X616621D01*
X581964Y174400D02*
X616621D01*
X581977Y171200D02*
X616592D01*
X582019Y170800D02*
X616537D01*
X582090Y170400D02*
X616455D01*
X581964Y173200D02*
X616621D01*
X581964Y173600D02*
X616621D01*
X581964Y171600D02*
X616618D01*
X613477Y154800D02*
X635750D01*
X613164Y155200D02*
X635750D01*
X613679Y154400D02*
X635750D01*
X574784Y156000D02*
X635750D01*
X574784Y156400D02*
X635750D01*
X612662Y155600D02*
X635750D01*
X613832Y153200D02*
X635750D01*
X613798Y154000D02*
X635750D01*
X613748Y152800D02*
X635750D01*
X613337Y152000D02*
X635750D01*
X613589Y152400D02*
X635750D01*
X612947Y151600D02*
X635750D01*
X592637Y159200D02*
X635750D01*
X592889Y159600D02*
X635750D01*
X592247Y158800D02*
X635750D01*
X574784Y158000D02*
X635750D01*
X591544Y158400D02*
X635750D01*
X574784Y157600D02*
X635750D01*
X612244Y151200D02*
X635713D01*
X611091Y150800D02*
X635536D01*
X610572Y150400D02*
X635094D01*
X574784Y156800D02*
X635750D01*
X574784Y157200D02*
X635750D01*
X610362Y150250D02*
X634500D01*
X581964Y179600D02*
X609583D01*
X581964Y179200D02*
X609370D01*
X581964Y178800D02*
X609234D01*
X581964Y178400D02*
X609162D01*
X581964Y180800D02*
X611361D01*
X581964Y180400D02*
X610376D01*
X581964Y180000D02*
X609898D01*
X581964Y176400D02*
X609761D01*
X581964Y176800D02*
X609490D01*
X581964Y176000D02*
X610163D01*
X581964Y177600D02*
X609199D01*
X581964Y178000D02*
X609151D01*
X581964Y177200D02*
X609309D01*
X593147Y196400D02*
X595185D01*
X588147D02*
X590053D01*
X597352Y196068D02*
X597999Y196151D01*
X592444Y196000D02*
X596108D01*
X587444D02*
X590756D01*
X582494Y169200D02*
X616018D01*
X582700Y168800D02*
X615800D01*
X582192Y170000D02*
X616342D01*
X581964Y175600D02*
X610840D01*
X582325Y169600D02*
X616197D01*
X584060Y167200D02*
X614396D01*
X584623Y166800D02*
X613820D01*
X582951Y168400D02*
X615540D01*
X583252Y168000D02*
X615228D01*
X583615Y167600D02*
X614853D01*
X581964Y171586D02*
Y180974D01*
X568201Y168800D02*
X575386D01*
X575129Y171311D02*
Y180050D01*
X568601Y168400D02*
X575476D01*
X570084Y166800D02*
X575981D01*
X569757Y167200D02*
X575832D01*
X570380Y166400D02*
X576146D01*
X569396Y167600D02*
X575699D01*
X569001Y168000D02*
X575580D01*
X559650Y181200D02*
X575036D01*
X559617Y181600D02*
X574960D01*
X559617Y180800D02*
X575090D01*
X559516Y180400D02*
X575120D01*
X559516Y182000D02*
X574860D01*
X559336Y180000D02*
X575129D01*
X558615Y179200D02*
X575129D01*
X559055Y179600D02*
X575129D01*
X558327Y174400D02*
X575129D01*
X556692Y175200D02*
X575129D01*
X557692Y178800D02*
X575129D01*
X557615Y174800D02*
X575129D01*
X556122Y187200D02*
X568775D01*
X556431Y187250D02*
X567928D01*
X556308Y184400D02*
X573666D01*
X555568Y186800D02*
X570434D01*
X555740Y184800D02*
X573339D01*
X559055Y182800D02*
X574583D01*
X558615Y183200D02*
X574403D01*
X559336Y182400D02*
X574734D01*
X557692Y183600D02*
X574192D01*
X556812Y184000D02*
X573948D01*
X564594Y172000D02*
X575129D01*
X563963Y172400D02*
X575129D01*
X565163Y171600D02*
X575129D01*
X562439Y173200D02*
X575129D01*
X561470Y173600D02*
X575129D01*
X563254Y172800D02*
X575129D01*
X567401Y169600D02*
X575248D01*
X567001Y170000D02*
X575198D01*
X567801Y169200D02*
X575310D01*
X566156Y170800D02*
X575139D01*
X565681Y171200D02*
X575129D01*
X566594Y170400D02*
X575162D01*
X560237Y174000D02*
X575129D01*
X566884Y170117D02*
X569190Y167811D01*
X556692Y170400D02*
X560027D01*
X557615Y170800D02*
X558594D01*
X560572Y166800D02*
X565251D01*
X560095Y167200D02*
X564851D01*
X564403Y167648D02*
X566718Y165334D01*
X558815Y168000D02*
X564036D01*
X557847Y168400D02*
X563577D01*
X559524Y167600D02*
X564451D01*
X602278Y166400D02*
X613034D01*
X602882Y166000D02*
X611550D01*
X603152Y165950D02*
X610787D01*
X585393Y166400D02*
X600122D01*
X586851Y166000D02*
X599538D01*
X587600Y165950D02*
X599485D01*
X603152Y162450D02*
X610787D01*
X592777Y162000D02*
X600122D01*
X592464Y162400D02*
X599538D01*
X592415Y162450D02*
X599485D01*
X572337Y160000D02*
X582504D01*
X571917Y163200D02*
X578162D01*
X571793Y163600D02*
X577829D01*
X572024Y162800D02*
X578525D01*
X571491Y164400D02*
X577241D01*
X571313Y164800D02*
X576982D01*
X571651Y164000D02*
X577523D01*
X572322Y160800D02*
X580985D01*
X572293Y161200D02*
X580379D01*
X572336Y160400D02*
X581681D01*
X572190Y162000D02*
X579359D01*
X572115Y162400D02*
X578923D01*
X572249Y161600D02*
X579842D01*
X574784Y154400D02*
X609121D01*
X574784Y154000D02*
X609002D01*
X574784Y155600D02*
X610138D01*
X574784Y155200D02*
X609636D01*
X574784Y154800D02*
X609323D01*
X574784Y153600D02*
X608941D01*
X574784Y153200D02*
X608472D01*
X574784Y152800D02*
X607859D01*
X572374Y158800D02*
X589153D01*
X587490Y158950D02*
X588985D01*
X572337Y159200D02*
X585016D01*
X572337Y159600D02*
X583534D01*
X572337Y158974D02*
Y160229D01*
X574784Y152400D02*
X607095D01*
X574784Y152000D02*
X606035D01*
X574784Y151650D02*
X603658D01*
X574784Y158400D02*
X589856D01*
X572507Y158696D02*
X574784D01*
Y151650D02*
Y158696D01*
X570893Y165600D02*
X576527D01*
X570649Y166000D02*
X576328D01*
X571113Y165200D02*
X576745D01*
X563072Y161600D02*
X568706D01*
X563036Y162000D02*
X568616D01*
X563113Y159600D02*
X568837D01*
X563087Y160000D02*
X568837D01*
X563139Y159200D02*
X568837D01*
X563087Y160800D02*
X568815D01*
X563087Y161200D02*
X568772D01*
X563087Y160400D02*
X568835D01*
X562145Y164800D02*
X567202D01*
X561911Y165200D02*
X566848D01*
X562349Y164400D02*
X567508D01*
X561334Y166000D02*
X566051D01*
X560980Y166400D02*
X565651D01*
X561642Y165600D02*
X566451D01*
X562979Y162400D02*
X568503D01*
X562900Y162800D02*
X568363D01*
X563087Y159757D02*
Y161113D01*
X562674Y163600D02*
X568000D01*
X562525Y164000D02*
X567772D01*
X562799Y163200D02*
X568196D01*
X568837Y158974D02*
Y160229D01*
X566391Y158696D02*
X568668D01*
X566391Y151650D02*
Y158696D01*
X563220Y158800D02*
X568800D01*
X565183Y154400D02*
X566391D01*
X565157Y154000D02*
X566391D01*
X564996Y153200D02*
X566391D01*
X565095Y153600D02*
X566391D01*
X564858Y152800D02*
X566391D01*
X564444Y152000D02*
X566391D01*
X564676Y152400D02*
X566391D01*
X564194Y151650D02*
X566391D01*
X564307Y157200D02*
X566391D01*
X563981Y157600D02*
X566391D01*
X564567Y156800D02*
X566391D01*
X563642Y158000D02*
X566391D01*
X563377Y158400D02*
X566391D01*
X565130Y155200D02*
X566391D01*
X565050Y155600D02*
X566391D01*
X565174Y154800D02*
X566391D01*
X564932Y156000D02*
X566391D01*
X564773Y156400D02*
X566391D01*
X543567Y228000D02*
X547608D01*
X543981Y227600D02*
X547194D01*
X544307Y227200D02*
X546868D01*
X544567Y226800D02*
X546608D01*
X542338Y228750D02*
X548837D01*
X543020Y228400D02*
X548155D01*
X545130Y225200D02*
X546044D01*
X545174Y224800D02*
X546001D01*
X545183Y224400D02*
X545992D01*
X544773Y226400D02*
X546402D01*
X544932Y226000D02*
X546243D01*
X545050Y225600D02*
X546124D01*
X533981Y227600D02*
X537194D01*
X534307Y227200D02*
X536868D01*
X534567Y226800D02*
X536608D01*
X532338Y228750D02*
X538837D01*
X533020Y228400D02*
X538155D01*
X533567Y228000D02*
X537608D01*
X535130Y225200D02*
X536045D01*
X535174Y224800D02*
X536001D01*
X535183Y224400D02*
X535992D01*
X534773Y226400D02*
X536402D01*
X534932Y226000D02*
X536242D01*
X535050Y225600D02*
X536124D01*
X545979Y224161D02*
X546040Y223160D01*
X546054Y222345D01*
X545095Y223600D02*
X546013D01*
X545156Y224000D02*
X545989D01*
X544996Y223200D02*
X546038D01*
X544676Y222400D02*
X546054D01*
X544858Y222800D02*
X546046D01*
X546026Y221691D02*
X546054Y222345D01*
X544445Y222000D02*
X546039D01*
X544153Y221600D02*
X546016D01*
X543787Y221200D02*
X545953D01*
X535095Y223600D02*
X536080D01*
X535156Y224000D02*
X536018D01*
X534858Y222800D02*
X536317D01*
X534996Y223200D02*
X536179D01*
X534676Y222400D02*
X536499D01*
X543315Y220800D02*
X545838D01*
X534445Y222000D02*
X536730D01*
X533787Y221200D02*
X537388D01*
X534154Y221600D02*
X537021D01*
X533315Y220800D02*
X537860D01*
X523020Y228400D02*
X528155D01*
X523567Y228000D02*
X527608D01*
X523981Y227600D02*
X527194D01*
X524307Y227200D02*
X526867D01*
X522338Y228750D02*
X528837D01*
X512338D02*
X518837D01*
X513020Y228400D02*
X518155D01*
X525050Y225600D02*
X526124D01*
X525130Y225200D02*
X526045D01*
X525174Y224800D02*
X526001D01*
X524567Y226800D02*
X526608D01*
X524773Y226400D02*
X526402D01*
X524932Y226000D02*
X526242D01*
X513567Y228000D02*
X517608D01*
X513981Y227600D02*
X517194D01*
X514307Y227200D02*
X516867D01*
X502338Y228750D02*
X508837D01*
X503020Y228400D02*
X508155D01*
X515050Y225600D02*
X516124D01*
X515130Y225200D02*
X516045D01*
X515174Y224800D02*
X516001D01*
X514567Y226800D02*
X516608D01*
X514773Y226400D02*
X516402D01*
X514932Y226000D02*
X516243D01*
X525183Y224400D02*
X525992D01*
X525095Y223600D02*
X526080D01*
X525156Y224000D02*
X526018D01*
X524996Y223200D02*
X526179D01*
X524676Y222400D02*
X526499D01*
X524858Y222800D02*
X526317D01*
X524444Y222000D02*
X526730D01*
X523787Y221200D02*
X527388D01*
X524154Y221600D02*
X527021D01*
X523315Y220800D02*
X527860D01*
X515183Y224400D02*
X515992D01*
X515095Y223600D02*
X516080D01*
X515157Y224000D02*
X516018D01*
X514858Y222800D02*
X516317D01*
X514996Y223200D02*
X516179D01*
X514676Y222400D02*
X516499D01*
X514153Y221600D02*
X517021D01*
X514444Y222000D02*
X516730D01*
X513787Y221200D02*
X517388D01*
X555171Y216400D02*
X589080D01*
X555460Y216800D02*
X588988D01*
X554693Y215600D02*
X589334D01*
X554917Y216000D02*
X589195D01*
X554326Y214800D02*
X589690D01*
X554497Y215200D02*
X589498D01*
X554180Y214400D02*
X589912D01*
X553955Y213600D02*
X590458D01*
X554057Y214000D02*
X590166D01*
X553875Y213200D02*
X590792D01*
X553774Y212400D02*
X591626D01*
X553815Y212800D02*
X591178D01*
X553753Y212000D02*
X592156D01*
X545050Y211952D02*
Y216570D01*
X553952Y211750D02*
X566094Y211750D01*
X542665Y220400D02*
X545692D01*
X541524Y220000D02*
X545562D01*
X535088Y207200D02*
X545988D01*
X545462Y207915D02*
X545679Y207613D01*
X535241Y206800D02*
X546326D01*
X534722Y208000D02*
X545380D01*
X534508Y208400D02*
X544945D01*
X534915Y207600D02*
X545687D01*
X539648Y203200D02*
X570961D01*
X539632Y203600D02*
X570438D01*
X539598Y202800D02*
X571418D01*
X539277Y202000D02*
X572225D01*
X539479Y202400D02*
X571825D01*
X538964Y201600D02*
X572625D01*
X538202Y200800D02*
X573445D01*
X538485Y201200D02*
X573026D01*
X537906Y200400D02*
X573896D01*
X537048Y199600D02*
X574914D01*
X537533Y200000D02*
X574384D01*
X536373Y199200D02*
X575494D01*
X538044Y205600D02*
X548196D01*
X535492Y206000D02*
X547329D01*
X535375Y206400D02*
X546757D01*
X535591Y205600D02*
X536356D01*
X539389Y204400D02*
X569089D01*
X549700Y205350D02*
X564958D01*
X539548Y204000D02*
X569827D01*
X539137Y204800D02*
X568136D01*
X538747Y205200D02*
X566636D01*
X488285Y219600D02*
X545447D01*
X487762Y219200D02*
X545348D01*
X487362Y218800D02*
X545263D01*
X486962Y218400D02*
X545193D01*
X486562Y218000D02*
X545137D01*
X486159Y217600D02*
X545095D01*
X485403Y217200D02*
X545067D01*
X480962Y216800D02*
X545052D01*
X470917Y214400D02*
X545050D01*
X471283Y214000D02*
X545050D01*
X469819Y215200D02*
X545050D01*
X468784Y215600D02*
X545050D01*
X470450Y214800D02*
X545050D01*
X522665Y220400D02*
X528510D01*
X513314Y220800D02*
X517860D01*
X532665Y220400D02*
X538510D01*
X512665D02*
X518509D01*
X502665D02*
X508509D01*
X501524Y220000D02*
X509651D01*
X531524D02*
X539651D01*
X521524D02*
X529651D01*
X519537Y213658D02*
X525492D01*
X432750Y216400D02*
X545050D01*
X511524Y220000D02*
X519651D01*
X432750Y216000D02*
X545050D01*
X531114Y212000D02*
X545050D01*
X530440Y212400D02*
X545050D01*
X531689Y211600D02*
X544945D01*
X528539Y213200D02*
X545050D01*
X526591Y213600D02*
X545050D01*
X529621Y212800D02*
X545050D01*
X534005Y209200D02*
X544484D01*
X533714Y209600D02*
X544383D01*
X534269Y208800D02*
X544664D01*
X532191Y211200D02*
X544664D01*
X532636Y210800D02*
X544484D01*
X533034Y210400D02*
X544383D01*
X533391Y210000D02*
X544350D01*
X482300Y202250D02*
X522137D01*
X481300Y213650D02*
X519537Y213658D01*
X480816Y202000D02*
X523235D01*
X479401Y201200D02*
X524253D01*
X479963Y201600D02*
X523833D01*
X478975Y200800D02*
X524722D01*
X478175Y200000D02*
X525897D01*
X478575Y200400D02*
X525262D01*
X477775Y199600D02*
X526675D01*
X503567Y228000D02*
X507608D01*
X493981Y227600D02*
X497194D01*
X503981D02*
X507194D01*
X504307Y227200D02*
X506868D01*
X492338Y228750D02*
X498837D01*
X493020Y228400D02*
X498155D01*
X493567Y228000D02*
X497608D01*
X505050Y225600D02*
X506124D01*
X505130Y225200D02*
X506044D01*
X505174Y224800D02*
X506001D01*
X504567Y226800D02*
X506608D01*
X504773Y226400D02*
X506402D01*
X504932Y226000D02*
X506243D01*
X494567Y226800D02*
X496608D01*
X494773Y226400D02*
X496402D01*
X494932Y226000D02*
X496243D01*
X494307Y227200D02*
X496868D01*
X474773Y226400D02*
X476402D01*
X474932Y226000D02*
X476242D01*
X495050Y225600D02*
X496124D01*
X495130Y225200D02*
X496044D01*
X495174Y224800D02*
X496001D01*
X475050Y225600D02*
X476124D01*
X475130Y225200D02*
X476045D01*
X475174Y224800D02*
X476001D01*
X505157Y224000D02*
X506018D01*
X505183Y224400D02*
X505992D01*
X505095Y223600D02*
X506080D01*
X494996Y223200D02*
X496179D01*
X504858Y222800D02*
X506317D01*
X504996Y223200D02*
X506179D01*
X504676Y222400D02*
X506499D01*
X494676D02*
X496499D01*
X494858Y222800D02*
X496317D01*
X494445Y222000D02*
X496730D01*
X495183Y224400D02*
X495992D01*
X475156Y224000D02*
X476018D01*
X475183Y224400D02*
X475992D01*
X495156Y224000D02*
X496018D01*
X475095Y223600D02*
X476080D01*
X495095D02*
X496080D01*
X474858Y222800D02*
X476317D01*
X474996Y223200D02*
X476179D01*
X474676Y222400D02*
X476499D01*
X472338Y228750D02*
X478837D01*
X473020Y228400D02*
X478155D01*
X473567Y228000D02*
X477608D01*
X463981Y227600D02*
X467194D01*
X462338Y228750D02*
X468837D01*
X463020Y228400D02*
X468155D01*
X463567Y228000D02*
X467608D01*
X473981Y227600D02*
X477194D01*
X474307Y227200D02*
X476867D01*
X474567Y226800D02*
X476608D01*
X464307Y227200D02*
X466867D01*
X464567Y226800D02*
X466608D01*
X464773Y226400D02*
X466402D01*
X434000Y228750D02*
X458837D01*
X433133Y228400D02*
X458155D01*
X432854Y228000D02*
X457608D01*
X432754Y227600D02*
X457194D01*
X432750Y227200D02*
X456868D01*
X464932Y226000D02*
X466243D01*
X432750Y225600D02*
X456124D01*
X465050D02*
X466124D01*
X432750Y226800D02*
X456608D01*
X432750Y226400D02*
X456402D01*
X432750Y226000D02*
X456243D01*
X465183Y224400D02*
X465992D01*
X465130Y225200D02*
X466045D01*
X465174Y224800D02*
X466001D01*
X465157Y224000D02*
X466018D01*
X464996Y223200D02*
X466179D01*
X465095Y223600D02*
X466080D01*
X474444Y222000D02*
X476730D01*
X464676Y222400D02*
X466499D01*
X464858Y222800D02*
X466317D01*
X464444Y222000D02*
X466730D01*
X432750Y224400D02*
X455992D01*
X432750Y225200D02*
X456044D01*
X432750Y224800D02*
X456001D01*
X432750Y215400D02*
Y227500D01*
Y222400D02*
X456499D01*
X432750Y222800D02*
X456317D01*
X432750Y222000D02*
X456730D01*
X432750Y223600D02*
X456080D01*
X432750Y224000D02*
X456018D01*
X432750Y223200D02*
X456179D01*
X504153Y221600D02*
X507021D01*
X504445Y222000D02*
X506730D01*
X503314Y220800D02*
X507860D01*
X503787Y221200D02*
X507388D01*
X493787D02*
X497388D01*
X494153Y221600D02*
X497021D01*
X493315Y220800D02*
X497860D01*
X491524Y220000D02*
X499651D01*
X492665Y220400D02*
X498510D01*
X490099Y219876D02*
X490562Y219879D01*
X489291Y219826D02*
X490099Y219876D01*
X488981Y219785D02*
X489291Y219826D01*
X486225Y217663D02*
X487943Y219380D01*
X473787Y221200D02*
X477388D01*
X474154Y221600D02*
X477021D01*
X473315Y220800D02*
X477860D01*
X463787Y221200D02*
X467388D01*
X464153Y221600D02*
X467021D01*
X463314Y220800D02*
X467860D01*
X481652Y217150D02*
X484987D01*
X472665Y220400D02*
X477763D01*
X461524Y220000D02*
X469651D01*
X462665Y220400D02*
X468509D01*
X471524Y220000D02*
X477511D01*
X480042Y213650D02*
X481300D01*
X471576Y213600D02*
X478959D01*
X471871Y213200D02*
X476822D01*
X472837Y212000D02*
X474038D01*
X472975Y211600D02*
X473411D01*
X472262Y212800D02*
X475654D01*
X472611Y212400D02*
X474768D01*
X464300Y215750D02*
X467600D01*
X471732Y213396D02*
X471953Y213084D01*
X455600Y213600D02*
X460114D01*
X455600Y213200D02*
X459855D01*
X455600Y211600D02*
X459248D01*
X455600Y211200D02*
X459185D01*
X455600Y203600D02*
X459150D01*
X455600Y212800D02*
X459644D01*
X455600Y212400D02*
X459475D01*
X455600Y212000D02*
X459344D01*
X432750Y218000D02*
X477421D01*
X432750Y218400D02*
X477302D01*
X432750Y217600D02*
X477623D01*
X432750Y219600D02*
X477352D01*
X432750Y219200D02*
X477268D01*
X432750Y218800D02*
X477252D01*
X455600Y215200D02*
X461984D01*
X455600Y214800D02*
X461320D01*
X455600Y214400D02*
X460824D01*
X432750Y216800D02*
X478438D01*
X432750Y217200D02*
X477936D01*
X432750Y215600D02*
X463066D01*
X432750Y220000D02*
X459651D01*
X432750Y220400D02*
X458509D01*
X432750Y215400D02*
X455600D01*
X432750Y221200D02*
X457388D01*
X432750Y221600D02*
X457021D01*
X432750Y220800D02*
X457860D01*
X455600Y209600D02*
X459150D01*
X455600Y210000D02*
X459150D01*
X455600Y209200D02*
X459150D01*
X455600Y214000D02*
X460432D01*
X455600Y210800D02*
X459154D01*
X455600Y210400D02*
X459150D01*
X455600Y202000D02*
X459150D01*
X455600Y202400D02*
X459150D01*
X455600Y201600D02*
X459150D01*
X455600Y203200D02*
X459150D01*
X455600Y204000D02*
X459150D01*
X455600Y202800D02*
X459150D01*
X455600Y199600D02*
X459150D01*
X455600Y200000D02*
X459150D01*
X455600Y199200D02*
X459150D01*
X455600Y200800D02*
X459150D01*
X455600Y201200D02*
X459150D01*
X455600Y200400D02*
X459150D01*
X455600Y207200D02*
X459150D01*
X455600Y207600D02*
X459150D01*
X455600Y206800D02*
X459150D01*
X455600Y208400D02*
X459150D01*
X455600Y208800D02*
X459150D01*
X455600Y208000D02*
X459150D01*
X455600Y204800D02*
X459150D01*
X455600Y205200D02*
X459150D01*
X455600Y204400D02*
X459150D01*
X455600Y206000D02*
X459150D01*
X455600Y206400D02*
X459150D01*
X455600Y205600D02*
X459150D01*
X555079Y186400D02*
X571322D01*
X555473Y193450D02*
X569558D01*
X554439Y186000D02*
X571983D01*
X535073Y198800D02*
X576133D01*
X555091Y185200D02*
X572960D01*
X554328Y185600D02*
X572515D01*
X527011Y181200D02*
X554701D01*
X527237Y181600D02*
X554208D01*
X526662Y180800D02*
X554783D01*
X530794Y183250D02*
X549258D01*
X530579Y198750D02*
X534400D01*
X528428Y182800D02*
X551945D01*
X529993Y183200D02*
X550165D01*
X540200Y180500D02*
X543400D01*
X527375Y182000D02*
X553624D01*
X527595Y182400D02*
X552905D01*
X526078Y180400D02*
X539382D01*
X546033Y178800D02*
X556708D01*
X545865Y179200D02*
X555785D01*
X545058Y180000D02*
X555064D01*
X544168Y180400D02*
X554884D01*
X545542Y179600D02*
X555345D01*
X553400Y177600D02*
X575129D01*
X553400Y178000D02*
X575129D01*
X553400Y177200D02*
X575129D01*
X553400Y178400D02*
X575129D01*
X546900Y178425D02*
X553400D01*
Y174100D02*
Y178425D01*
X546100Y173675D02*
Y178425D01*
Y177200D02*
X546900D01*
X546100Y177600D02*
X546900D01*
Y174100D02*
Y178425D01*
X546100Y178000D02*
X546900D01*
X546100Y178400D02*
X546900D01*
X536800Y170100D02*
Y177100D01*
X510348Y196800D02*
X581514D01*
X510189Y197200D02*
X579813D01*
X511847Y196000D02*
X585756D01*
X511144Y196400D02*
X585053D01*
X509547Y198000D02*
X577665D01*
X508844Y198400D02*
X576849D01*
X509937Y197600D02*
X578622D01*
X513862Y194000D02*
X616621D01*
X512732Y194400D02*
X616621D01*
X514364Y193600D02*
X616621D01*
X512489Y195200D02*
X616621D01*
X512237Y195600D02*
X616621D01*
X512648Y194800D02*
X616621D01*
X514677Y193200D02*
X553940D01*
X514879Y192800D02*
X553055D01*
X514998Y192400D02*
X552469D01*
X476975Y198800D02*
X529611D01*
X477375Y199200D02*
X527706D01*
X516615Y191350D02*
X550403D01*
X519052Y185350D02*
X525706D01*
X518647Y185200D02*
X525418D01*
X515392Y192000D02*
X552024D01*
X516315Y191600D02*
X551457D01*
X520473Y180000D02*
X538425D01*
X520379Y180400D02*
X523922D01*
X520547Y179600D02*
X537896D01*
X517944Y184800D02*
X523922D01*
X517975Y184400D02*
X523338D01*
X520263Y180800D02*
X523338D01*
X520666Y178000D02*
X536921D01*
X520738Y177600D02*
X536837D01*
X520872Y177200D02*
X536801D01*
X520601Y179200D02*
X537526D01*
X520635Y178800D02*
X537255D01*
X520649Y178400D02*
X537058D01*
X518371Y184000D02*
X522989D01*
X518728Y183600D02*
X522763D01*
X519042Y183200D02*
X522625D01*
X517660Y184715D02*
X518228Y184147D01*
X520125Y181200D02*
X522989D01*
X519963Y181600D02*
X522763D01*
X519562Y182400D02*
X522558D01*
X519318Y182800D02*
X522558D01*
X519776Y182000D02*
X522625D01*
X553400Y175600D02*
X575129D01*
X553400Y175200D02*
X555708D01*
X553400Y174800D02*
X554785D01*
X553400Y174400D02*
X554345D01*
X553400Y176400D02*
X575129D01*
X553400Y176800D02*
X575129D01*
X553400Y176000D02*
X575129D01*
X553405Y174000D02*
X554064D01*
X553400Y173600D02*
X553884D01*
X553400Y173200D02*
X553783D01*
X552690Y172000D02*
X553884D01*
X552706Y172400D02*
X553783D01*
X552677Y171600D02*
X554064D01*
X553400Y172800D02*
X553750D01*
X552754D02*
X553400D01*
Y172775D02*
Y173974D01*
X546900Y172800D02*
X547546D01*
X546400D02*
X546900D01*
Y172775D02*
Y173974D01*
X552750Y172775D02*
X553400D01*
X546900D02*
X547550D01*
X547567Y172670D02*
X547619Y171965D01*
X546400Y172000D02*
X547616D01*
X546400Y172400D02*
X547587D01*
X546400Y171600D02*
X547625D01*
X552902Y170400D02*
X555708D01*
X552754Y170800D02*
X554785D01*
X552672Y171200D02*
X554345D01*
X552674Y171508D02*
X552702Y172362D01*
X555400Y168800D02*
X563063D01*
X553972Y169200D02*
X562482D01*
X553461Y169600D02*
X561814D01*
X553128Y170000D02*
X561021D01*
X546400Y170400D02*
X547736D01*
X547619Y171965D02*
X547626Y171530D01*
X546400Y170800D02*
X547686D01*
X546400Y171200D02*
X547658D01*
X546400Y168600D02*
Y172775D01*
Y168800D02*
X548154D01*
X546400Y169200D02*
X548015D01*
X548256Y167200D02*
X548986D01*
X546400Y169600D02*
X547899D01*
X546400Y170000D02*
X547807D01*
X546391Y168400D02*
X548319D01*
X546100Y175200D02*
X546900D01*
X546100Y175600D02*
X546900D01*
X546100Y174400D02*
X546900D01*
X546100Y174800D02*
X546900D01*
X546100Y176400D02*
X546900D01*
X546100Y176800D02*
X546900D01*
X546100Y176000D02*
X546900D01*
X546339Y173200D02*
X546900D01*
X546153Y173600D02*
X546900D01*
X546100Y174000D02*
X546895D01*
X525775Y172000D02*
X536800D01*
X522575Y175200D02*
X536800D01*
X522175Y175600D02*
X536800D01*
X522975Y174800D02*
X536800D01*
X521380Y176400D02*
X536800D01*
X521079Y176800D02*
X536800D01*
X521775Y176000D02*
X536800D01*
X524975Y172800D02*
X536800D01*
X524575Y173200D02*
X536800D01*
X525375Y172400D02*
X536800D01*
X523775Y174000D02*
X536800D01*
X523375Y174400D02*
X536800D01*
X524175Y173600D02*
X536800D01*
X527375Y170400D02*
X536800D01*
X527775Y170000D02*
X534038D01*
X526575Y171200D02*
X536800D01*
X526175Y171600D02*
X536800D01*
X526975Y170800D02*
X536800D01*
X546160Y167600D02*
X548732D01*
X546317Y168000D02*
X548511D01*
X546021Y167365D02*
X546470D01*
X532822Y165600D02*
X534456D01*
X533345Y165550D02*
X534607D01*
X528975Y168800D02*
X533021D01*
X529375Y168400D02*
X532902D01*
X529775Y168000D02*
X532852D01*
X528175Y169600D02*
X533536D01*
X528575Y169200D02*
X533223D01*
X521483Y176292D02*
X531432Y166343D01*
X531849Y166000D02*
X533753D01*
X531375Y166400D02*
X533363D01*
X530575Y167200D02*
X532952D01*
X530175Y167600D02*
X532868D01*
X530975Y166800D02*
X533111D01*
X476564Y198400D02*
X507156D01*
X476112Y198000D02*
X506453D01*
X475608Y197600D02*
X506063D01*
X475040Y197200D02*
X505811D01*
X474391Y196800D02*
X505652D01*
X473628Y196400D02*
X505568D01*
X472688Y196000D02*
X505409D01*
X471404Y195600D02*
X505025D01*
X468664Y194800D02*
X504225D01*
X468977Y194400D02*
X503825D01*
X469179Y194000D02*
X503425D01*
X469348Y193200D02*
X502625D01*
X476866Y198691D02*
X479099Y200924D01*
X469332Y192800D02*
X502225D01*
X469298Y193600D02*
X503025D01*
X474502Y191600D02*
X501025D01*
X475553Y191200D02*
X500625D01*
X476361Y190800D02*
X500225D01*
X469248Y192400D02*
X501825D01*
X469137Y192100D02*
X471300D01*
X472746Y192000D02*
X501425D01*
X478545Y189200D02*
X498625D01*
X478943Y188800D02*
X498225D01*
X496451Y187026D02*
X505382Y195957D01*
X477028Y190400D02*
X499825D01*
X477600Y190000D02*
X499425D01*
X478101Y189600D02*
X499025D01*
X480182Y187200D02*
X496625D01*
X480422Y186800D02*
X496218D01*
X479301Y188400D02*
X497825D01*
X479624Y188000D02*
X497425D01*
X479917Y187600D02*
X497025D01*
X480639Y186400D02*
X495765D01*
X480834Y186000D02*
X495252D01*
X468162Y188000D02*
X472436D01*
X468684Y188100D02*
X471300D01*
X481300Y184800D02*
X493103D01*
X481420Y184400D02*
X491923D01*
X481512Y184043D02*
X489249D01*
X481008Y185600D02*
X494662D01*
X481164Y185200D02*
X493964D01*
X468162Y195200D02*
X504625D01*
X468075Y195250D02*
X468558D01*
X455600Y194000D02*
X460012D01*
X455600Y194400D02*
X459784D01*
X455600Y193600D02*
X460288D01*
X455600Y191600D02*
X463138D01*
X455600Y192000D02*
X462169D01*
X455600Y191200D02*
X464711D01*
X455600Y192800D02*
X461021D01*
X455600Y193200D02*
X460619D01*
X455600Y192400D02*
X461519D01*
X455600Y197200D02*
X459150D01*
X455600Y197600D02*
X459150D01*
Y197000D02*
Y210600D01*
X455600Y198400D02*
X459150D01*
X455600Y198800D02*
X459150D01*
X455600Y198000D02*
X459150D01*
X455600Y195200D02*
X459444D01*
X455600Y195600D02*
X459326D01*
X455600Y194800D02*
X459596D01*
X455600Y196400D02*
X459182D01*
X455600Y196800D02*
X459154D01*
X455600Y196000D02*
X459239D01*
X455600Y185200D02*
X476712D01*
X455600Y185600D02*
X476424D01*
X455600Y184800D02*
X476958D01*
X455600Y186400D02*
X475683D01*
X455600Y186800D02*
X475200D01*
X455600Y186000D02*
X476084D01*
X455600Y182800D02*
X477688D01*
X455600Y183200D02*
X477600D01*
X455600Y182400D02*
X477751D01*
X455600Y184000D02*
X477341D01*
X455600Y184400D02*
X477166D01*
X455600Y183600D02*
X477485D01*
X455600Y189600D02*
X464502D01*
X455600Y190000D02*
X464452D01*
X455600Y190800D02*
X464552D01*
X455600Y190400D02*
X464468D01*
X455600Y163800D02*
Y215400D01*
Y187600D02*
X473800D01*
X455600Y188000D02*
X465638D01*
X455600Y187200D02*
X474600D01*
X455600Y188800D02*
X464823D01*
X455600Y189200D02*
X464621D01*
X455600Y188400D02*
X465136D01*
X455600Y176400D02*
X477800D01*
X455600Y176800D02*
X477800D01*
Y173300D02*
Y181600D01*
X455600Y176000D02*
X477800D01*
X455600Y177600D02*
X477800D01*
X455600Y178000D02*
X477800D01*
X455600Y177200D02*
X477800D01*
X455600Y174000D02*
X477800D01*
X455600Y174400D02*
X477800D01*
X455600Y173600D02*
X477800D01*
X455600Y175200D02*
X477800D01*
X455600Y175600D02*
X477800D01*
X455600Y174800D02*
X477800D01*
X455600Y180400D02*
X477800D01*
X455600Y180800D02*
X477800D01*
X455600Y180000D02*
X477800D01*
X455600Y181600D02*
X477800D01*
X455600Y182000D02*
X477788D01*
X455600Y181200D02*
X477800D01*
X455600Y178400D02*
X477800D01*
X455600Y173200D02*
X477794D01*
X455600Y172800D02*
X474156D01*
X455600Y179200D02*
X477800D01*
X455600Y179600D02*
X477800D01*
X455600Y178800D02*
X477800D01*
X475844Y172800D02*
X477625D01*
X476370Y172531D02*
X476685Y172524D01*
X455600Y172400D02*
X473453D01*
X455600Y172000D02*
X473063D01*
X472200Y165750D02*
X473394D01*
X455600Y169600D02*
X472721D01*
X455600Y171600D02*
X472811D01*
X455600Y171200D02*
X472652D01*
X455600Y170800D02*
X472568D01*
X455600Y164800D02*
X468720D01*
X455600Y164400D02*
X468117D01*
X455600Y170400D02*
X472552D01*
X455600Y165600D02*
X470774D01*
X455600Y165200D02*
X469511D01*
X463232Y159620D02*
X467356Y163744D01*
X461884Y159174D02*
X462194Y159215D01*
X461076Y159124D02*
X461884Y159174D01*
X455600Y164000D02*
X467627D01*
X460613Y159121D02*
X461076Y159124D01*
X455600Y168400D02*
X472684D01*
X455600Y168000D02*
X472583D01*
X455600Y167600D02*
X472550D01*
X455600Y169200D02*
X472923D01*
X455600Y170000D02*
X472602D01*
X455600Y168800D02*
X472864D01*
X455600Y166400D02*
X472864D01*
X455600Y166800D02*
X472684D01*
X455600Y166000D02*
X473145D01*
X455600Y167200D02*
X472583D01*
X432750Y163600D02*
X467212D01*
X432750Y163200D02*
X466813D01*
X432750Y162000D02*
X465613D01*
X432750Y161600D02*
X465212D01*
X432750Y161200D02*
X464813D01*
X432750Y162800D02*
X466412D01*
X432750Y163800D02*
X455600D01*
X432750Y162400D02*
X466012D01*
X432750Y159600D02*
X463197D01*
X432750Y159200D02*
X462081D01*
X432750Y158800D02*
X458963D01*
X432750Y160800D02*
X464412D01*
X432750Y160400D02*
X464012D01*
X432750Y160000D02*
X463613D01*
X432750Y157200D02*
X456868D01*
X432750Y156800D02*
X456608D01*
X432750Y152400D02*
X456499D01*
X432750Y158400D02*
X458155D01*
X432750Y158000D02*
X457608D01*
X432750Y157600D02*
X457194D01*
X433406Y150400D02*
X458509D01*
X432964Y150800D02*
X457860D01*
X434000Y150250D02*
X458837D01*
X432750Y151600D02*
X457021D01*
X432750Y152000D02*
X456730D01*
X432787Y151200D02*
X457388D01*
X432750Y155600D02*
X456124D01*
X432750Y155200D02*
X456044D01*
X432750Y154800D02*
X456001D01*
X432750Y156400D02*
X456402D01*
X432750Y156000D02*
X456243D01*
X432750Y151500D02*
Y163800D01*
Y152800D02*
X456317D01*
X432750Y153200D02*
X456179D01*
X432750Y154000D02*
X456018D01*
X432750Y154400D02*
X455992D01*
X432750Y153600D02*
X456080D01*
X540200Y179000D02*
X543400D01*
X539352Y178800D02*
X544148D01*
X539600Y178425D02*
X544581D01*
X538814Y178400D02*
X539600D01*
X538527Y178000D02*
X539600D01*
X538367Y177600D02*
X539600D01*
X538303Y177200D02*
X539600D01*
X538492Y169200D02*
X544900D01*
Y168600D02*
Y172775D01*
X538358Y169600D02*
X544900D01*
X538725Y168800D02*
X544900D01*
X539600Y172775D02*
Y178425D01*
Y172775D02*
X544900D01*
X539104Y168400D02*
X544871D01*
X540500Y167900D02*
X544200D01*
X539844Y168000D02*
X544561D01*
X538300Y174800D02*
X539600D01*
X538300Y174400D02*
X539600D01*
X538300Y173600D02*
X539600D01*
X538300Y173200D02*
X539600D01*
X538300Y174000D02*
X539600D01*
X538300Y176400D02*
X539600D01*
X538300Y176000D02*
X539600D01*
X538300Y176800D02*
X539600D01*
X538300Y175200D02*
X539600D01*
X538300Y175600D02*
X539600D01*
X538300Y171200D02*
X544900D01*
X538300Y170800D02*
X544900D01*
X538300Y171600D02*
X544900D01*
X538302Y170000D02*
X544900D01*
X538300Y170400D02*
X544900D01*
X538300Y172800D02*
X539600D01*
X538300Y172400D02*
X544900D01*
X538300Y170100D02*
Y177100D01*
Y172000D02*
X544900D01*
D61*
X477000Y170500D02*
G03*
X479800Y173300I0J2800D01*
G01*
X479706Y182859D02*
G03*
X471300Y190100I-8406J-1259D01*
G01*
X479800Y181600D02*
G03*
X479706Y182859I-8500J0D01*
G01*
X479800Y173300D02*
Y181600D01*
X475000Y170500D02*
X477000D01*
X475000Y167600D02*
Y170500D01*
X466900Y190100D02*
X471300D01*
X466900D02*
Y193100D01*
D62*
X606241Y224500D02*
X610587D01*
X614934D01*
X610587Y220153D02*
Y224500D01*
X600587D02*
X604934D01*
X596241D02*
X600587D01*
Y220153D02*
Y224500D01*
D63*
X609906Y171783D02*
D03*
X609906Y207216D02*
D03*
D64*
X626245Y207217D02*
D03*
X626245Y171784D02*
D03*
D65*
X611875Y200879D02*
D03*
Y178122D02*
D03*
D66*
X630587Y224500D02*
D03*
X570587Y154500D02*
D03*
D67*
X620587Y224500D02*
D03*
X610587D02*
D03*
X600587D02*
D03*
X590587D02*
D03*
X580587D02*
D03*
X570587D02*
D03*
X560587D02*
D03*
X550587D02*
D03*
X540587D02*
D03*
X530587D02*
D03*
X520587D02*
D03*
X510587D02*
D03*
X500587D02*
D03*
X490587D02*
D03*
X480587D02*
D03*
X470587D02*
D03*
X460587D02*
D03*
Y154500D02*
D03*
X470587D02*
D03*
X480587D02*
D03*
X490587D02*
D03*
X500587D02*
D03*
X510587D02*
D03*
X560587D02*
D03*
X550587D02*
D03*
X540587D02*
D03*
X530587D02*
D03*
X520587D02*
D03*
D68*
X581600Y152900D02*
D03*
X630700Y192600D02*
D03*
Y185400D02*
D03*
Y178400D02*
D03*
X583700Y182900D02*
D03*
X543700Y217500D02*
D03*
X541100D02*
D03*
X561000Y215900D02*
D03*
X586600Y207000D02*
D03*
X581600D02*
D03*
X557800Y215900D02*
D03*
X538500Y217500D02*
D03*
X624100Y158700D02*
D03*
Y153600D02*
D03*
X607700Y158800D02*
D03*
X596200Y160800D02*
D03*
X594700Y153600D02*
D03*
X524400Y176600D02*
D03*
X532700Y171800D02*
D03*
X557200Y177900D02*
D03*
X557100Y195000D02*
D03*
X560600D02*
D03*
X560700Y185400D02*
D03*
X557200D02*
D03*
X475300Y175700D02*
D03*
X472400D02*
D03*
X469500D02*
D03*
X466600D02*
D03*
X463700D02*
D03*
X460800D02*
D03*
X463700Y182100D02*
D03*
X460800D02*
D03*
X522500Y196800D02*
D03*
X535600Y207600D02*
D03*
X520000Y196800D02*
D03*
X442600Y155000D02*
D03*
X436300Y224700D02*
D03*
X442900D02*
D03*
X449200Y224600D02*
D03*
X448900Y154900D02*
D03*
X436000Y155000D02*
D03*
X463300Y169900D02*
D03*
Y164200D02*
D03*
X468600Y169900D02*
D03*
X456400Y161600D02*
D03*
X453500D02*
D03*
X450600D02*
D03*
X447700D02*
D03*
X444800D02*
D03*
X441900D02*
D03*
X439000D02*
D03*
X436100D02*
D03*
X456900Y217000D02*
D03*
X457900Y164100D02*
D03*
Y167000D02*
D03*
Y169900D02*
D03*
Y172800D02*
D03*
Y182200D02*
D03*
Y175700D02*
D03*
Y185100D02*
D03*
Y188000D02*
D03*
Y190900D02*
D03*
Y193700D02*
D03*
Y196600D02*
D03*
Y199500D02*
D03*
Y202400D02*
D03*
Y205300D02*
D03*
Y208200D02*
D03*
Y211100D02*
D03*
Y214000D02*
D03*
X453700Y217700D02*
D03*
X450800D02*
D03*
X447900D02*
D03*
X445000D02*
D03*
X442100Y217800D02*
D03*
X439200D02*
D03*
X436300D02*
D03*
X623800Y195600D02*
D03*
Y198400D02*
D03*
X596600D02*
D03*
X601200Y164200D02*
D03*
X514900Y189600D02*
D03*
X517100Y187100D02*
D03*
X508000Y196100D02*
D03*
X479700Y218900D02*
D03*
X525000Y182600D02*
D03*
X537200Y203300D02*
D03*
X535300Y167900D02*
D03*
X512600Y191900D02*
D03*
X510300Y194100D02*
D03*
X513400Y179000D02*
D03*
X510400D02*
D03*
X507400D02*
D03*
X504400D02*
D03*
X498900D02*
D03*
X495500D02*
D03*
X486600Y179700D02*
D03*
X482700D02*
D03*
X516600Y206600D02*
D03*
X534100Y203300D02*
D03*
X516600Y209600D02*
D03*
X470600Y211000D02*
D03*
X552000Y210000D02*
D03*
X546800D02*
D03*
X557200Y181200D02*
D03*
X464100Y210400D02*
D03*
Y206700D02*
D03*
Y200800D02*
D03*
Y197100D02*
D03*
X466900Y193100D02*
D03*
Y190100D02*
D03*
X475000Y170500D02*
D03*
Y167600D02*
D03*
X611400Y153500D02*
D03*
X590700Y160700D02*
D03*
X591600Y198300D02*
D03*
X586600D02*
D03*
X543600Y169000D02*
D03*
X541000D02*
D03*
X602800Y207200D02*
D03*
X556200Y172800D02*
D03*
D69*
X484627Y193084D02*
D03*
Y200959D02*
D03*
X480691Y200959D02*
D03*
X488565D02*
D03*
X488564Y197022D02*
D03*
X480690Y193084D02*
D03*
X488564D02*
D03*
X480690Y197022D02*
D03*
X484627D02*
D03*
M02*
