G04*
G04 #@! TF.GenerationSoftware,Altium Limited,Altium Designer,21.8.1 (53)*
G04*
G04 Layer_Color=2752767*
%FSLAX25Y25*%
%MOIN*%
G70*
G04*
G04 #@! TF.SameCoordinates,F7FF72C4-72FB-41D8-A861-7DFCE6F03B73*
G04*
G04*
G04 #@! TF.FilePolarity,Positive*
G04*
G01*
G75*
%ADD75C,0.00200*%
%ADD76C,0.00267*%
D75*
X609106Y170983D02*
Y172583D01*
X610706D01*
Y170983D01*
X609106D01*
Y206417D02*
Y208017D01*
X610706D01*
Y206417D01*
X609106D01*
X611875Y200079D02*
X611075Y201678D01*
X612675D01*
X611875Y200079D01*
Y177322D02*
X611075Y178922D01*
X612675D01*
X611875Y177322D01*
X630587Y223700D02*
X630987Y224100D01*
X631387D01*
X630987Y224500D01*
X631387Y224900D01*
X630987D01*
X630587Y225300D01*
X630187Y224900D01*
X629787D01*
X630187Y224500D01*
X629787Y224100D01*
X630187D01*
X630587Y223700D01*
X620587D02*
X620987Y224100D01*
X621387D01*
X620987Y224500D01*
X621387Y224900D01*
X620987D01*
X620587Y225300D01*
X620187Y224900D01*
X619787D01*
X620187Y224500D01*
X619787Y224100D01*
X620187D01*
X620587Y223700D01*
X610587D02*
X610987Y224100D01*
X611387D01*
X610987Y224500D01*
X611387Y224900D01*
X610987D01*
X610587Y225300D01*
X610187Y224900D01*
X609787D01*
X610187Y224500D01*
X609787Y224100D01*
X610187D01*
X610587Y223700D01*
X600587D02*
X600987Y224100D01*
X601387D01*
X600987Y224500D01*
X601387Y224900D01*
X600987D01*
X600587Y225300D01*
X600187Y224900D01*
X599787D01*
X600187Y224500D01*
X599787Y224100D01*
X600187D01*
X600587Y223700D01*
X590587D02*
X590987Y224100D01*
X591387D01*
X590987Y224500D01*
X591387Y224900D01*
X590987D01*
X590587Y225300D01*
X590187Y224900D01*
X589787D01*
X590187Y224500D01*
X589787Y224100D01*
X590187D01*
X590587Y223700D01*
X580587D02*
X580987Y224100D01*
X581387D01*
X580987Y224500D01*
X581387Y224900D01*
X580987D01*
X580587Y225300D01*
X580187Y224900D01*
X579787D01*
X580187Y224500D01*
X579787Y224100D01*
X580187D01*
X580587Y223700D01*
X570587D02*
X570987Y224100D01*
X571387D01*
X570987Y224500D01*
X571387Y224900D01*
X570987D01*
X570587Y225300D01*
X570187Y224900D01*
X569787D01*
X570187Y224500D01*
X569787Y224100D01*
X570187D01*
X570587Y223700D01*
X560587D02*
X560987Y224100D01*
X561387D01*
X560987Y224500D01*
X561387Y224900D01*
X560987D01*
X560587Y225300D01*
X560187Y224900D01*
X559787D01*
X560187Y224500D01*
X559787Y224100D01*
X560187D01*
X560587Y223700D01*
X550587D02*
X550987Y224100D01*
X551387D01*
X550987Y224500D01*
X551387Y224900D01*
X550987D01*
X550587Y225300D01*
X550187Y224900D01*
X549787D01*
X550187Y224500D01*
X549787Y224100D01*
X550187D01*
X550587Y223700D01*
X540587D02*
X540987Y224100D01*
X541387D01*
X540987Y224500D01*
X541387Y224900D01*
X540987D01*
X540587Y225300D01*
X540187Y224900D01*
X539787D01*
X540187Y224500D01*
X539787Y224100D01*
X540187D01*
X540587Y223700D01*
X530587D02*
X530987Y224100D01*
X531387D01*
X530987Y224500D01*
X531387Y224900D01*
X530987D01*
X530587Y225300D01*
X530187Y224900D01*
X529787D01*
X530187Y224500D01*
X529787Y224100D01*
X530187D01*
X530587Y223700D01*
X520587D02*
X520987Y224100D01*
X521387D01*
X520987Y224500D01*
X521387Y224900D01*
X520987D01*
X520587Y225300D01*
X520187Y224900D01*
X519787D01*
X520187Y224500D01*
X519787Y224100D01*
X520187D01*
X520587Y223700D01*
X510587D02*
X510987Y224100D01*
X511387D01*
X510987Y224500D01*
X511387Y224900D01*
X510987D01*
X510587Y225300D01*
X510187Y224900D01*
X509787D01*
X510187Y224500D01*
X509787Y224100D01*
X510187D01*
X510587Y223700D01*
X500587D02*
X500987Y224100D01*
X501387D01*
X500987Y224500D01*
X501387Y224900D01*
X500987D01*
X500587Y225300D01*
X500187Y224900D01*
X499787D01*
X500187Y224500D01*
X499787Y224100D01*
X500187D01*
X500587Y223700D01*
X490587D02*
X490987Y224100D01*
X491387D01*
X490987Y224500D01*
X491387Y224900D01*
X490987D01*
X490587Y225300D01*
X490187Y224900D01*
X489787D01*
X490187Y224500D01*
X489787Y224100D01*
X490187D01*
X490587Y223700D01*
X480587D02*
X480987Y224100D01*
X481387D01*
X480987Y224500D01*
X481387Y224900D01*
X480987D01*
X480587Y225300D01*
X480187Y224900D01*
X479787D01*
X480187Y224500D01*
X479787Y224100D01*
X480187D01*
X480587Y223700D01*
X470587D02*
X470987Y224100D01*
X471387D01*
X470987Y224500D01*
X471387Y224900D01*
X470987D01*
X470587Y225300D01*
X470187Y224900D01*
X469787D01*
X470187Y224500D01*
X469787Y224100D01*
X470187D01*
X470587Y223700D01*
X460587D02*
X460987Y224100D01*
X461387D01*
X460987Y224500D01*
X461387Y224900D01*
X460987D01*
X460587Y225300D01*
X460187Y224900D01*
X459787D01*
X460187Y224500D01*
X459787Y224100D01*
X460187D01*
X460587Y223700D01*
Y153700D02*
X460987Y154100D01*
X461387D01*
X460987Y154500D01*
X461387Y154900D01*
X460987D01*
X460587Y155300D01*
X460187Y154900D01*
X459787D01*
X460187Y154500D01*
X459787Y154100D01*
X460187D01*
X460587Y153700D01*
X470587D02*
X470987Y154100D01*
X471387D01*
X470987Y154500D01*
X471387Y154900D01*
X470987D01*
X470587Y155300D01*
X470187Y154900D01*
X469787D01*
X470187Y154500D01*
X469787Y154100D01*
X470187D01*
X470587Y153700D01*
X480587D02*
X480987Y154100D01*
X481387D01*
X480987Y154500D01*
X481387Y154900D01*
X480987D01*
X480587Y155300D01*
X480187Y154900D01*
X479787D01*
X480187Y154500D01*
X479787Y154100D01*
X480187D01*
X480587Y153700D01*
X490587D02*
X490987Y154100D01*
X491387D01*
X490987Y154500D01*
X491387Y154900D01*
X490987D01*
X490587Y155300D01*
X490187Y154900D01*
X489787D01*
X490187Y154500D01*
X489787Y154100D01*
X490187D01*
X490587Y153700D01*
X500587D02*
X500987Y154100D01*
X501387D01*
X500987Y154500D01*
X501387Y154900D01*
X500987D01*
X500587Y155300D01*
X500187Y154900D01*
X499787D01*
X500187Y154500D01*
X499787Y154100D01*
X500187D01*
X500587Y153700D01*
X510587D02*
X510987Y154100D01*
X511387D01*
X510987Y154500D01*
X511387Y154900D01*
X510987D01*
X510587Y155300D01*
X510187Y154900D01*
X509787D01*
X510187Y154500D01*
X509787Y154100D01*
X510187D01*
X510587Y153700D01*
X570587D02*
X570987Y154100D01*
X571387D01*
X570987Y154500D01*
X571387Y154900D01*
X570987D01*
X570587Y155300D01*
X570187Y154900D01*
X569787D01*
X570187Y154500D01*
X569787Y154100D01*
X570187D01*
X570587Y153700D01*
X560587D02*
X560987Y154100D01*
X561387D01*
X560987Y154500D01*
X561387Y154900D01*
X560987D01*
X560587Y155300D01*
X560187Y154900D01*
X559787D01*
X560187Y154500D01*
X559787Y154100D01*
X560187D01*
X560587Y153700D01*
X550587D02*
X550987Y154100D01*
X551387D01*
X550987Y154500D01*
X551387Y154900D01*
X550987D01*
X550587Y155300D01*
X550187Y154900D01*
X549787D01*
X550187Y154500D01*
X549787Y154100D01*
X550187D01*
X550587Y153700D01*
X540587D02*
X540987Y154100D01*
X541387D01*
X540987Y154500D01*
X541387Y154900D01*
X540987D01*
X540587Y155300D01*
X540187Y154900D01*
X539787D01*
X540187Y154500D01*
X539787Y154100D01*
X540187D01*
X540587Y153700D01*
X530587D02*
X530987Y154100D01*
X531387D01*
X530987Y154500D01*
X531387Y154900D01*
X530987D01*
X530587Y155300D01*
X530187Y154900D01*
X529787D01*
X530187Y154500D01*
X529787Y154100D01*
X530187D01*
X530587Y153700D01*
X520587D02*
X520987Y154100D01*
X521387D01*
X520987Y154500D01*
X521387Y154900D01*
X520987D01*
X520587Y155300D01*
X520187Y154900D01*
X519787D01*
X520187Y154500D01*
X519787Y154100D01*
X520187D01*
X520587Y153700D01*
X580800Y152100D02*
X581200Y152900D01*
X580800Y153700D01*
X581600Y153300D01*
X582400Y153700D01*
X582000Y152900D01*
X582400Y152100D01*
X581600Y152500D01*
X580800Y152100D01*
X629900Y191800D02*
X630300Y192600D01*
X629900Y193400D01*
X630700Y193000D01*
X631500Y193400D01*
X631100Y192600D01*
X631500Y191800D01*
X630700Y192200D01*
X629900Y191800D01*
Y184600D02*
X630300Y185400D01*
X629900Y186200D01*
X630700Y185800D01*
X631500Y186200D01*
X631100Y185400D01*
X631500Y184600D01*
X630700Y185000D01*
X629900Y184600D01*
Y177600D02*
X630300Y178400D01*
X629900Y179200D01*
X630700Y178800D01*
X631500Y179200D01*
X631100Y178400D01*
X631500Y177600D01*
X630700Y178000D01*
X629900Y177600D01*
X582900Y182100D02*
X583300Y182900D01*
X582900Y183700D01*
X583700Y183300D01*
X584500Y183700D01*
X584100Y182900D01*
X584500Y182100D01*
X583700Y182500D01*
X582900Y182100D01*
X542900Y216700D02*
X543300Y217500D01*
X542900Y218300D01*
X543700Y217900D01*
X544500Y218300D01*
X544100Y217500D01*
X544500Y216700D01*
X543700Y217100D01*
X542900Y216700D01*
X540300D02*
X540700Y217500D01*
X540300Y218300D01*
X541100Y217900D01*
X541900Y218300D01*
X541500Y217500D01*
X541900Y216700D01*
X541100Y217100D01*
X540300Y216700D01*
X560200Y215100D02*
X560600Y215900D01*
X560200Y216700D01*
X561000Y216300D01*
X561800Y216700D01*
X561400Y215900D01*
X561800Y215100D01*
X561000Y215500D01*
X560200Y215100D01*
X585800Y206200D02*
X586200Y207000D01*
X585800Y207800D01*
X586600Y207400D01*
X587400Y207800D01*
X587000Y207000D01*
X587400Y206200D01*
X586600Y206600D01*
X585800Y206200D01*
X580800D02*
X581200Y207000D01*
X580800Y207800D01*
X581600Y207400D01*
X582400Y207800D01*
X582000Y207000D01*
X582400Y206200D01*
X581600Y206600D01*
X580800Y206200D01*
X557000Y215100D02*
X557400Y215900D01*
X557000Y216700D01*
X557800Y216300D01*
X558600Y216700D01*
X558200Y215900D01*
X558600Y215100D01*
X557800Y215500D01*
X557000Y215100D01*
X537700Y216700D02*
X538100Y217500D01*
X537700Y218300D01*
X538500Y217900D01*
X539300Y218300D01*
X538900Y217500D01*
X539300Y216700D01*
X538500Y217100D01*
X537700Y216700D01*
X623300Y157900D02*
X623700Y158700D01*
X623300Y159500D01*
X624100Y159100D01*
X624900Y159500D01*
X624500Y158700D01*
X624900Y157900D01*
X624100Y158300D01*
X623300Y157900D01*
Y152800D02*
X623700Y153600D01*
X623300Y154400D01*
X624100Y154000D01*
X624900Y154400D01*
X624500Y153600D01*
X624900Y152800D01*
X624100Y153200D01*
X623300Y152800D01*
X606900Y158000D02*
X607300Y158800D01*
X606900Y159600D01*
X607700Y159200D01*
X608500Y159600D01*
X608100Y158800D01*
X608500Y158000D01*
X607700Y158400D01*
X606900Y158000D01*
X595400Y160000D02*
X595800Y160800D01*
X595400Y161600D01*
X596200Y161200D01*
X597000Y161600D01*
X596600Y160800D01*
X597000Y160000D01*
X596200Y160400D01*
X595400Y160000D01*
X593900Y152800D02*
X594300Y153600D01*
X593900Y154400D01*
X594700Y154000D01*
X595500Y154400D01*
X595100Y153600D01*
X595500Y152800D01*
X594700Y153200D01*
X593900Y152800D01*
X523600Y175800D02*
X524000Y176600D01*
X523600Y177400D01*
X524400Y177000D01*
X525200Y177400D01*
X524800Y176600D01*
X525200Y175800D01*
X524400Y176200D01*
X523600Y175800D01*
X531900Y171000D02*
X532300Y171800D01*
X531900Y172600D01*
X532700Y172200D01*
X533500Y172600D01*
X533100Y171800D01*
X533500Y171000D01*
X532700Y171400D01*
X531900Y171000D01*
X556400Y177100D02*
X556800Y177900D01*
X556400Y178700D01*
X557200Y178300D01*
X558000Y178700D01*
X557600Y177900D01*
X558000Y177100D01*
X557200Y177500D01*
X556400Y177100D01*
X556300Y194200D02*
X556700Y195000D01*
X556300Y195800D01*
X557100Y195400D01*
X557900Y195800D01*
X557500Y195000D01*
X557900Y194200D01*
X557100Y194600D01*
X556300Y194200D01*
X559800D02*
X560200Y195000D01*
X559800Y195800D01*
X560600Y195400D01*
X561400Y195800D01*
X561000Y195000D01*
X561400Y194200D01*
X560600Y194600D01*
X559800Y194200D01*
X559900Y184600D02*
X560300Y185400D01*
X559900Y186200D01*
X560700Y185800D01*
X561500Y186200D01*
X561100Y185400D01*
X561500Y184600D01*
X560700Y185000D01*
X559900Y184600D01*
X556400D02*
X556800Y185400D01*
X556400Y186200D01*
X557200Y185800D01*
X558000Y186200D01*
X557600Y185400D01*
X558000Y184600D01*
X557200Y185000D01*
X556400Y184600D01*
X474500Y174900D02*
X474900Y175700D01*
X474500Y176500D01*
X475300Y176100D01*
X476100Y176500D01*
X475700Y175700D01*
X476100Y174900D01*
X475300Y175300D01*
X474500Y174900D01*
X471600D02*
X472000Y175700D01*
X471600Y176500D01*
X472400Y176100D01*
X473200Y176500D01*
X472800Y175700D01*
X473200Y174900D01*
X472400Y175300D01*
X471600Y174900D01*
X468700D02*
X469100Y175700D01*
X468700Y176500D01*
X469500Y176100D01*
X470300Y176500D01*
X469900Y175700D01*
X470300Y174900D01*
X469500Y175300D01*
X468700Y174900D01*
X465800D02*
X466200Y175700D01*
X465800Y176500D01*
X466600Y176100D01*
X467400Y176500D01*
X467000Y175700D01*
X467400Y174900D01*
X466600Y175300D01*
X465800Y174900D01*
X462900D02*
X463300Y175700D01*
X462900Y176500D01*
X463700Y176100D01*
X464500Y176500D01*
X464100Y175700D01*
X464500Y174900D01*
X463700Y175300D01*
X462900Y174900D01*
X460000D02*
X460400Y175700D01*
X460000Y176500D01*
X460800Y176100D01*
X461600Y176500D01*
X461200Y175700D01*
X461600Y174900D01*
X460800Y175300D01*
X460000Y174900D01*
X462900Y181300D02*
X463300Y182100D01*
X462900Y182900D01*
X463700Y182500D01*
X464500Y182900D01*
X464100Y182100D01*
X464500Y181300D01*
X463700Y181700D01*
X462900Y181300D01*
X460000D02*
X460400Y182100D01*
X460000Y182900D01*
X460800Y182500D01*
X461600Y182900D01*
X461200Y182100D01*
X461600Y181300D01*
X460800Y181700D01*
X460000Y181300D01*
X521700Y196000D02*
X522100Y196800D01*
X521700Y197600D01*
X522500Y197200D01*
X523300Y197600D01*
X522900Y196800D01*
X523300Y196000D01*
X522500Y196400D01*
X521700Y196000D01*
X534800Y206800D02*
X535200Y207600D01*
X534800Y208400D01*
X535600Y208000D01*
X536400Y208400D01*
X536000Y207600D01*
X536400Y206800D01*
X535600Y207200D01*
X534800Y206800D01*
X519200Y196000D02*
X519600Y196800D01*
X519200Y197600D01*
X520000Y197200D01*
X520800Y197600D01*
X520400Y196800D01*
X520800Y196000D01*
X520000Y196400D01*
X519200Y196000D01*
X441800Y154200D02*
X442200Y155000D01*
X441800Y155800D01*
X442600Y155400D01*
X443400Y155800D01*
X443000Y155000D01*
X443400Y154200D01*
X442600Y154600D01*
X441800Y154200D01*
X435500Y223900D02*
X435900Y224700D01*
X435500Y225500D01*
X436300Y225100D01*
X437100Y225500D01*
X436700Y224700D01*
X437100Y223900D01*
X436300Y224300D01*
X435500Y223900D01*
X442100D02*
X442500Y224700D01*
X442100Y225500D01*
X442900Y225100D01*
X443700Y225500D01*
X443300Y224700D01*
X443700Y223900D01*
X442900Y224300D01*
X442100Y223900D01*
X448400Y223800D02*
X448800Y224600D01*
X448400Y225400D01*
X449200Y225000D01*
X450000Y225400D01*
X449600Y224600D01*
X450000Y223800D01*
X449200Y224200D01*
X448400Y223800D01*
X448100Y154100D02*
X448500Y154900D01*
X448100Y155700D01*
X448900Y155300D01*
X449700Y155700D01*
X449300Y154900D01*
X449700Y154100D01*
X448900Y154500D01*
X448100Y154100D01*
X435200Y154200D02*
X435600Y155000D01*
X435200Y155800D01*
X436000Y155400D01*
X436800Y155800D01*
X436400Y155000D01*
X436800Y154200D01*
X436000Y154600D01*
X435200Y154200D01*
X462500Y169100D02*
X462900Y169900D01*
X462500Y170700D01*
X463300Y170300D01*
X464100Y170700D01*
X463700Y169900D01*
X464100Y169100D01*
X463300Y169500D01*
X462500Y169100D01*
Y163400D02*
X462900Y164200D01*
X462500Y165000D01*
X463300Y164600D01*
X464100Y165000D01*
X463700Y164200D01*
X464100Y163400D01*
X463300Y163800D01*
X462500Y163400D01*
X467800Y169100D02*
X468200Y169900D01*
X467800Y170700D01*
X468600Y170300D01*
X469400Y170700D01*
X469000Y169900D01*
X469400Y169100D01*
X468600Y169500D01*
X467800Y169100D01*
X455600Y160800D02*
X456000Y161600D01*
X455600Y162400D01*
X456400Y162000D01*
X457200Y162400D01*
X456800Y161600D01*
X457200Y160800D01*
X456400Y161200D01*
X455600Y160800D01*
X452700D02*
X453100Y161600D01*
X452700Y162400D01*
X453500Y162000D01*
X454300Y162400D01*
X453900Y161600D01*
X454300Y160800D01*
X453500Y161200D01*
X452700Y160800D01*
X449800D02*
X450200Y161600D01*
X449800Y162400D01*
X450600Y162000D01*
X451400Y162400D01*
X451000Y161600D01*
X451400Y160800D01*
X450600Y161200D01*
X449800Y160800D01*
X446900D02*
X447300Y161600D01*
X446900Y162400D01*
X447700Y162000D01*
X448500Y162400D01*
X448100Y161600D01*
X448500Y160800D01*
X447700Y161200D01*
X446900Y160800D01*
X444000D02*
X444400Y161600D01*
X444000Y162400D01*
X444800Y162000D01*
X445600Y162400D01*
X445200Y161600D01*
X445600Y160800D01*
X444800Y161200D01*
X444000Y160800D01*
X441100D02*
X441500Y161600D01*
X441100Y162400D01*
X441900Y162000D01*
X442700Y162400D01*
X442300Y161600D01*
X442700Y160800D01*
X441900Y161200D01*
X441100Y160800D01*
X438200D02*
X438600Y161600D01*
X438200Y162400D01*
X439000Y162000D01*
X439800Y162400D01*
X439400Y161600D01*
X439800Y160800D01*
X439000Y161200D01*
X438200Y160800D01*
X435300D02*
X435700Y161600D01*
X435300Y162400D01*
X436100Y162000D01*
X436900Y162400D01*
X436500Y161600D01*
X436900Y160800D01*
X436100Y161200D01*
X435300Y160800D01*
X456100Y216200D02*
X456500Y217000D01*
X456100Y217800D01*
X456900Y217400D01*
X457700Y217800D01*
X457300Y217000D01*
X457700Y216200D01*
X456900Y216600D01*
X456100Y216200D01*
X457100Y163300D02*
X457500Y164100D01*
X457100Y164900D01*
X457900Y164500D01*
X458700Y164900D01*
X458300Y164100D01*
X458700Y163300D01*
X457900Y163700D01*
X457100Y163300D01*
Y166200D02*
X457500Y167000D01*
X457100Y167800D01*
X457900Y167400D01*
X458700Y167800D01*
X458300Y167000D01*
X458700Y166200D01*
X457900Y166600D01*
X457100Y166200D01*
Y169100D02*
X457500Y169900D01*
X457100Y170700D01*
X457900Y170300D01*
X458700Y170700D01*
X458300Y169900D01*
X458700Y169100D01*
X457900Y169500D01*
X457100Y169100D01*
Y172000D02*
X457500Y172800D01*
X457100Y173600D01*
X457900Y173200D01*
X458700Y173600D01*
X458300Y172800D01*
X458700Y172000D01*
X457900Y172400D01*
X457100Y172000D01*
Y181400D02*
X457500Y182200D01*
X457100Y183000D01*
X457900Y182600D01*
X458700Y183000D01*
X458300Y182200D01*
X458700Y181400D01*
X457900Y181800D01*
X457100Y181400D01*
Y174900D02*
X457500Y175700D01*
X457100Y176500D01*
X457900Y176100D01*
X458700Y176500D01*
X458300Y175700D01*
X458700Y174900D01*
X457900Y175300D01*
X457100Y174900D01*
Y184300D02*
X457500Y185100D01*
X457100Y185900D01*
X457900Y185500D01*
X458700Y185900D01*
X458300Y185100D01*
X458700Y184300D01*
X457900Y184700D01*
X457100Y184300D01*
Y187200D02*
X457500Y188000D01*
X457100Y188800D01*
X457900Y188400D01*
X458700Y188800D01*
X458300Y188000D01*
X458700Y187200D01*
X457900Y187600D01*
X457100Y187200D01*
Y190100D02*
X457500Y190900D01*
X457100Y191700D01*
X457900Y191300D01*
X458700Y191700D01*
X458300Y190900D01*
X458700Y190100D01*
X457900Y190500D01*
X457100Y190100D01*
Y192900D02*
X457500Y193700D01*
X457100Y194500D01*
X457900Y194100D01*
X458700Y194500D01*
X458300Y193700D01*
X458700Y192900D01*
X457900Y193300D01*
X457100Y192900D01*
Y195800D02*
X457500Y196600D01*
X457100Y197400D01*
X457900Y197000D01*
X458700Y197400D01*
X458300Y196600D01*
X458700Y195800D01*
X457900Y196200D01*
X457100Y195800D01*
Y198700D02*
X457500Y199500D01*
X457100Y200300D01*
X457900Y199900D01*
X458700Y200300D01*
X458300Y199500D01*
X458700Y198700D01*
X457900Y199100D01*
X457100Y198700D01*
Y201600D02*
X457500Y202400D01*
X457100Y203200D01*
X457900Y202800D01*
X458700Y203200D01*
X458300Y202400D01*
X458700Y201600D01*
X457900Y202000D01*
X457100Y201600D01*
Y204500D02*
X457500Y205300D01*
X457100Y206100D01*
X457900Y205700D01*
X458700Y206100D01*
X458300Y205300D01*
X458700Y204500D01*
X457900Y204900D01*
X457100Y204500D01*
Y207400D02*
X457500Y208200D01*
X457100Y209000D01*
X457900Y208600D01*
X458700Y209000D01*
X458300Y208200D01*
X458700Y207400D01*
X457900Y207800D01*
X457100Y207400D01*
Y210300D02*
X457500Y211100D01*
X457100Y211900D01*
X457900Y211500D01*
X458700Y211900D01*
X458300Y211100D01*
X458700Y210300D01*
X457900Y210700D01*
X457100Y210300D01*
Y213200D02*
X457500Y214000D01*
X457100Y214800D01*
X457900Y214400D01*
X458700Y214800D01*
X458300Y214000D01*
X458700Y213200D01*
X457900Y213600D01*
X457100Y213200D01*
X452900Y216900D02*
X453300Y217700D01*
X452900Y218500D01*
X453700Y218100D01*
X454500Y218500D01*
X454100Y217700D01*
X454500Y216900D01*
X453700Y217300D01*
X452900Y216900D01*
X450000D02*
X450400Y217700D01*
X450000Y218500D01*
X450800Y218100D01*
X451600Y218500D01*
X451200Y217700D01*
X451600Y216900D01*
X450800Y217300D01*
X450000Y216900D01*
X447100D02*
X447500Y217700D01*
X447100Y218500D01*
X447900Y218100D01*
X448700Y218500D01*
X448300Y217700D01*
X448700Y216900D01*
X447900Y217300D01*
X447100Y216900D01*
X444200D02*
X444600Y217700D01*
X444200Y218500D01*
X445000Y218100D01*
X445800Y218500D01*
X445400Y217700D01*
X445800Y216900D01*
X445000Y217300D01*
X444200Y216900D01*
X441300Y217000D02*
X441700Y217800D01*
X441300Y218600D01*
X442100Y218200D01*
X442900Y218600D01*
X442500Y217800D01*
X442900Y217000D01*
X442100Y217400D01*
X441300Y217000D01*
X438400D02*
X438800Y217800D01*
X438400Y218600D01*
X439200Y218200D01*
X440000Y218600D01*
X439600Y217800D01*
X440000Y217000D01*
X439200Y217400D01*
X438400Y217000D01*
X435500D02*
X435900Y217800D01*
X435500Y218600D01*
X436300Y218200D01*
X437100Y218600D01*
X436700Y217800D01*
X437100Y217000D01*
X436300Y217400D01*
X435500Y217000D01*
X623000Y194800D02*
X623400Y195600D01*
X623000Y196400D01*
X623800Y196000D01*
X624600Y196400D01*
X624200Y195600D01*
X624600Y194800D01*
X623800Y195200D01*
X623000Y194800D01*
Y197600D02*
X623400Y198400D01*
X623000Y199200D01*
X623800Y198800D01*
X624600Y199200D01*
X624200Y198400D01*
X624600Y197600D01*
X623800Y198000D01*
X623000Y197600D01*
X595800D02*
X596200Y198400D01*
X595800Y199200D01*
X596600Y198800D01*
X597400Y199200D01*
X597000Y198400D01*
X597400Y197600D01*
X596600Y198000D01*
X595800Y197600D01*
X600400Y163400D02*
X600800Y164200D01*
X600400Y165000D01*
X601200Y164600D01*
X602000Y165000D01*
X601600Y164200D01*
X602000Y163400D01*
X601200Y163800D01*
X600400Y163400D01*
X514100Y188800D02*
X514500Y189600D01*
X514100Y190400D01*
X514900Y190000D01*
X515700Y190400D01*
X515300Y189600D01*
X515700Y188800D01*
X514900Y189200D01*
X514100Y188800D01*
X516300Y186300D02*
X516700Y187100D01*
X516300Y187900D01*
X517100Y187500D01*
X517900Y187900D01*
X517500Y187100D01*
X517900Y186300D01*
X517100Y186700D01*
X516300Y186300D01*
X507200Y195300D02*
X507600Y196100D01*
X507200Y196900D01*
X508000Y196500D01*
X508800Y196900D01*
X508400Y196100D01*
X508800Y195300D01*
X508000Y195700D01*
X507200Y195300D01*
X478900Y218100D02*
X479300Y218900D01*
X478900Y219700D01*
X479700Y219300D01*
X480500Y219700D01*
X480100Y218900D01*
X480500Y218100D01*
X479700Y218500D01*
X478900Y218100D01*
X524200Y181800D02*
X524600Y182600D01*
X524200Y183400D01*
X525000Y183000D01*
X525800Y183400D01*
X525400Y182600D01*
X525800Y181800D01*
X525000Y182200D01*
X524200Y181800D01*
X536400Y202500D02*
X536800Y203300D01*
X536400Y204100D01*
X537200Y203700D01*
X538000Y204100D01*
X537600Y203300D01*
X538000Y202500D01*
X537200Y202900D01*
X536400Y202500D01*
X534500Y167100D02*
X534900Y167900D01*
X534500Y168700D01*
X535300Y168300D01*
X536100Y168700D01*
X535700Y167900D01*
X536100Y167100D01*
X535300Y167500D01*
X534500Y167100D01*
X511800Y191100D02*
X512200Y191900D01*
X511800Y192700D01*
X512600Y192300D01*
X513400Y192700D01*
X513000Y191900D01*
X513400Y191100D01*
X512600Y191500D01*
X511800Y191100D01*
X509500Y193300D02*
X509900Y194100D01*
X509500Y194900D01*
X510300Y194500D01*
X511100Y194900D01*
X510700Y194100D01*
X511100Y193300D01*
X510300Y193700D01*
X509500Y193300D01*
X512600Y178200D02*
X513000Y179000D01*
X512600Y179800D01*
X513400Y179400D01*
X514200Y179800D01*
X513800Y179000D01*
X514200Y178200D01*
X513400Y178600D01*
X512600Y178200D01*
X509600D02*
X510000Y179000D01*
X509600Y179800D01*
X510400Y179400D01*
X511200Y179800D01*
X510800Y179000D01*
X511200Y178200D01*
X510400Y178600D01*
X509600Y178200D01*
X506600D02*
X507000Y179000D01*
X506600Y179800D01*
X507400Y179400D01*
X508200Y179800D01*
X507800Y179000D01*
X508200Y178200D01*
X507400Y178600D01*
X506600Y178200D01*
X503600D02*
X504000Y179000D01*
X503600Y179800D01*
X504400Y179400D01*
X505200Y179800D01*
X504800Y179000D01*
X505200Y178200D01*
X504400Y178600D01*
X503600Y178200D01*
X498100D02*
X498500Y179000D01*
X498100Y179800D01*
X498900Y179400D01*
X499700Y179800D01*
X499300Y179000D01*
X499700Y178200D01*
X498900Y178600D01*
X498100Y178200D01*
X494700D02*
X495100Y179000D01*
X494700Y179800D01*
X495500Y179400D01*
X496300Y179800D01*
X495900Y179000D01*
X496300Y178200D01*
X495500Y178600D01*
X494700Y178200D01*
X485800Y178900D02*
X486200Y179700D01*
X485800Y180500D01*
X486600Y180100D01*
X487400Y180500D01*
X487000Y179700D01*
X487400Y178900D01*
X486600Y179300D01*
X485800Y178900D01*
X481900D02*
X482300Y179700D01*
X481900Y180500D01*
X482700Y180100D01*
X483500Y180500D01*
X483100Y179700D01*
X483500Y178900D01*
X482700Y179300D01*
X481900Y178900D01*
X515800Y205800D02*
X516200Y206600D01*
X515800Y207400D01*
X516600Y207000D01*
X517400Y207400D01*
X517000Y206600D01*
X517400Y205800D01*
X516600Y206200D01*
X515800Y205800D01*
X533300Y202500D02*
X533700Y203300D01*
X533300Y204100D01*
X534100Y203700D01*
X534900Y204100D01*
X534500Y203300D01*
X534900Y202500D01*
X534100Y202900D01*
X533300Y202500D01*
X515800Y208800D02*
X516200Y209600D01*
X515800Y210400D01*
X516600Y210000D01*
X517400Y210400D01*
X517000Y209600D01*
X517400Y208800D01*
X516600Y209200D01*
X515800Y208800D01*
X469800Y210200D02*
X470200Y211000D01*
X469800Y211800D01*
X470600Y211400D01*
X471400Y211800D01*
X471000Y211000D01*
X471400Y210200D01*
X470600Y210600D01*
X469800Y210200D01*
X551200Y209200D02*
X551600Y210000D01*
X551200Y210800D01*
X552000Y210400D01*
X552800Y210800D01*
X552400Y210000D01*
X552800Y209200D01*
X552000Y209600D01*
X551200Y209200D01*
X546000D02*
X546400Y210000D01*
X546000Y210800D01*
X546800Y210400D01*
X547600Y210800D01*
X547200Y210000D01*
X547600Y209200D01*
X546800Y209600D01*
X546000Y209200D01*
X556400Y180400D02*
X556800Y181200D01*
X556400Y182000D01*
X557200Y181600D01*
X558000Y182000D01*
X557600Y181200D01*
X558000Y180400D01*
X557200Y180800D01*
X556400Y180400D01*
X463300Y209600D02*
X463700Y210400D01*
X463300Y211200D01*
X464100Y210800D01*
X464900Y211200D01*
X464500Y210400D01*
X464900Y209600D01*
X464100Y210000D01*
X463300Y209600D01*
Y205900D02*
X463700Y206700D01*
X463300Y207500D01*
X464100Y207100D01*
X464900Y207500D01*
X464500Y206700D01*
X464900Y205900D01*
X464100Y206300D01*
X463300Y205900D01*
Y200000D02*
X463700Y200800D01*
X463300Y201600D01*
X464100Y201200D01*
X464900Y201600D01*
X464500Y200800D01*
X464900Y200000D01*
X464100Y200400D01*
X463300Y200000D01*
Y196300D02*
X463700Y197100D01*
X463300Y197900D01*
X464100Y197500D01*
X464900Y197900D01*
X464500Y197100D01*
X464900Y196300D01*
X464100Y196700D01*
X463300Y196300D01*
X466100Y192300D02*
X466500Y193100D01*
X466100Y193900D01*
X466900Y193500D01*
X467700Y193900D01*
X467300Y193100D01*
X467700Y192300D01*
X466900Y192700D01*
X466100Y192300D01*
Y189300D02*
X466500Y190100D01*
X466100Y190900D01*
X466900Y190500D01*
X467700Y190900D01*
X467300Y190100D01*
X467700Y189300D01*
X466900Y189700D01*
X466100Y189300D01*
X474200Y169700D02*
X474600Y170500D01*
X474200Y171300D01*
X475000Y170900D01*
X475800Y171300D01*
X475400Y170500D01*
X475800Y169700D01*
X475000Y170100D01*
X474200Y169700D01*
Y166800D02*
X474600Y167600D01*
X474200Y168400D01*
X475000Y168000D01*
X475800Y168400D01*
X475400Y167600D01*
X475800Y166800D01*
X475000Y167200D01*
X474200Y166800D01*
X610600Y152700D02*
X611000Y153500D01*
X610600Y154300D01*
X611400Y153900D01*
X612200Y154300D01*
X611800Y153500D01*
X612200Y152700D01*
X611400Y153100D01*
X610600Y152700D01*
X589900Y159900D02*
X590300Y160700D01*
X589900Y161500D01*
X590700Y161100D01*
X591500Y161500D01*
X591100Y160700D01*
X591500Y159900D01*
X590700Y160300D01*
X589900Y159900D01*
X590800Y197500D02*
X591200Y198300D01*
X590800Y199100D01*
X591600Y198700D01*
X592400Y199100D01*
X592000Y198300D01*
X592400Y197500D01*
X591600Y197900D01*
X590800Y197500D01*
X585800D02*
X586200Y198300D01*
X585800Y199100D01*
X586600Y198700D01*
X587400Y199100D01*
X587000Y198300D01*
X587400Y197500D01*
X586600Y197900D01*
X585800Y197500D01*
X542800Y168200D02*
X543200Y169000D01*
X542800Y169800D01*
X543600Y169400D01*
X544400Y169800D01*
X544000Y169000D01*
X544400Y168200D01*
X543600Y168600D01*
X542800Y168200D01*
X540200D02*
X540600Y169000D01*
X540200Y169800D01*
X541000Y169400D01*
X541800Y169800D01*
X541400Y169000D01*
X541800Y168200D01*
X541000Y168600D01*
X540200Y168200D01*
X602000Y206400D02*
X602400Y207200D01*
X602000Y208000D01*
X602800Y207600D01*
X603600Y208000D01*
X603200Y207200D01*
X603600Y206400D01*
X602800Y206800D01*
X602000Y206400D01*
X555400Y172000D02*
X555800Y172800D01*
X555400Y173600D01*
X556200Y173200D01*
X557000Y173600D01*
X556600Y172800D01*
X557000Y172000D01*
X556200Y172400D01*
X555400Y172000D01*
X483827Y192284D02*
X484227Y193084D01*
X483827Y193884D01*
X484627Y193484D01*
X485427Y193884D01*
X485027Y193084D01*
X485427Y192284D01*
X484627Y192684D01*
X483827Y192284D01*
Y200159D02*
X484227Y200959D01*
X483827Y201759D01*
X484627Y201359D01*
X485427Y201759D01*
X485027Y200959D01*
X485427Y200159D01*
X484627Y200559D01*
X483827Y200159D01*
X479891Y200159D02*
X480291Y200959D01*
X479891Y201759D01*
X480691Y201359D01*
X481491Y201759D01*
X481091Y200959D01*
X481491Y200159D01*
X480691Y200559D01*
X479891Y200159D01*
X487765D02*
X488165Y200959D01*
X487765Y201759D01*
X488565Y201359D01*
X489365Y201759D01*
X488965Y200959D01*
X489365Y200159D01*
X488565Y200559D01*
X487765Y200159D01*
X487764Y196222D02*
X488164Y197022D01*
X487764Y197822D01*
X488564Y197422D01*
X489364Y197822D01*
X488964Y197022D01*
X489364Y196222D01*
X488564Y196622D01*
X487764Y196222D01*
X479890Y192284D02*
X480290Y193084D01*
X479890Y193884D01*
X480690Y193484D01*
X481490Y193884D01*
X481090Y193084D01*
X481490Y192284D01*
X480690Y192684D01*
X479890Y192284D01*
X487764D02*
X488164Y193084D01*
X487764Y193884D01*
X488564Y193484D01*
X489364Y193884D01*
X488964Y193084D01*
X489364Y192284D01*
X488564Y192684D01*
X487764Y192284D01*
X479890Y196222D02*
X480290Y197022D01*
X479890Y197822D01*
X480690Y197422D01*
X481490Y197822D01*
X481090Y197022D01*
X481490Y196222D01*
X480690Y196622D01*
X479890Y196222D01*
X483827D02*
X484227Y197022D01*
X483827Y197822D01*
X484627Y197422D01*
X485427Y197822D01*
X485027Y197022D01*
X485427Y196222D01*
X484627Y196622D01*
X483827Y196222D01*
D76*
X627045Y207217D02*
G03*
X627045Y207217I-800J0D01*
G01*
Y171783D02*
G03*
X627045Y171783I-800J0D01*
G01*
M02*
