G04*
G04 #@! TF.GenerationSoftware,Altium Limited,Altium Designer,21.8.1 (53)*
G04*
G04 Layer_Color=16711935*
%FSLAX25Y25*%
%MOIN*%
G70*
G04*
G04 #@! TF.SameCoordinates,17BD96DF-920B-4E40-B81F-192E6F3E527F*
G04*
G04*
G04 #@! TF.FilePolarity,Negative*
G04*
G01*
G75*
%ADD39R,0.04500X0.03650*%
%ADD53O,0.09555X0.05224*%
%ADD54O,0.08374X0.05224*%
%ADD55C,0.03453*%
%ADD56R,0.07193X0.07193*%
%ADD57C,0.07193*%
%ADD58C,0.02902*%
D39*
X542850Y175600D02*
D03*
X550150D02*
D03*
D53*
X609906Y171783D02*
D03*
X609906Y207216D02*
D03*
D54*
X626245Y207217D02*
D03*
X626245Y171784D02*
D03*
D55*
X611875Y200879D02*
D03*
Y178122D02*
D03*
D56*
X630587Y224500D02*
D03*
X570587Y154500D02*
D03*
D57*
X620587Y224500D02*
D03*
X610587D02*
D03*
X600587D02*
D03*
X590587D02*
D03*
X580587D02*
D03*
X570587D02*
D03*
X560587D02*
D03*
X550587D02*
D03*
X540587D02*
D03*
X530587D02*
D03*
X520587D02*
D03*
X510587D02*
D03*
X500587D02*
D03*
X490587D02*
D03*
X480587D02*
D03*
X470587D02*
D03*
X460587D02*
D03*
Y154500D02*
D03*
X470587D02*
D03*
X480587D02*
D03*
X490587D02*
D03*
X500587D02*
D03*
X510587D02*
D03*
X560587D02*
D03*
X550587D02*
D03*
X540587D02*
D03*
X530587D02*
D03*
X520587D02*
D03*
D58*
X484627Y193084D02*
D03*
Y200959D02*
D03*
X480691D02*
D03*
X488565D02*
D03*
X488564Y197022D02*
D03*
X480690Y193084D02*
D03*
X488564D02*
D03*
X480690Y197022D02*
D03*
X484627D02*
D03*
M02*
