G04*
G04 #@! TF.GenerationSoftware,Altium Limited,Altium Designer,21.8.1 (53)*
G04*
G04 Layer_Color=8388736*
%FSLAX25Y25*%
%MOIN*%
G70*
G04*
G04 #@! TF.SameCoordinates,17BD96DF-920B-4E40-B81F-192E6F3E527F*
G04*
G04*
G04 #@! TF.FilePolarity,Negative*
G04*
G01*
G75*
%ADD35R,0.01602X0.03650*%
%ADD36R,0.03650X0.01602*%
%ADD37R,0.21760X0.21760*%
%ADD38R,0.04500X0.03500*%
%ADD39R,0.04500X0.03650*%
%ADD40R,0.14279X0.02075*%
%ADD41R,0.03650X0.04500*%
%ADD42R,0.03500X0.04500*%
%ADD43R,0.02862X0.06012*%
%ADD44R,0.02862X0.07587*%
G04:AMPARAMS|DCode=45|XSize=130mil|YSize=75mil|CornerRadius=0mil|HoleSize=0mil|Usage=FLASHONLY|Rotation=90.000|XOffset=0mil|YOffset=0mil|HoleType=Round|Shape=Octagon|*
%AMOCTAGOND45*
4,1,8,0.01875,0.06500,-0.01875,0.06500,-0.03750,0.04625,-0.03750,-0.04625,-0.01875,-0.06500,0.01875,-0.06500,0.03750,-0.04625,0.03750,0.04625,0.01875,0.06500,0.0*
%
%ADD45OCTAGOND45*%

%ADD46R,0.05028X0.01681*%
%ADD47R,0.05020X0.01680*%
%ADD48R,0.05500X0.04000*%
G04:AMPARAMS|DCode=49|XSize=55mil|YSize=40mil|CornerRadius=0mil|HoleSize=0mil|Usage=FLASHONLY|Rotation=0.000|XOffset=0mil|YOffset=0mil|HoleType=Round|Shape=Octagon|*
%AMOCTAGOND49*
4,1,8,0.02750,-0.01000,0.02750,0.01000,0.01750,0.02000,-0.01750,0.02000,-0.02750,0.01000,-0.02750,-0.01000,-0.01750,-0.02000,0.01750,-0.02000,0.02750,-0.01000,0.0*
%
%ADD49OCTAGOND49*%

%ADD50R,0.04437X0.07193*%
%ADD51R,0.09161X0.06406*%
%ADD52O,0.02760X0.08514*%
%ADD53O,0.09555X0.05224*%
%ADD54O,0.08374X0.05224*%
%ADD55C,0.03453*%
%ADD56R,0.07193X0.07193*%
%ADD57C,0.07193*%
%ADD58C,0.02902*%
D35*
X473800Y183241D02*
D03*
X475769Y183241D02*
D03*
X477737Y183241D02*
D03*
X479706Y183241D02*
D03*
X481674Y183241D02*
D03*
X483643Y183241D02*
D03*
X485611Y183241D02*
D03*
X487580Y183241D02*
D03*
X489548Y183241D02*
D03*
X491517Y183241D02*
D03*
X493485Y183241D02*
D03*
X495454Y183241D02*
D03*
X495454Y210800D02*
D03*
X493485Y210800D02*
D03*
X491517Y210800D02*
D03*
X489548Y210800D02*
D03*
X487580Y210800D02*
D03*
X485611Y210800D02*
D03*
X483643Y210801D02*
D03*
X481674Y210800D02*
D03*
X479706Y210801D02*
D03*
X477737Y210800D02*
D03*
X475769Y210801D02*
D03*
X473800Y210800D02*
D03*
D36*
X498407Y186195D02*
D03*
X498406Y188164D02*
D03*
X498407Y190132D02*
D03*
X498406Y192101D02*
D03*
X498407Y194069D02*
D03*
X498406Y196038D02*
D03*
X498407Y198006D02*
D03*
X498406Y199975D02*
D03*
X498407Y201943D02*
D03*
X498406Y203912D02*
D03*
X498407Y205880D02*
D03*
X498406Y207849D02*
D03*
X470847Y207849D02*
D03*
X470848Y205880D02*
D03*
X470847Y203912D02*
D03*
X470848Y201943D02*
D03*
X470847Y199975D02*
D03*
X470848Y198006D02*
D03*
X470847Y196038D02*
D03*
X470848Y194069D02*
D03*
X470847Y192101D02*
D03*
X470848Y190132D02*
D03*
X470847Y188164D02*
D03*
X470848Y186195D02*
D03*
D37*
X484627Y197021D02*
D03*
D38*
X488500Y169300D02*
D03*
X481200D02*
D03*
X488600Y176200D02*
D03*
X481300D02*
D03*
X528700Y171900D02*
D03*
X521400D02*
D03*
X521350Y179000D02*
D03*
X528650D02*
D03*
X521375Y207400D02*
D03*
X528675D02*
D03*
X588300Y183000D02*
D03*
X595600D02*
D03*
D39*
X499950Y171800D02*
D03*
X507250D02*
D03*
X521400Y186100D02*
D03*
X528700D02*
D03*
X521375Y193200D02*
D03*
X528675D02*
D03*
X521375Y200300D02*
D03*
X528675D02*
D03*
X606200Y164200D02*
D03*
X613500D02*
D03*
Y215000D02*
D03*
X606200D02*
D03*
D40*
X546500Y206035D02*
D03*
Y203279D02*
D03*
Y200523D02*
D03*
Y197768D02*
D03*
Y195012D02*
D03*
Y192256D02*
D03*
Y189500D02*
D03*
Y186744D02*
D03*
Y183988D02*
D03*
Y181232D02*
D03*
Y178476D02*
D03*
Y175720D02*
D03*
Y172965D02*
D03*
D03*
D41*
X574000Y203950D02*
D03*
Y211250D02*
D03*
X566600Y203950D02*
D03*
Y211250D02*
D03*
D42*
X574000Y186700D02*
D03*
Y194000D02*
D03*
X566600Y186700D02*
D03*
Y194000D02*
D03*
X588800Y174700D02*
D03*
Y167400D02*
D03*
X596200Y174700D02*
D03*
Y167400D02*
D03*
D43*
X579906Y163913D02*
D03*
X568094D02*
D03*
D44*
X574000Y164701D02*
D03*
D45*
Y174000D02*
D03*
D46*
X606757Y202689D02*
D03*
Y201508D02*
D03*
X606756Y199540D02*
D03*
Y198358D02*
D03*
X606757Y196390D02*
D03*
Y192453D02*
D03*
X606763Y190484D02*
D03*
X606757Y188516D02*
D03*
X606764Y186546D02*
D03*
X606755Y184579D02*
D03*
X606773Y180642D02*
D03*
Y179461D02*
D03*
X606763Y177492D02*
D03*
Y176311D02*
D03*
D47*
X606757Y194421D02*
D03*
X606757Y182610D02*
D03*
D48*
X625000Y164200D02*
D03*
Y215000D02*
D03*
D49*
X632000Y164200D02*
D03*
Y215000D02*
D03*
D50*
X632268Y153500D02*
D03*
X615732D02*
D03*
X602868Y153500D02*
D03*
X586332D02*
D03*
D51*
X444000Y200091D02*
D03*
Y178909D02*
D03*
D52*
X581620Y192103D02*
D03*
X586620D02*
D03*
X591620D02*
D03*
X596620D02*
D03*
X581620Y213897D02*
D03*
X586620D02*
D03*
X591620D02*
D03*
X596620D02*
D03*
D53*
X609906Y171783D02*
D03*
X609906Y207216D02*
D03*
D54*
X626245Y207217D02*
D03*
X626245Y171784D02*
D03*
D55*
X611875Y200879D02*
D03*
Y178122D02*
D03*
D56*
X630587Y224500D02*
D03*
X570587Y154500D02*
D03*
D57*
X620587Y224500D02*
D03*
X610587D02*
D03*
X600587D02*
D03*
X590587D02*
D03*
X580587D02*
D03*
X570587D02*
D03*
X560587D02*
D03*
X550587D02*
D03*
X540587D02*
D03*
X530587D02*
D03*
X520587D02*
D03*
X510587D02*
D03*
X500587D02*
D03*
X490587D02*
D03*
X480587D02*
D03*
X470587D02*
D03*
X460587D02*
D03*
Y154500D02*
D03*
X470587D02*
D03*
X480587D02*
D03*
X490587D02*
D03*
X500587D02*
D03*
X510587D02*
D03*
X560587D02*
D03*
X550587D02*
D03*
X540587D02*
D03*
X530587D02*
D03*
X520587D02*
D03*
D58*
X484627Y193084D02*
D03*
Y200959D02*
D03*
X480691D02*
D03*
X488565D02*
D03*
X488564Y197022D02*
D03*
X480690Y193084D02*
D03*
X488564D02*
D03*
X480690Y197022D02*
D03*
X484627D02*
D03*
M02*
